<svg xmlns="http://www.w3.org/2000/svg" xmlns:xlink="http://www.w3.org/1999/xlink" width="200" zoomAndPan="magnify" viewBox="0 0 150 74.999997" height="100" preserveAspectRatio="xMidYMid meet" version="1.0"><defs><g/><clipPath id="id1"><path d="M 24 12 L 42.546875 12 L 42.546875 30.429688 L 24 30.429688 Z M 24 12 " clip-rule="nonzero"/></clipPath><clipPath id="id2"><path d="M 22.597656 10.484375 L 42 10.484375 L 42 30 L 22.597656 30 Z M 22.597656 10.484375 " clip-rule="nonzero"/></clipPath><clipPath id="id3"><path d="M 22.597656 10.484375 L 42.546875 10.484375 L 42.546875 30.429688 L 22.597656 30.429688 Z M 22.597656 10.484375 " clip-rule="nonzero"/></clipPath><clipPath id="id4"><path d="M 24 37 L 42.546875 37 L 42.546875 55.511719 L 24 55.511719 Z M 24 37 " clip-rule="nonzero"/></clipPath><clipPath id="id5"><path d="M 22.597656 35.5625 L 42 35.5625 L 42 55 L 22.597656 55 Z M 22.597656 35.5625 " clip-rule="nonzero"/></clipPath><clipPath id="id6"><path d="M 22.597656 35.5625 L 42.546875 35.5625 L 42.546875 55.511719 L 22.597656 55.511719 Z M 22.597656 35.5625 " clip-rule="nonzero"/></clipPath><clipPath id="id7"><path d="M 35 8 L 147.792969 8 L 147.792969 69.632812 L 35 69.632812 Z M 35 8 " clip-rule="nonzero"/></clipPath><clipPath id="id8"><path d="M 32.550781 5.363281 L 147 5.363281 L 147 68 L 32.550781 68 Z M 32.550781 5.363281 " clip-rule="nonzero"/></clipPath><clipPath id="id9"><path d="M 32.550781 5.363281 L 147.792969 5.363281 L 147.792969 69.632812 L 32.550781 69.632812 Z M 32.550781 5.363281 " clip-rule="nonzero"/></clipPath></defs><g clip-path="url(#id1)"><path fill="#9aa7b2" d="M 41.664062 25.863281 C 41.664062 27.84375 39.914062 29.453125 38.046875 29.453125 L 26.25 29.453125 C 25.726562 29.453125 25.199219 29.335938 24.734375 29.136719 C 25.347656 29.769531 26.191406 30.140625 27.007812 30.140625 L 38.921875 30.140625 C 40.761719 30.140625 42.277344 28.648438 42.277344 26.839844 L 42.277344 15.046875 C 42.277344 14.214844 41.957031 13.46875 41.460938 12.894531 C 41.605469 13.269531 41.664062 13.671875 41.664062 14.074219 L 41.664062 25.863281 " fill-opacity="1" fill-rule="nonzero"/></g><g clip-path="url(#id2)"><path fill="#000000" d="M 26.25 29.164062 L 37.988281 29.164062 C 39.828125 29.164062 41.34375 27.671875 41.34375 25.863281 L 41.34375 14.074219 C 41.34375 12.261719 39.828125 10.769531 37.988281 10.769531 L 26.25 10.769531 C 24.414062 10.769531 22.894531 12.261719 22.894531 14.074219 L 22.894531 25.863281 C 22.894531 27.699219 24.414062 29.164062 26.25 29.164062 " fill-opacity="1" fill-rule="nonzero"/></g><g clip-path="url(#id3)"><path fill="#77838d" d="M 41.082031 12.175781 C 40.441406 11.171875 39.300781 10.484375 37.988281 10.484375 L 26.25 10.484375 C 24.238281 10.484375 22.601562 12.089844 22.601562 14.074219 L 22.601562 25.863281 C 22.601562 27.039062 23.1875 28.074219 24.0625 28.734375 C 24.703125 29.738281 25.84375 30.429688 27.019531 30.429688 L 38.890625 30.429688 C 40.90625 30.429688 42.542969 28.820312 42.542969 26.839844 L 42.542969 15.046875 C 42.542969 13.871094 41.957031 12.835938 41.082031 12.175781 M 22.894531 25.863281 L 22.894531 14.074219 C 22.894531 12.261719 24.414062 10.769531 26.25 10.769531 L 37.988281 10.769531 C 39.828125 10.769531 41.34375 12.261719 41.34375 14.074219 L 41.34375 25.863281 C 41.34375 27.671875 39.828125 29.164062 37.988281 29.164062 L 26.25 29.164062 C 24.414062 29.164062 22.894531 27.699219 22.894531 25.863281 M 42.277344 26.839844 C 42.277344 28.648438 40.730469 30.140625 38.890625 30.140625 L 27.019531 30.140625 C 26.222656 30.140625 25.375 29.769531 24.761719 29.136719 C 25.230469 29.335938 25.726562 29.453125 26.28125 29.453125 L 38.015625 29.453125 C 40.03125 29.453125 41.664062 27.84375 41.664062 25.863281 L 41.664062 14.074219 C 41.664062 13.671875 41.578125 13.269531 41.460938 12.894531 C 41.957031 13.46875 42.277344 14.214844 42.277344 15.046875 L 42.277344 26.839844 " fill-opacity="1" fill-rule="nonzero"/></g><g clip-path="url(#id4)"><path fill="#9aa7b2" d="M 41.664062 50.945312 C 41.664062 52.925781 39.914062 54.535156 38.046875 54.535156 L 26.25 54.535156 C 25.726562 54.535156 25.199219 54.417969 24.734375 54.21875 C 25.347656 54.847656 26.191406 55.222656 27.007812 55.222656 L 38.921875 55.222656 C 40.761719 55.222656 42.277344 53.730469 42.277344 51.921875 L 42.277344 40.128906 C 42.277344 39.296875 41.957031 38.550781 41.460938 37.976562 C 41.605469 38.347656 41.664062 38.75 41.664062 39.152344 L 41.664062 50.945312 " fill-opacity="1" fill-rule="nonzero"/></g><g clip-path="url(#id5)"><path fill="#000000" d="M 26.25 54.246094 L 37.988281 54.246094 C 39.828125 54.246094 41.34375 52.753906 41.34375 50.945312 L 41.34375 39.152344 C 41.34375 37.34375 39.828125 35.851562 37.988281 35.851562 L 26.25 35.851562 C 24.414062 35.851562 22.894531 37.34375 22.894531 39.152344 L 22.894531 50.945312 C 22.894531 52.78125 24.414062 54.246094 26.25 54.246094 " fill-opacity="1" fill-rule="nonzero"/></g><g clip-path="url(#id6)"><path fill="#77838d" d="M 41.082031 37.257812 C 40.441406 36.253906 39.300781 35.5625 37.988281 35.5625 L 26.25 35.5625 C 24.238281 35.5625 22.601562 37.171875 22.601562 39.152344 L 22.601562 50.945312 C 22.601562 52.121094 23.1875 53.15625 24.0625 53.816406 C 24.703125 54.820312 25.84375 55.511719 27.019531 55.511719 L 38.890625 55.511719 C 40.90625 55.511719 42.542969 53.902344 42.542969 51.921875 L 42.542969 40.128906 C 42.542969 38.953125 41.957031 37.917969 41.082031 37.257812 M 22.894531 50.945312 L 22.894531 39.152344 C 22.894531 37.34375 24.414062 35.851562 26.25 35.851562 L 37.988281 35.851562 C 39.828125 35.851562 41.34375 37.34375 41.34375 39.152344 L 41.34375 50.945312 C 41.34375 52.753906 39.828125 54.246094 37.988281 54.246094 L 26.25 54.246094 C 24.414062 54.246094 22.894531 52.78125 22.894531 50.945312 M 42.277344 51.921875 C 42.277344 53.730469 40.730469 55.222656 38.890625 55.222656 L 27.019531 55.222656 C 26.222656 55.222656 25.375 54.847656 24.761719 54.21875 C 25.230469 54.417969 25.726562 54.535156 26.28125 54.535156 L 38.015625 54.535156 C 40.03125 54.535156 41.664062 52.925781 41.664062 50.945312 L 41.664062 39.152344 C 41.664062 38.75 41.578125 38.347656 41.460938 37.976562 C 41.957031 38.550781 42.277344 39.296875 42.277344 40.128906 L 42.277344 51.921875 " fill-opacity="1" fill-rule="nonzero"/></g><g clip-path="url(#id7)"><path fill="#9aa7b2" d="M 146.570312 63.167969 C 146.570312 65.972656 144.117188 68.25 141.507812 68.25 L 37.65625 68.25 C 36.921875 68.25 36.183594 68.089844 35.53125 67.804688 C 36.390625 68.699219 37.574219 69.226562 39.269531 69.226562 L 142.730469 69.226562 C 145.304688 69.226562 147.425781 67.113281 147.425781 64.550781 L 147.425781 11.832031 C 147.425781 10.652344 146.976562 9.59375 146.28125 8.78125 C 146.488281 9.308594 146.570312 9.878906 146.570312 10.449219 L 146.570312 63.167969 " fill-opacity="1" fill-rule="nonzero"/></g><g clip-path="url(#id8)"><path fill="#7ed957" d="M 37.65625 67.84375 L 141.425781 67.84375 C 143.996094 67.84375 146.121094 65.730469 146.121094 63.167969 L 146.121094 10.449219 C 146.121094 7.886719 143.996094 5.769531 141.425781 5.769531 L 37.65625 5.769531 C 35.082031 5.769531 32.960938 7.886719 32.960938 10.449219 L 32.960938 63.167969 C 32.960938 65.769531 35.082031 67.84375 37.65625 67.84375 " fill-opacity="1" fill-rule="nonzero"/></g><g clip-path="url(#id9)"><path fill="#77838d" d="M 145.75 7.761719 C 144.855469 6.339844 143.261719 5.363281 141.425781 5.363281 L 37.65625 5.363281 C 34.839844 5.363281 32.550781 7.640625 32.550781 10.449219 L 32.550781 63.167969 C 32.550781 64.835938 33.367188 66.300781 34.59375 67.234375 C 35.492188 68.65625 37.082031 69.632812 39.375 69.632812 L 142.691406 69.632812 C 145.507812 69.632812 147.792969 67.355469 147.792969 64.550781 L 147.792969 11.832031 C 147.792969 10.164062 146.976562 8.699219 145.75 7.761719 M 32.960938 63.167969 L 32.960938 10.449219 C 32.960938 7.886719 35.082031 5.769531 37.65625 5.769531 L 141.425781 5.769531 C 143.996094 5.769531 146.121094 7.886719 146.121094 10.449219 L 146.121094 63.167969 C 146.121094 65.730469 143.996094 67.84375 141.425781 67.84375 L 37.65625 67.84375 C 35.082031 67.84375 32.960938 65.769531 32.960938 63.167969 M 147.425781 64.550781 C 147.425781 67.113281 145.261719 69.226562 142.691406 69.226562 L 39.375 69.226562 C 37.613281 69.226562 36.429688 68.699219 35.574219 67.804688 C 36.226562 68.089844 36.921875 68.25 37.695312 68.25 L 141.464844 68.25 C 144.28125 68.25 146.570312 65.972656 146.570312 63.167969 L 146.570312 10.449219 C 146.570312 9.878906 146.445312 9.308594 146.28125 8.78125 C 146.976562 9.59375 147.425781 10.652344 147.425781 11.832031 L 147.425781 64.550781 " fill-opacity="1" fill-rule="nonzero"/></g><g fill="#000000" fill-opacity="1"><g transform="translate(38.353125, 40.508697)"><g><path d="M 11.015625 0 L 7.535156 -10.257812 L 3.753906 -10.257812 L 0.289062 0 L 2.648438 0 L 3.492188 -2.5625 L 7.8125 -2.5625 L 8.65625 0 Z M 5.355469 -8.222656 L 5.9375 -8.222656 L 7.128906 -4.597656 L 4.160156 -4.597656 Z M 5.355469 -8.222656 "/></g></g></g><g fill="#000000" fill-opacity="1"><g transform="translate(49.652986, 40.508697)"><g><path d="M 0.582031 -3.679688 C 0.582031 -1.222656 2.253906 0.144531 4.597656 0.144531 C 6.605469 0.144531 8.4375 -0.945312 8.539062 -3.039062 L 6.210938 -3.039062 C 6.125 -2.386719 5.527344 -1.890625 4.597656 -1.890625 C 3.492188 -1.890625 2.910156 -2.546875 2.910156 -3.679688 C 2.910156 -4.800781 3.492188 -5.457031 4.597656 -5.457031 C 5.527344 -5.457031 6.125 -4.960938 6.210938 -4.308594 L 8.539062 -4.308594 C 8.4375 -6.402344 6.605469 -7.492188 4.597656 -7.492188 C 2.253906 -7.492188 0.582031 -6.125 0.582031 -3.679688 Z M 0.582031 -3.679688 "/></g></g></g><g fill="#000000" fill-opacity="1"><g transform="translate(58.771409, 40.508697)"><g><path d="M 0.582031 -3.679688 C 0.582031 -1.222656 2.253906 0.144531 4.597656 0.144531 C 6.605469 0.144531 8.4375 -0.945312 8.539062 -3.039062 L 6.210938 -3.039062 C 6.125 -2.386719 5.527344 -1.890625 4.597656 -1.890625 C 3.492188 -1.890625 2.910156 -2.546875 2.910156 -3.679688 C 2.910156 -4.800781 3.492188 -5.457031 4.597656 -5.457031 C 5.527344 -5.457031 6.125 -4.960938 6.210938 -4.308594 L 8.539062 -4.308594 C 8.4375 -6.402344 6.605469 -7.492188 4.597656 -7.492188 C 2.253906 -7.492188 0.582031 -6.125 0.582031 -3.679688 Z M 0.582031 -3.679688 "/></g></g></g><g fill="#000000" fill-opacity="1"><g transform="translate(67.889831, 40.508697)"><g><path d="M 4.570312 -1.890625 C 3.449219 -1.890625 3.054688 -2.402344 3.054688 -3.738281 L 3.054688 -7.347656 L 0.726562 -7.347656 L 0.726562 -3.375 C 0.726562 -1.105469 1.863281 0.144531 3.738281 0.144531 C 5.3125 0.144531 6.226562 -0.886719 6.519531 -2.195312 L 7.101562 -2.195312 L 6.664062 -0.886719 L 6.664062 0 L 8.992188 0 L 8.992188 -7.347656 L 6.664062 -7.347656 L 6.664062 -4.625 C 6.664062 -2.5625 5.835938 -1.890625 4.570312 -1.890625 Z M 4.570312 -1.890625 "/></g></g></g><g fill="#000000" fill-opacity="1"><g transform="translate(77.604514, 40.508697)"><g><path d="M 10.707031 -7.492188 C 9.28125 -7.492188 8.628906 -6.605469 8.335938 -5.296875 L 7.914062 -5.296875 C 7.695312 -6.578125 7.113281 -7.492188 5.734375 -7.492188 C 4.308594 -7.492188 3.636719 -6.605469 3.347656 -5.296875 L 2.765625 -5.296875 L 3.199219 -6.605469 L 3.199219 -7.347656 L 0.871094 -7.347656 L 0.871094 0 L 3.199219 0 L 3.199219 -2.574219 C 3.199219 -4.351562 3.492188 -5.457031 4.757812 -5.457031 C 5.617188 -5.457031 5.847656 -5.0625 5.847656 -3.667969 L 5.847656 0 L 8.175781 0 L 8.175781 -2.574219 C 8.175781 -4.351562 8.46875 -5.457031 9.734375 -5.457031 C 10.59375 -5.457031 10.824219 -5.0625 10.824219 -3.667969 L 10.824219 0 L 13.152344 0 L 13.152344 -3.828125 C 13.152344 -5.804688 12.585938 -7.492188 10.707031 -7.492188 Z M 10.707031 -7.492188 "/></g></g></g><g fill="#000000" fill-opacity="1"><g transform="translate(91.478471, 40.508697)"><g><path d="M 4.570312 -1.890625 C 3.449219 -1.890625 3.054688 -2.402344 3.054688 -3.738281 L 3.054688 -7.347656 L 0.726562 -7.347656 L 0.726562 -3.375 C 0.726562 -1.105469 1.863281 0.144531 3.738281 0.144531 C 5.3125 0.144531 6.226562 -0.886719 6.519531 -2.195312 L 7.101562 -2.195312 L 6.664062 -0.886719 L 6.664062 0 L 8.992188 0 L 8.992188 -7.347656 L 6.664062 -7.347656 L 6.664062 -4.625 C 6.664062 -2.5625 5.835938 -1.890625 4.570312 -1.890625 Z M 4.570312 -1.890625 "/></g></g></g><g fill="#000000" fill-opacity="1"><g transform="translate(101.193154, 40.508697)"><g><path d="M 6.839844 0 L 6.839844 -2.035156 L 4.800781 -2.035156 L 4.800781 -9.574219 C 4.800781 -10.390625 4.351562 -10.824219 3.535156 -10.796875 L 0.726562 -10.695312 L 0.726562 -8.65625 L 2.472656 -8.746094 L 2.472656 -2.035156 L 0.4375 -2.035156 L 0.4375 0 Z M 6.839844 0 "/></g></g></g><g fill="#000000" fill-opacity="1"><g transform="translate(108.319195, 40.508697)"><g><path d="M 0.582031 -2.007812 C 0.582031 -1.25 0.976562 0.144531 3.257812 0.144531 C 5.3125 0.144531 6.023438 -0.886719 6.300781 -2.109375 L 6.882812 -2.109375 L 6.519531 -1.238281 L 6.519531 -1.089844 C 6.519531 -0.394531 6.910156 0 7.609375 0 L 9.226562 0 L 9.226562 -2.035156 L 8.164062 -2.035156 L 8.164062 -4.101562 C 8.164062 -6.519531 6.386719 -7.492188 4.363281 -7.492188 C 2.3125 -7.492188 0.726562 -6.402344 0.726562 -4.539062 L 2.910156 -4.539062 C 2.910156 -5.207031 3.433594 -5.601562 4.363281 -5.601562 C 5.367188 -5.601562 5.835938 -5.238281 5.835938 -4.640625 L 3.519531 -4.320312 C 1.339844 -4.015625 0.582031 -3.273438 0.582031 -2.007812 Z M 2.910156 -2.445312 C 2.910156 -2.867188 3.257812 -2.96875 3.957031 -3.070312 L 5.835938 -3.332031 C 5.835938 -2.429688 4.992188 -1.890625 3.710938 -1.890625 C 3.316406 -1.890625 2.910156 -2.023438 2.910156 -2.445312 Z M 2.910156 -2.445312 "/></g></g></g><g fill="#000000" fill-opacity="1"><g transform="translate(117.684844, 40.508697)"><g><path d="M 4.21875 -5.3125 L 6.636719 -5.3125 L 6.636719 -7.347656 L 4.21875 -7.347656 L 4.21875 -9.457031 L 1.890625 -8.730469 L 1.890625 -7.347656 L 0.144531 -7.347656 L 0.144531 -5.3125 L 1.890625 -5.3125 L 1.890625 -1.089844 C 1.890625 -0.289062 2.328125 0.175781 3.128906 0.144531 L 6.925781 0 L 6.925781 -2.035156 L 4.21875 -1.890625 Z M 4.21875 -5.3125 "/></g></g></g><g fill="#000000" fill-opacity="1"><g transform="translate(125.043566, 40.508697)"><g><path d="M 0.582031 -3.679688 C 0.582031 -1.105469 2.414062 0.144531 4.730469 0.144531 C 7.027344 0.144531 8.859375 -1.105469 8.859375 -3.679688 C 8.859375 -6.242188 7.027344 -7.492188 4.730469 -7.492188 C 2.414062 -7.492188 0.582031 -6.242188 0.582031 -3.679688 Z M 2.910156 -3.679688 C 2.910156 -4.902344 3.621094 -5.457031 4.730469 -5.457031 C 5.820312 -5.457031 6.53125 -4.902344 6.53125 -3.679688 C 6.53125 -2.445312 5.820312 -1.890625 4.730469 -1.890625 C 3.621094 -1.890625 2.910156 -2.445312 2.910156 -3.679688 Z M 2.910156 -3.679688 "/></g></g></g><g fill="#000000" fill-opacity="1"><g transform="translate(134.481931, 40.508697)"><g><path d="M 3.199219 0 L 3.199219 -5.398438 L 6.941406 -5.3125 L 6.941406 -7.347656 L 2.125 -7.464844 C 1.324219 -7.480469 0.871094 -7.042969 0.871094 -6.242188 L 0.871094 0 Z M 3.199219 0 "/></g></g></g><g fill="#000000" fill-opacity="1"><g transform="translate(1.874842, 28.362321)"><g><path d="M 15.636719 0 L 10.699219 -14.5625 L 5.328125 -14.5625 L 0.414062 0 L 3.757812 0 L 4.957031 -3.636719 L 11.09375 -3.636719 L 12.289062 0 Z M 7.601562 -11.671875 L 8.425781 -11.671875 L 10.121094 -6.527344 L 5.90625 -6.527344 Z M 7.601562 -11.671875 "/></g></g></g><g fill="#000000" fill-opacity="1"><g transform="translate(2.879071, 54.411496)"><g><path d="M 0.621094 -14.5625 L 0.621094 -11.671875 L 5.390625 -11.671875 L 5.390625 0 L 8.695312 0 L 8.695312 -11.671875 L 13.445312 -11.671875 L 13.445312 -14.5625 Z M 0.621094 -14.5625 "/></g></g></g></svg>