<svg xmlns="http://www.w3.org/2000/svg" xmlns:xlink="http://www.w3.org/1999/xlink" width="200" zoomAndPan="magnify" viewBox="0 0 150 37.5" height="50" preserveAspectRatio="xMidYMid meet" version="1.0"><defs><g/></defs><g fill="#000000" fill-opacity="1"><g transform="translate(24.934694, 12.93337)"><g><path d="M 2.332031 -7.863281 C 2.332031 -6.066406 1.785156 -5.308594 0.335938 -4.738281 L 0.960938 -3.121094 C 3.042969 -3.871094 3.546875 -5.386719 3.679688 -6.300781 L 4.015625 -6.300781 L 4.015625 0 L 5.800781 0 L 5.800781 -7.863281 Z M 2.332031 -7.863281 "/></g></g></g><g fill="#000000" fill-opacity="1"><g transform="translate(31.40024, 12.93337)"><g/></g></g><g fill="#000000" fill-opacity="1"><g transform="translate(34.52154, 12.93337)"><g><path d="M 4.460938 -3.679688 L 4.460938 -6.023438 L 3.121094 -6.023438 L 3.121094 -3.679688 L 0.78125 -3.679688 L 0.78125 -2.34375 L 3.121094 -2.34375 L 3.121094 0 L 4.460938 0 L 4.460938 -2.34375 L 6.804688 -2.34375 L 6.804688 -3.679688 Z M 4.460938 -3.679688 "/></g></g></g><g fill="#000000" fill-opacity="1"><g transform="translate(42.101834, 12.93337)"><g/></g></g><g fill="#000000" fill-opacity="1"><g transform="translate(45.223135, 12.93337)"><g><path d="M 2.117188 -1.894531 C 4.683594 -2.464844 7.316406 -2.6875 7.316406 -5.332031 C 7.316406 -7.046875 6.023438 -7.972656 4.160156 -7.972656 C 2.097656 -7.972656 0.445312 -6.902344 0.445312 -4.261719 L 2.230469 -4.261719 C 2.230469 -5.765625 2.832031 -6.414062 4.183594 -6.414062 C 5.195312 -6.414062 5.53125 -5.910156 5.53125 -5.410156 C 5.53125 -3.667969 1.359375 -3.234375 0.558594 -3.121094 L 0.558594 0 L 7.316406 0 L 7.316406 -1.5625 L 2.117188 -1.5625 Z M 2.117188 -1.894531 "/></g></g></g><g fill="#000000" fill-opacity="1"><g transform="translate(52.981793, 12.93337)"><g/></g></g><g fill="#000000" fill-opacity="1"><g transform="translate(56.103094, 12.93337)"><g><path d="M 4.460938 -3.679688 L 4.460938 -6.023438 L 3.121094 -6.023438 L 3.121094 -3.679688 L 0.78125 -3.679688 L 0.78125 -2.34375 L 3.121094 -2.34375 L 3.121094 0 L 4.460938 0 L 4.460938 -2.34375 L 6.804688 -2.34375 L 6.804688 -3.679688 Z M 4.460938 -3.679688 "/></g></g></g><g fill="#000000" fill-opacity="1"><g transform="translate(63.683388, 12.93337)"><g/></g></g><g fill="#000000" fill-opacity="1"><g transform="translate(66.804689, 12.93337)"><g><path d="M 0.335938 -3 C 0.335938 -0.636719 1.984375 0.113281 4.003906 0.113281 C 5.890625 0.113281 7.382812 -0.578125 7.382812 -2.128906 C 7.382812 -3.523438 6.414062 -3.691406 5.410156 -3.824219 L 5.410156 -4.273438 C 6.414062 -4.4375 7.273438 -4.660156 7.273438 -5.84375 C 7.273438 -7.28125 5.890625 -7.972656 4.003906 -7.972656 C 1.984375 -7.972656 0.445312 -7.226562 0.445312 -5.195312 L 2.230469 -5.195312 C 2.230469 -6.101562 2.609375 -6.414062 4.003906 -6.414062 C 5.152344 -6.414062 5.488281 -6.144531 5.488281 -5.621094 C 5.488281 -5.109375 5.1875 -4.828125 4.515625 -4.828125 L 3.425781 -4.828125 L 3.425781 -3.269531 L 4.515625 -3.269531 C 5.1875 -3.269531 5.597656 -2.976562 5.597656 -2.351562 C 5.597656 -1.71875 5.152344 -1.449219 4.003906 -1.449219 C 2.609375 -1.449219 2.117188 -1.761719 2.117188 -3 Z M 0.335938 -3 "/></g></g></g><g fill="#000000" fill-opacity="1"><g transform="translate(74.741702, 12.93337)"><g/></g></g><g fill="#000000" fill-opacity="1"><g transform="translate(77.863003, 12.93337)"><g><path d="M 4.460938 -3.679688 L 4.460938 -6.023438 L 3.121094 -6.023438 L 3.121094 -3.679688 L 0.78125 -3.679688 L 0.78125 -2.34375 L 3.121094 -2.34375 L 3.121094 0 L 4.460938 0 L 4.460938 -2.34375 L 6.804688 -2.34375 L 6.804688 -3.679688 Z M 4.460938 -3.679688 "/></g></g></g><g fill="#000000" fill-opacity="1"><g transform="translate(85.443297, 12.93337)"><g/></g></g><g fill="#000000" fill-opacity="1"><g transform="translate(88.564598, 12.93337)"><g><path d="M 6.445312 -2.886719 L 6.445312 -4.628906 L 4.660156 -4.628906 L 4.660156 -2.886719 L 2.117188 -2.886719 L 2.117188 -3.222656 C 3.792969 -3.804688 5.375 -5.265625 5.5 -7.863281 L 3.714844 -7.863281 C 3.582031 -6 2.429688 -4.863281 0.558594 -4.574219 L 0.558594 -1.328125 L 4.660156 -1.328125 L 4.660156 0 L 6.445312 0 L 6.445312 -1.328125 L 7.304688 -1.328125 L 7.304688 -2.886719 Z M 6.445312 -2.886719 "/></g></g></g><g fill="#000000" fill-opacity="1"><g transform="translate(96.312107, 12.93337)"><g/></g></g><g fill="#000000" fill-opacity="1"><g transform="translate(99.433407, 12.93337)"><g><path d="M 0.78125 -3.570312 L 6.804688 -3.570312 L 6.804688 -4.90625 L 0.78125 -4.90625 Z M 0.78125 -1.117188 L 6.804688 -1.117188 L 6.804688 -2.453125 L 0.78125 -2.453125 Z M 0.78125 -1.117188 "/></g></g></g><g fill="#000000" fill-opacity="1"><g transform="translate(107.013701, 12.93337)"><g/></g></g><g fill="#000000" fill-opacity="1"><g transform="translate(110.135002, 12.93337)"><g><path d="M 2.332031 -7.863281 C 2.332031 -6.066406 1.785156 -5.308594 0.335938 -4.738281 L 0.960938 -3.121094 C 3.042969 -3.871094 3.546875 -5.386719 3.679688 -6.300781 L 4.015625 -6.300781 L 4.015625 0 L 5.800781 0 L 5.800781 -7.863281 Z M 2.332031 -7.863281 "/></g></g></g><g fill="#000000" fill-opacity="1"><g transform="translate(116.600548, 12.93337)"><g><path d="M 4.238281 -7.972656 C 1.851562 -7.972656 0.445312 -6.335938 0.445312 -3.9375 C 0.445312 -1.527344 1.851562 0.113281 4.238281 0.113281 C 6.613281 0.113281 8.019531 -1.527344 8.019531 -3.9375 C 8.019531 -6.335938 6.613281 -7.972656 4.238281 -7.972656 Z M 4.238281 -6.414062 C 4.671875 -6.414062 5.050781 -6.3125 5.351562 -6.113281 L 2.351562 -2.910156 C 2.273438 -3.210938 2.230469 -3.546875 2.230469 -3.9375 C 2.230469 -5.554688 2.976562 -6.414062 4.238281 -6.414062 Z M 4.238281 -1.449219 C 3.804688 -1.449219 3.425781 -1.550781 3.113281 -1.761719 L 6.113281 -4.964844 C 6.191406 -4.660156 6.234375 -4.316406 6.234375 -3.9375 C 6.234375 -2.308594 5.5 -1.449219 4.238281 -1.449219 Z M 4.238281 -1.449219 "/></g></g></g><g fill="#000000" fill-opacity="1"><g transform="translate(14.883064, 28.455458)"><g><path d="M 4.25 0.558594 C 2.464844 0 2.117188 -1.316406 2.117188 -3.101562 C 2.117188 -4.886719 2.464844 -6.191406 4.25 -6.746094 L 4.25 -7.863281 C 1.839844 -7.417969 0.78125 -5.554688 0.78125 -3.101562 C 0.78125 -0.648438 1.839844 1.226562 4.25 1.671875 Z M 4.25 0.558594 "/></g></g></g><g fill="#000000" fill-opacity="1"><g transform="translate(19.910581, 28.455458)"><g><path d="M 2.332031 -7.863281 C 2.332031 -6.066406 1.785156 -5.308594 0.335938 -4.738281 L 0.960938 -3.121094 C 3.042969 -3.871094 3.546875 -5.386719 3.679688 -6.300781 L 4.015625 -6.300781 L 4.015625 0 L 5.800781 0 L 5.800781 -7.863281 Z M 2.332031 -7.863281 "/></g></g></g><g fill="#000000" fill-opacity="1"><g transform="translate(26.376126, 28.455458)"><g/></g></g><g fill="#000000" fill-opacity="1"><g transform="translate(29.497427, 28.455458)"><g><path d="M 4.460938 -3.679688 L 4.460938 -6.023438 L 3.121094 -6.023438 L 3.121094 -3.679688 L 0.78125 -3.679688 L 0.78125 -2.34375 L 3.121094 -2.34375 L 3.121094 0 L 4.460938 0 L 4.460938 -2.34375 L 6.804688 -2.34375 L 6.804688 -3.679688 Z M 4.460938 -3.679688 "/></g></g></g><g fill="#000000" fill-opacity="1"><g transform="translate(37.077721, 28.455458)"><g/></g></g><g fill="#000000" fill-opacity="1"><g transform="translate(40.199022, 28.455458)"><g><path d="M 2.117188 -1.894531 C 4.683594 -2.464844 7.316406 -2.6875 7.316406 -5.332031 C 7.316406 -7.046875 6.023438 -7.972656 4.160156 -7.972656 C 2.097656 -7.972656 0.445312 -6.902344 0.445312 -4.261719 L 2.230469 -4.261719 C 2.230469 -5.765625 2.832031 -6.414062 4.183594 -6.414062 C 5.195312 -6.414062 5.53125 -5.910156 5.53125 -5.410156 C 5.53125 -3.667969 1.359375 -3.234375 0.558594 -3.121094 L 0.558594 0 L 7.316406 0 L 7.316406 -1.5625 L 2.117188 -1.5625 Z M 2.117188 -1.894531 "/></g></g></g><g fill="#000000" fill-opacity="1"><g transform="translate(47.95768, 28.455458)"><g><path d="M 0.78125 1.671875 C 3.191406 1.226562 4.25 -0.648438 4.25 -3.101562 C 4.25 -5.554688 3.191406 -7.417969 0.78125 -7.863281 L 0.78125 -6.746094 C 2.566406 -6.191406 2.910156 -4.886719 2.910156 -3.101562 C 2.910156 -1.316406 2.566406 0 0.78125 0.558594 Z M 0.78125 1.671875 "/></g></g></g><g fill="#000000" fill-opacity="1"><g transform="translate(52.985197, 28.455458)"><g/></g></g><g fill="#000000" fill-opacity="1"><g transform="translate(56.106498, 28.455458)"><g><path d="M 4.460938 -3.679688 L 4.460938 -6.023438 L 3.121094 -6.023438 L 3.121094 -3.679688 L 0.78125 -3.679688 L 0.78125 -2.34375 L 3.121094 -2.34375 L 3.121094 0 L 4.460938 0 L 4.460938 -2.34375 L 6.804688 -2.34375 L 6.804688 -3.679688 Z M 4.460938 -3.679688 "/></g></g></g><g fill="#000000" fill-opacity="1"><g transform="translate(63.686792, 28.455458)"><g/></g></g><g fill="#000000" fill-opacity="1"><g transform="translate(66.808092, 28.455458)"><g><path d="M 4.25 0.558594 C 2.464844 0 2.117188 -1.316406 2.117188 -3.101562 C 2.117188 -4.886719 2.464844 -6.191406 4.25 -6.746094 L 4.25 -7.863281 C 1.839844 -7.417969 0.78125 -5.554688 0.78125 -3.101562 C 0.78125 -0.648438 1.839844 1.226562 4.25 1.671875 Z M 4.25 0.558594 "/></g></g></g><g fill="#000000" fill-opacity="1"><g transform="translate(71.835609, 28.455458)"><g><path d="M 0.335938 -3 C 0.335938 -0.636719 1.984375 0.113281 4.003906 0.113281 C 5.890625 0.113281 7.382812 -0.578125 7.382812 -2.128906 C 7.382812 -3.523438 6.414062 -3.691406 5.410156 -3.824219 L 5.410156 -4.273438 C 6.414062 -4.4375 7.273438 -4.660156 7.273438 -5.84375 C 7.273438 -7.28125 5.890625 -7.972656 4.003906 -7.972656 C 1.984375 -7.972656 0.445312 -7.226562 0.445312 -5.195312 L 2.230469 -5.195312 C 2.230469 -6.101562 2.609375 -6.414062 4.003906 -6.414062 C 5.152344 -6.414062 5.488281 -6.144531 5.488281 -5.621094 C 5.488281 -5.109375 5.1875 -4.828125 4.515625 -4.828125 L 3.425781 -4.828125 L 3.425781 -3.269531 L 4.515625 -3.269531 C 5.1875 -3.269531 5.597656 -2.976562 5.597656 -2.351562 C 5.597656 -1.71875 5.152344 -1.449219 4.003906 -1.449219 C 2.609375 -1.449219 2.117188 -1.761719 2.117188 -3 Z M 0.335938 -3 "/></g></g></g><g fill="#000000" fill-opacity="1"><g transform="translate(79.772623, 28.455458)"><g/></g></g><g fill="#000000" fill-opacity="1"><g transform="translate(82.893924, 28.455458)"><g><path d="M 4.460938 -3.679688 L 4.460938 -6.023438 L 3.121094 -6.023438 L 3.121094 -3.679688 L 0.78125 -3.679688 L 0.78125 -2.34375 L 3.121094 -2.34375 L 3.121094 0 L 4.460938 0 L 4.460938 -2.34375 L 6.804688 -2.34375 L 6.804688 -3.679688 Z M 4.460938 -3.679688 "/></g></g></g><g fill="#000000" fill-opacity="1"><g transform="translate(90.474218, 28.455458)"><g/></g></g><g fill="#000000" fill-opacity="1"><g transform="translate(93.595518, 28.455458)"><g><path d="M 6.445312 -2.886719 L 6.445312 -4.628906 L 4.660156 -4.628906 L 4.660156 -2.886719 L 2.117188 -2.886719 L 2.117188 -3.222656 C 3.792969 -3.804688 5.375 -5.265625 5.5 -7.863281 L 3.714844 -7.863281 C 3.582031 -6 2.429688 -4.863281 0.558594 -4.574219 L 0.558594 -1.328125 L 4.660156 -1.328125 L 4.660156 0 L 6.445312 0 L 6.445312 -1.328125 L 7.304688 -1.328125 L 7.304688 -2.886719 Z M 6.445312 -2.886719 "/></g></g></g><g fill="#000000" fill-opacity="1"><g transform="translate(101.343027, 28.455458)"><g><path d="M 0.78125 1.671875 C 3.191406 1.226562 4.25 -0.648438 4.25 -3.101562 C 4.25 -5.554688 3.191406 -7.417969 0.78125 -7.863281 L 0.78125 -6.746094 C 2.566406 -6.191406 2.910156 -4.886719 2.910156 -3.101562 C 2.910156 -1.316406 2.566406 0 0.78125 0.558594 Z M 0.78125 1.671875 "/></g></g></g><g fill="#000000" fill-opacity="1"><g transform="translate(106.370544, 28.455458)"><g/></g></g><g fill="#000000" fill-opacity="1"><g transform="translate(109.491845, 28.455458)"><g><path d="M 0.78125 -3.570312 L 6.804688 -3.570312 L 6.804688 -4.90625 L 0.78125 -4.90625 Z M 0.78125 -1.117188 L 6.804688 -1.117188 L 6.804688 -2.453125 L 0.78125 -2.453125 Z M 0.78125 -1.117188 "/></g></g></g><g fill="#000000" fill-opacity="1"><g transform="translate(117.072139, 28.455458)"><g/></g></g><g fill="#000000" fill-opacity="1"><g transform="translate(120.193439, 28.455458)"><g><path d="M 2.332031 -7.863281 C 2.332031 -6.066406 1.785156 -5.308594 0.335938 -4.738281 L 0.960938 -3.121094 C 3.042969 -3.871094 3.546875 -5.386719 3.679688 -6.300781 L 4.015625 -6.300781 L 4.015625 0 L 5.800781 0 L 5.800781 -7.863281 Z M 2.332031 -7.863281 "/></g></g></g><g fill="#000000" fill-opacity="1"><g transform="translate(126.658985, 28.455458)"><g><path d="M 4.238281 -7.972656 C 1.851562 -7.972656 0.445312 -6.335938 0.445312 -3.9375 C 0.445312 -1.527344 1.851562 0.113281 4.238281 0.113281 C 6.613281 0.113281 8.019531 -1.527344 8.019531 -3.9375 C 8.019531 -6.335938 6.613281 -7.972656 4.238281 -7.972656 Z M 4.238281 -6.414062 C 4.671875 -6.414062 5.050781 -6.3125 5.351562 -6.113281 L 2.351562 -2.910156 C 2.273438 -3.210938 2.230469 -3.546875 2.230469 -3.9375 C 2.230469 -5.554688 2.976562 -6.414062 4.238281 -6.414062 Z M 4.238281 -1.449219 C 3.804688 -1.449219 3.425781 -1.550781 3.113281 -1.761719 L 6.113281 -4.964844 C 6.191406 -4.660156 6.234375 -4.316406 6.234375 -3.9375 C 6.234375 -2.308594 5.5 -1.449219 4.238281 -1.449219 Z M 4.238281 -1.449219 "/></g></g></g></svg>