<svg xmlns="http://www.w3.org/2000/svg" xmlns:xlink="http://www.w3.org/1999/xlink" width="200" zoomAndPan="magnify" viewBox="0 0 150 74.999997" height="100" preserveAspectRatio="xMidYMid meet" version="1.0"><defs><g/><clipPath id="id1"><path d="M 20 19 L 36.988281 19 L 36.988281 36 L 20 36 Z M 20 19 " clip-rule="nonzero"/></clipPath><clipPath id="id2"><path d="M 18.148438 17.253906 L 36 17.253906 L 36 35 L 18.148438 35 Z M 18.148438 17.253906 " clip-rule="nonzero"/></clipPath><clipPath id="id3"><path d="M 18.148438 17.253906 L 36.988281 17.253906 L 36.988281 36.09375 L 18.148438 36.09375 Z M 18.148438 17.253906 " clip-rule="nonzero"/></clipPath><clipPath id="id4"><path d="M 114 30 L 131.519531 30 L 131.519531 47.492188 L 114 47.492188 Z M 114 30 " clip-rule="nonzero"/></clipPath><clipPath id="id5"><path d="M 112.679688 28.652344 L 131 28.652344 L 131 47 L 112.679688 47 Z M 112.679688 28.652344 " clip-rule="nonzero"/></clipPath><clipPath id="id6"><path d="M 112.679688 28.652344 L 131.519531 28.652344 L 131.519531 47.492188 L 112.679688 47.492188 Z M 112.679688 28.652344 " clip-rule="nonzero"/></clipPath><clipPath id="id7"><path d="M 20 41 L 36.988281 41 L 36.988281 57.664062 L 20 57.664062 Z M 20 41 " clip-rule="nonzero"/></clipPath><clipPath id="id8"><path d="M 18.148438 39 L 36 39 L 36 57 L 18.148438 57 Z M 18.148438 39 " clip-rule="nonzero"/></clipPath><clipPath id="id9"><path d="M 18.148438 38.828125 L 36.988281 38.828125 L 36.988281 57.664062 L 18.148438 57.664062 Z M 18.148438 38.828125 " clip-rule="nonzero"/></clipPath><clipPath id="id10"><path d="M 30 9 L 121.800781 9 L 121.800781 69.398438 L 30 69.398438 Z M 30 9 " clip-rule="nonzero"/></clipPath><clipPath id="id11"><path d="M 27.609375 5.945312 L 121.800781 5.945312 L 121.800781 69.398438 L 27.609375 69.398438 Z M 27.609375 5.945312 " clip-rule="nonzero"/></clipPath></defs><g clip-path="url(#id1)"><path fill="#9aa7b2" d="M 36.160156 31.78125 C 36.160156 33.648438 34.503906 35.167969 32.738281 35.167969 L 21.597656 35.167969 C 21.097656 35.167969 20.601562 35.058594 20.160156 34.871094 C 20.742188 35.46875 21.539062 35.820312 22.3125 35.820312 L 33.566406 35.820312 C 35.304688 35.820312 36.738281 34.410156 36.738281 32.703125 L 36.738281 21.570312 C 36.738281 20.78125 36.433594 20.078125 35.964844 19.535156 C 36.105469 19.886719 36.160156 20.265625 36.160156 20.648438 L 36.160156 31.78125 " fill-opacity="1" fill-rule="nonzero"/></g><g clip-path="url(#id2)"><path fill="#000000" d="M 21.597656 34.898438 L 32.683594 34.898438 C 34.421875 34.898438 35.855469 33.488281 35.855469 31.78125 L 35.855469 20.648438 C 35.855469 18.9375 34.421875 17.527344 32.683594 17.527344 L 21.597656 17.527344 C 19.859375 17.527344 18.425781 18.9375 18.425781 20.648438 L 18.425781 31.78125 C 18.425781 33.515625 19.859375 34.898438 21.597656 34.898438 " fill-opacity="1" fill-rule="nonzero"/></g><g clip-path="url(#id3)"><path fill="#77838d" d="M 35.609375 18.855469 C 35 17.910156 33.925781 17.257812 32.683594 17.257812 L 21.597656 17.257812 C 19.691406 17.257812 18.148438 18.777344 18.148438 20.648438 L 18.148438 31.78125 C 18.148438 32.890625 18.699219 33.867188 19.527344 34.492188 C 20.132812 35.441406 21.210938 36.089844 22.320312 36.089844 L 33.539062 36.089844 C 35.441406 36.089844 36.988281 34.570312 36.988281 32.703125 L 36.988281 21.570312 C 36.988281 20.457031 36.433594 19.480469 35.609375 18.855469 M 18.425781 31.78125 L 18.425781 20.648438 C 18.425781 18.9375 19.859375 17.527344 21.597656 17.527344 L 32.683594 17.527344 C 34.421875 17.527344 35.855469 18.9375 35.855469 20.648438 L 35.855469 31.78125 C 35.855469 33.488281 34.421875 34.898438 32.683594 34.898438 L 21.597656 34.898438 C 19.859375 34.898438 18.425781 33.515625 18.425781 31.78125 M 36.738281 32.703125 C 36.738281 34.410156 35.277344 35.820312 33.539062 35.820312 L 22.320312 35.820312 C 21.566406 35.820312 20.769531 35.46875 20.1875 34.871094 C 20.628906 35.058594 21.097656 35.167969 21.625 35.167969 L 32.710938 35.167969 C 34.613281 35.167969 36.160156 33.648438 36.160156 31.78125 L 36.160156 20.648438 C 36.160156 20.265625 36.078125 19.886719 35.964844 19.535156 C 36.433594 20.078125 36.738281 20.78125 36.738281 21.570312 L 36.738281 32.703125 " fill-opacity="1" fill-rule="nonzero"/></g><g clip-path="url(#id4)"><path fill="#9aa7b2" d="M 130.691406 43.175781 C 130.691406 45.046875 129.035156 46.566406 127.269531 46.566406 L 116.128906 46.566406 C 115.632812 46.566406 115.136719 46.457031 114.695312 46.265625 C 115.273438 46.863281 116.074219 47.214844 116.84375 47.214844 L 128.097656 47.214844 C 129.835938 47.214844 131.269531 45.804688 131.269531 44.097656 L 131.269531 32.964844 C 131.269531 32.179688 130.96875 31.472656 130.5 30.933594 C 130.636719 31.285156 130.691406 31.664062 130.691406 32.042969 L 130.691406 43.175781 " fill-opacity="1" fill-rule="nonzero"/></g><g clip-path="url(#id5)"><path fill="#000000" d="M 116.128906 46.292969 L 127.214844 46.292969 C 128.953125 46.292969 130.386719 44.882812 130.386719 43.175781 L 130.386719 32.042969 C 130.386719 30.335938 128.953125 28.925781 127.214844 28.925781 L 116.128906 28.925781 C 114.390625 28.925781 112.957031 30.335938 112.957031 32.042969 L 112.957031 43.175781 C 112.957031 44.910156 114.390625 46.292969 116.128906 46.292969 " fill-opacity="1" fill-rule="nonzero"/></g><g clip-path="url(#id6)"><path fill="#77838d" d="M 130.140625 30.253906 C 129.53125 29.304688 128.457031 28.65625 127.214844 28.65625 L 116.128906 28.65625 C 114.226562 28.65625 112.679688 30.171875 112.679688 32.042969 L 112.679688 43.175781 C 112.679688 44.289062 113.230469 45.265625 114.058594 45.886719 C 114.667969 46.835938 115.742188 47.488281 116.855469 47.488281 L 128.070312 47.488281 C 129.972656 47.488281 131.519531 45.96875 131.519531 44.097656 L 131.519531 32.964844 C 131.519531 31.855469 130.96875 30.878906 130.140625 30.253906 M 112.957031 43.175781 L 112.957031 32.042969 C 112.957031 30.335938 114.390625 28.925781 116.128906 28.925781 L 127.214844 28.925781 C 128.953125 28.925781 130.386719 30.335938 130.386719 32.042969 L 130.386719 43.175781 C 130.386719 44.882812 128.953125 46.292969 127.214844 46.292969 L 116.128906 46.292969 C 114.390625 46.292969 112.957031 44.910156 112.957031 43.175781 M 131.269531 44.097656 C 131.269531 45.804688 129.808594 47.214844 128.070312 47.214844 L 116.855469 47.214844 C 116.101562 47.214844 115.300781 46.863281 114.722656 46.265625 C 115.164062 46.457031 115.632812 46.566406 116.15625 46.566406 L 127.242188 46.566406 C 129.148438 46.566406 130.691406 45.046875 130.691406 43.175781 L 130.691406 32.042969 C 130.691406 31.664062 130.609375 31.285156 130.5 30.933594 C 130.96875 31.472656 131.269531 32.179688 131.269531 32.964844 L 131.269531 44.097656 " fill-opacity="1" fill-rule="nonzero"/></g><g clip-path="url(#id7)"><path fill="#9aa7b2" d="M 36.160156 53.351562 C 36.160156 55.222656 34.503906 56.738281 32.738281 56.738281 L 21.597656 56.738281 C 21.097656 56.738281 20.601562 56.632812 20.160156 56.441406 C 20.742188 57.039062 21.539062 57.390625 22.3125 57.390625 L 33.566406 57.390625 C 35.304688 57.390625 36.738281 55.980469 36.738281 54.273438 L 36.738281 43.140625 C 36.738281 42.355469 36.433594 41.648438 35.964844 41.105469 C 36.105469 41.457031 36.160156 41.839844 36.160156 42.21875 L 36.160156 53.351562 " fill-opacity="1" fill-rule="nonzero"/></g><g clip-path="url(#id8)"><path fill="#000000" d="M 21.597656 56.46875 L 32.683594 56.46875 C 34.421875 56.46875 35.855469 55.058594 35.855469 53.351562 L 35.855469 42.21875 C 35.855469 40.511719 34.421875 39.101562 32.683594 39.101562 L 21.597656 39.101562 C 19.859375 39.101562 18.425781 40.511719 18.425781 42.21875 L 18.425781 53.351562 C 18.425781 55.085938 19.859375 56.46875 21.597656 56.46875 " fill-opacity="1" fill-rule="nonzero"/></g><g clip-path="url(#id9)"><path fill="#77838d" d="M 35.609375 40.429688 C 35 39.480469 33.925781 38.828125 32.683594 38.828125 L 21.597656 38.828125 C 19.691406 38.828125 18.148438 40.347656 18.148438 42.21875 L 18.148438 53.351562 C 18.148438 54.460938 18.699219 55.4375 19.527344 56.0625 C 20.132812 57.011719 21.210938 57.660156 22.320312 57.660156 L 33.539062 57.660156 C 35.441406 57.660156 36.988281 56.144531 36.988281 54.273438 L 36.988281 43.140625 C 36.988281 42.027344 36.433594 41.050781 35.609375 40.429688 M 18.425781 53.351562 L 18.425781 42.21875 C 18.425781 40.511719 19.859375 39.101562 21.597656 39.101562 L 32.683594 39.101562 C 34.421875 39.101562 35.855469 40.511719 35.855469 42.21875 L 35.855469 53.351562 C 35.855469 55.058594 34.421875 56.46875 32.683594 56.46875 L 21.597656 56.46875 C 19.859375 56.46875 18.425781 55.085938 18.425781 53.351562 M 36.738281 54.273438 C 36.738281 55.980469 35.277344 57.390625 33.539062 57.390625 L 22.320312 57.390625 C 21.566406 57.390625 20.769531 57.039062 20.1875 56.441406 C 20.628906 56.632812 21.097656 56.738281 21.625 56.738281 L 32.710938 56.738281 C 34.613281 56.738281 36.160156 55.222656 36.160156 53.351562 L 36.160156 42.21875 C 36.160156 41.839844 36.078125 41.457031 35.964844 41.105469 C 36.433594 41.648438 36.738281 42.355469 36.738281 43.140625 L 36.738281 54.273438 " fill-opacity="1" fill-rule="nonzero"/></g><g clip-path="url(#id10)"><path fill="#9aa7b2" d="M 120.636719 63.21875 C 120.636719 65.898438 118.324219 68.078125 115.859375 68.078125 L 32.433594 68.078125 C 31.742188 68.078125 31.046875 67.921875 30.433594 67.648438 C 31.242188 68.503906 32.359375 69.011719 33.867188 69.011719 L 117.015625 69.011719 C 119.441406 69.011719 121.445312 66.988281 121.445312 64.539062 L 121.445312 12.125 C 121.445312 11 121.019531 9.988281 120.367188 9.210938 C 120.558594 9.714844 120.636719 10.257812 120.636719 10.804688 L 120.636719 63.21875 " fill-opacity="1" fill-rule="nonzero"/></g><path fill="#cb6ce6" d="M 32.433594 67.6875 L 115.78125 67.6875 C 118.207031 67.6875 120.210938 65.667969 120.210938 63.21875 L 120.210938 10.804688 C 120.210938 8.355469 118.207031 6.332031 115.78125 6.332031 L 32.433594 6.332031 C 30.007812 6.332031 28.003906 8.355469 28.003906 10.804688 L 28.003906 63.21875 C 28.003906 65.707031 30.007812 67.6875 32.433594 67.6875 " fill-opacity="1" fill-rule="nonzero"/><g clip-path="url(#id11)"><path fill="#77838d" d="M 119.863281 8.238281 C 119.015625 6.878906 117.515625 5.945312 115.78125 5.945312 L 32.433594 5.945312 C 29.777344 5.945312 27.621094 8.121094 27.621094 10.804688 L 27.621094 63.21875 C 27.621094 64.8125 28.390625 66.210938 29.546875 67.105469 C 30.394531 68.464844 31.894531 69.398438 33.949219 69.398438 L 116.976562 69.398438 C 119.632812 69.398438 121.789062 67.222656 121.789062 64.539062 L 121.789062 12.125 C 121.789062 10.53125 121.019531 9.132812 119.863281 8.238281 M 28.003906 63.21875 L 28.003906 10.804688 C 28.003906 8.355469 30.007812 6.332031 32.433594 6.332031 L 115.78125 6.332031 C 118.207031 6.332031 120.210938 8.355469 120.210938 10.804688 L 120.210938 63.21875 C 120.210938 65.667969 118.207031 67.6875 115.78125 67.6875 L 32.433594 67.6875 C 30.007812 67.6875 28.003906 65.707031 28.003906 63.21875 M 121.445312 64.539062 C 121.445312 66.988281 119.402344 69.011719 116.976562 69.011719 L 33.949219 69.011719 C 32.394531 69.011719 31.277344 68.503906 30.46875 67.648438 C 31.085938 67.921875 31.742188 68.078125 32.472656 68.078125 L 115.820312 68.078125 C 118.476562 68.078125 120.636719 65.898438 120.636719 63.21875 L 120.636719 10.804688 C 120.636719 10.257812 120.519531 9.714844 120.367188 9.210938 C 121.019531 9.988281 121.445312 11 121.445312 12.125 L 121.445312 64.539062 " fill-opacity="1" fill-rule="nonzero"/></g><g fill="#000000" fill-opacity="1"><g transform="translate(36.948669, 42.029087)"><g><path d="M 0.703125 -4.960938 C 0.703125 -2.066406 2.640625 0.140625 5.789062 0.140625 C 8.558594 0.140625 10.386719 -1.378906 10.683594 -3.835938 L 8.433594 -3.835938 C 8.207031 -2.53125 7.167969 -1.828125 5.820312 -1.828125 C 4.089844 -1.828125 2.953125 -2.910156 2.953125 -4.960938 C 2.953125 -7 4.089844 -8.082031 5.820312 -8.082031 C 7.167969 -8.082031 8.207031 -7.394531 8.433594 -6.085938 L 10.683594 -6.085938 C 10.386719 -8.53125 8.558594 -10.050781 5.789062 -10.050781 C 2.640625 -10.050781 0.703125 -7.84375 0.703125 -4.960938 Z M 0.703125 -4.960938 "/></g></g></g><g fill="#000000" fill-opacity="1"><g transform="translate(48.329852, 42.029087)"><g><path d="M 0.5625 -3.554688 C 0.5625 -1.066406 2.332031 0.140625 4.566406 0.140625 C 6.789062 0.140625 8.558594 -1.066406 8.558594 -3.554688 C 8.558594 -6.03125 6.789062 -7.238281 4.566406 -7.238281 C 2.332031 -7.238281 0.5625 -6.03125 0.5625 -3.554688 Z M 2.8125 -3.554688 C 2.8125 -4.738281 3.5 -5.269531 4.566406 -5.269531 C 5.621094 -5.269531 6.3125 -4.738281 6.3125 -3.554688 C 6.3125 -2.359375 5.621094 -1.828125 4.566406 -1.828125 C 3.5 -1.828125 2.8125 -2.359375 2.8125 -3.554688 Z M 2.8125 -3.554688 "/></g></g></g><g fill="#000000" fill-opacity="1"><g transform="translate(57.448847, 42.029087)"><g><path d="M 10.34375 -7.238281 C 8.96875 -7.238281 8.335938 -6.382812 8.054688 -5.117188 L 7.644531 -5.117188 C 7.433594 -6.351562 6.871094 -7.238281 5.539062 -7.238281 C 4.160156 -7.238281 3.515625 -6.382812 3.234375 -5.117188 L 2.671875 -5.117188 L 3.09375 -6.382812 L 3.09375 -7.097656 L 0.84375 -7.097656 L 0.84375 0 L 3.09375 0 L 3.09375 -2.488281 C 3.09375 -4.203125 3.375 -5.269531 4.597656 -5.269531 C 5.425781 -5.269531 5.648438 -4.890625 5.648438 -3.542969 L 5.648438 0 L 7.898438 0 L 7.898438 -2.488281 C 7.898438 -4.203125 8.179688 -5.269531 9.402344 -5.269531 C 10.230469 -5.269531 10.457031 -4.890625 10.457031 -3.542969 L 10.457031 0 L 12.707031 0 L 12.707031 -3.695312 C 12.707031 -5.609375 12.15625 -7.238281 10.34375 -7.238281 Z M 10.34375 -7.238281 "/></g></g></g><g fill="#000000" fill-opacity="1"><g transform="translate(70.853345, 42.029087)"><g><path d="M 3.09375 0 L 3.09375 -0.4375 L 2.671875 -1.699219 L 3.234375 -1.699219 C 3.597656 -0.757812 4.273438 0.140625 6.03125 0.140625 C 8.082031 0.140625 9.109375 -1.546875 9.109375 -3.554688 C 9.109375 -5.566406 8.082031 -7.238281 6.03125 -7.238281 C 4.273438 -7.238281 3.597656 -6.339844 3.234375 -5.398438 L 2.671875 -5.398438 L 3.09375 -6.660156 L 3.09375 -10.332031 L 0.84375 -10.332031 L 0.84375 0 Z M 3.09375 -3.554688 C 3.09375 -4.75 3.765625 -5.269531 4.976562 -5.269531 C 6.183594 -5.269531 6.859375 -4.75 6.859375 -3.554688 C 6.859375 -2.359375 6.183594 -1.828125 4.976562 -1.828125 C 3.765625 -1.828125 3.09375 -2.359375 3.09375 -3.554688 Z M 3.09375 -3.554688 "/></g></g></g><g fill="#000000" fill-opacity="1"><g transform="translate(80.520328, 42.029087)"><g><path d="M 3.472656 -7.800781 C 4.300781 -7.800781 4.820312 -8.195312 4.820312 -8.925781 C 4.820312 -9.640625 4.300781 -10.050781 3.472656 -10.050781 C 2.640625 -10.050781 2.152344 -9.640625 2.152344 -8.925781 C 2.152344 -8.195312 2.640625 -7.800781 3.472656 -7.800781 Z M 6.746094 0 L 6.746094 -1.96875 L 4.738281 -1.96875 L 4.738281 -6.058594 C 4.738281 -6.84375 4.300781 -7.28125 3.515625 -7.238281 L 0.84375 -7.097656 L 0.84375 -5.128906 L 2.570312 -5.214844 L 2.570312 -1.96875 L 0.5625 -1.96875 L 0.5625 0 Z M 6.746094 0 "/></g></g></g><g fill="#000000" fill-opacity="1"><g transform="translate(87.545753, 42.029087)"><g><path d="M 5.117188 -5.269531 C 6.199219 -5.269531 6.578125 -4.777344 6.578125 -3.484375 L 6.578125 0 L 8.828125 0 L 8.828125 -3.835938 C 8.828125 -6.03125 7.730469 -7.238281 5.917969 -7.238281 C 4.398438 -7.238281 3.515625 -6.242188 3.234375 -4.976562 L 2.671875 -4.976562 L 3.09375 -6.242188 L 3.09375 -7.097656 L 0.84375 -7.097656 L 0.84375 0 L 3.09375 0 L 3.09375 -2.628906 C 3.09375 -4.625 3.894531 -5.269531 5.117188 -5.269531 Z M 5.117188 -5.269531 "/></g></g></g><g fill="#000000" fill-opacity="1"><g transform="translate(97.072226, 42.029087)"><g><path d="M 0.5625 -3.640625 C 0.5625 -1.628906 1.8125 0.140625 4.539062 0.140625 C 7 0.140625 8.164062 -1.476562 8.304688 -2.5 L 6.058594 -2.5 C 5.917969 -1.96875 5.328125 -1.6875 4.539062 -1.6875 C 3.261719 -1.6875 2.671875 -2.261719 2.671875 -3.078125 L 8.054688 -3.078125 L 8.054688 -3.78125 C 8.054688 -5.929688 6.507812 -7.238281 4.300781 -7.238281 C 2.09375 -7.238281 0.5625 -5.890625 0.5625 -3.640625 Z M 2.671875 -4.34375 C 2.671875 -4.878906 3.050781 -5.410156 4.300781 -5.410156 C 5.550781 -5.410156 5.945312 -4.878906 5.945312 -4.34375 Z M 2.671875 -4.34375 "/></g></g></g><g fill="#000000" fill-opacity="1"><g transform="translate(105.938306, 42.029087)"><g><path d="M 3.09375 0 L 3.09375 -5.214844 L 6.703125 -5.128906 L 6.703125 -7.097656 L 2.050781 -7.210938 C 1.277344 -7.222656 0.84375 -6.800781 0.84375 -6.03125 L 0.84375 0 Z M 3.09375 0 "/></g></g></g><g fill="#000000" fill-opacity="1"><g transform="translate(1.383318, 33.345455)"><g><path d="M 13.992188 0 L 9.574219 -13.03125 L 4.769531 -13.03125 L 0.371094 0 L 3.363281 0 L 4.433594 -3.253906 L 9.925781 -3.253906 L 10.996094 0 Z M 6.800781 -10.441406 L 7.539062 -10.441406 L 9.054688 -5.839844 L 5.285156 -5.839844 Z M 6.800781 -10.441406 "/></g></g></g><g fill="#000000" fill-opacity="1"><g transform="translate(1.383318, 55.977728)"><g><path d="M 13.992188 0 L 9.574219 -13.03125 L 4.769531 -13.03125 L 0.371094 0 L 3.363281 0 L 4.433594 -3.253906 L 9.925781 -3.253906 L 10.996094 0 Z M 6.800781 -10.441406 L 7.539062 -10.441406 L 9.054688 -5.839844 L 5.285156 -5.839844 Z M 6.800781 -10.441406 "/></g></g></g><g fill="#000000" fill-opacity="1"><g transform="translate(134.241012, 45.647783)"><g><path d="M 13.992188 0 L 9.574219 -13.03125 L 4.769531 -13.03125 L 0.371094 0 L 3.363281 0 L 4.433594 -3.253906 L 9.925781 -3.253906 L 10.996094 0 Z M 6.800781 -10.441406 L 7.539062 -10.441406 L 9.054688 -5.839844 L 5.285156 -5.839844 Z M 6.800781 -10.441406 "/></g></g></g></svg>