<svg xmlns="http://www.w3.org/2000/svg" xmlns:xlink="http://www.w3.org/1999/xlink" width="200" zoomAndPan="magnify" viewBox="0 0 150 74.999997" height="100" preserveAspectRatio="xMidYMid meet" version="1.0"><defs><g/><clipPath id="id1"><path d="M 19 30 L 36.773438 30 L 36.773438 46.660156 L 19 46.660156 Z M 19 30 " clip-rule="nonzero"/></clipPath><clipPath id="id2"><path d="M 17.972656 27.859375 L 36.773438 27.859375 L 36.773438 46.660156 L 17.972656 46.660156 Z M 17.972656 27.859375 " clip-rule="nonzero"/></clipPath><clipPath id="id3"><path d="M 114 30 L 131.5 30 L 131.5 46.660156 L 114 46.660156 Z M 114 30 " clip-rule="nonzero"/></clipPath><clipPath id="id4"><path d="M 112.699219 28 L 131 28 L 131 46 L 112.699219 46 Z M 112.699219 28 " clip-rule="nonzero"/></clipPath><clipPath id="id5"><path d="M 112.699219 27.859375 L 131.5 27.859375 L 131.5 46.660156 L 112.699219 46.660156 Z M 112.699219 27.859375 " clip-rule="nonzero"/></clipPath><clipPath id="id6"><path d="M 30 10 L 122.445312 10 L 122.445312 68 L 30 68 Z M 30 10 " clip-rule="nonzero"/></clipPath><clipPath id="id7"><path d="M 27.453125 7 L 121 7 L 121 67 L 27.453125 67 Z M 27.453125 7 " clip-rule="nonzero"/></clipPath><clipPath id="id8"><path d="M 27.453125 6.882812 L 122.445312 6.882812 L 122.445312 68.230469 L 27.453125 68.230469 Z M 27.453125 6.882812 " clip-rule="nonzero"/></clipPath></defs><g clip-path="url(#id1)"><path fill="#9aa7b2" d="M 35.949219 42.355469 C 35.949219 44.222656 34.296875 45.738281 32.535156 45.738281 L 21.414062 45.738281 C 20.917969 45.738281 20.421875 45.628906 19.980469 45.4375 C 20.558594 46.035156 21.359375 46.386719 22.128906 46.386719 L 33.359375 46.386719 C 35.09375 46.386719 36.527344 44.980469 36.527344 43.273438 L 36.527344 32.164062 C 36.527344 31.378906 36.222656 30.675781 35.753906 30.132812 C 35.890625 30.484375 35.949219 30.863281 35.949219 31.242188 L 35.949219 42.355469 " fill-opacity="1" fill-rule="nonzero"/></g><path fill="#000000" d="M 21.414062 45.464844 L 32.480469 45.464844 C 34.214844 45.464844 35.644531 44.058594 35.644531 42.355469 L 35.644531 31.242188 C 35.644531 29.539062 34.214844 28.132812 32.480469 28.132812 L 21.414062 28.132812 C 19.679688 28.132812 18.25 29.539062 18.25 31.242188 L 18.25 42.355469 C 18.25 44.085938 19.679688 45.464844 21.414062 45.464844 " fill-opacity="1" fill-rule="nonzero"/><g clip-path="url(#id2)"><path fill="#77838d" d="M 35.398438 29.457031 C 34.792969 28.511719 33.71875 27.859375 32.480469 27.859375 L 21.414062 27.859375 C 19.515625 27.859375 17.972656 29.375 17.972656 31.242188 L 17.972656 42.355469 C 17.972656 43.464844 18.523438 44.4375 19.347656 45.058594 C 19.953125 46.007812 21.027344 46.65625 22.136719 46.65625 L 33.332031 46.65625 C 35.230469 46.65625 36.773438 45.140625 36.773438 43.273438 L 36.773438 32.164062 C 36.773438 31.054688 36.222656 30.078125 35.398438 29.457031 M 18.25 42.355469 L 18.25 31.242188 C 18.25 29.539062 19.679688 28.132812 21.414062 28.132812 L 32.480469 28.132812 C 34.214844 28.132812 35.644531 29.539062 35.644531 31.242188 L 35.644531 42.355469 C 35.644531 44.058594 34.214844 45.464844 32.480469 45.464844 L 21.414062 45.464844 C 19.679688 45.464844 18.25 44.085938 18.25 42.355469 M 36.527344 43.273438 C 36.527344 44.980469 35.066406 46.386719 33.332031 46.386719 L 22.136719 46.386719 C 21.386719 46.386719 20.589844 46.035156 20.011719 45.4375 C 20.449219 45.628906 20.917969 45.738281 21.441406 45.738281 L 32.507812 45.738281 C 34.40625 45.738281 35.949219 44.222656 35.949219 42.355469 L 35.949219 31.242188 C 35.949219 30.863281 35.863281 30.484375 35.753906 30.132812 C 36.222656 30.675781 36.527344 31.378906 36.527344 32.164062 L 36.527344 43.273438 " fill-opacity="1" fill-rule="nonzero"/></g><g clip-path="url(#id3)"><path fill="#9aa7b2" d="M 130.675781 42.355469 C 130.675781 44.222656 129.023438 45.738281 127.261719 45.738281 L 116.140625 45.738281 C 115.644531 45.738281 115.148438 45.628906 114.710938 45.4375 C 115.289062 46.035156 116.085938 46.386719 116.855469 46.386719 L 128.085938 46.386719 C 129.820312 46.386719 131.253906 44.980469 131.253906 43.273438 L 131.253906 32.164062 C 131.253906 31.378906 130.949219 30.675781 130.480469 30.132812 C 130.621094 30.484375 130.675781 30.863281 130.675781 31.242188 L 130.675781 42.355469 " fill-opacity="1" fill-rule="nonzero"/></g><g clip-path="url(#id4)"><path fill="#000000" d="M 116.140625 45.464844 L 127.207031 45.464844 C 128.941406 45.464844 130.371094 44.058594 130.371094 42.355469 L 130.371094 31.242188 C 130.371094 29.539062 128.941406 28.132812 127.207031 28.132812 L 116.140625 28.132812 C 114.40625 28.132812 112.976562 29.539062 112.976562 31.242188 L 112.976562 42.355469 C 112.976562 44.085938 114.40625 45.464844 116.140625 45.464844 " fill-opacity="1" fill-rule="nonzero"/></g><g clip-path="url(#id5)"><path fill="#77838d" d="M 130.125 29.457031 C 129.519531 28.511719 128.445312 27.859375 127.207031 27.859375 L 116.140625 27.859375 C 114.242188 27.859375 112.699219 29.375 112.699219 31.242188 L 112.699219 42.355469 C 112.699219 43.464844 113.25 44.4375 114.078125 45.058594 C 114.683594 46.007812 115.753906 46.65625 116.863281 46.65625 L 128.058594 46.65625 C 129.960938 46.65625 131.5 45.140625 131.5 43.273438 L 131.5 32.164062 C 131.5 31.054688 130.949219 30.078125 130.125 29.457031 M 112.976562 42.355469 L 112.976562 31.242188 C 112.976562 29.539062 114.40625 28.132812 116.140625 28.132812 L 127.207031 28.132812 C 128.941406 28.132812 130.371094 29.539062 130.371094 31.242188 L 130.371094 42.355469 C 130.371094 44.058594 128.941406 45.464844 127.207031 45.464844 L 116.140625 45.464844 C 114.40625 45.464844 112.976562 44.085938 112.976562 42.355469 M 131.253906 43.273438 C 131.253906 44.980469 129.792969 46.386719 128.058594 46.386719 L 116.863281 46.386719 C 116.113281 46.386719 115.316406 46.035156 114.738281 45.4375 C 115.175781 45.628906 115.644531 45.738281 116.167969 45.738281 L 127.234375 45.738281 C 129.132812 45.738281 130.675781 44.222656 130.675781 42.355469 L 130.675781 31.242188 C 130.675781 30.863281 130.59375 30.484375 130.480469 30.132812 C 130.949219 30.675781 131.253906 31.378906 131.253906 32.164062 L 131.253906 43.273438 " fill-opacity="1" fill-rule="nonzero"/></g><g clip-path="url(#id6)"><path fill="#9aa7b2" d="M 121.269531 62.058594 C 121.269531 64.738281 118.941406 66.910156 116.453125 66.910156 L 32.316406 66.910156 C 31.617188 66.910156 30.917969 66.753906 30.296875 66.484375 C 31.113281 67.339844 32.242188 67.84375 33.761719 67.84375 L 117.617188 67.84375 C 120.066406 67.84375 122.085938 65.824219 122.085938 63.378906 L 122.085938 13.054688 C 122.085938 11.929688 121.660156 10.921875 121 10.144531 C 121.191406 10.648438 121.269531 11.191406 121.269531 11.734375 L 121.269531 62.058594 " fill-opacity="1" fill-rule="nonzero"/></g><g clip-path="url(#id7)"><path fill="#ff5757" d="M 32.316406 66.523438 L 116.375 66.523438 C 118.824219 66.523438 120.84375 64.503906 120.84375 62.058594 L 120.84375 11.734375 C 120.84375 9.289062 118.824219 7.269531 116.375 7.269531 L 32.316406 7.269531 C 29.871094 7.269531 27.851562 9.289062 27.851562 11.734375 L 27.851562 62.058594 C 27.851562 64.542969 29.871094 66.523438 32.316406 66.523438 " fill-opacity="1" fill-rule="nonzero"/></g><g clip-path="url(#id8)"><path fill="#77838d" d="M 120.492188 9.171875 C 119.640625 7.816406 118.125 6.882812 116.375 6.882812 L 32.316406 6.882812 C 29.636719 6.882812 27.460938 9.058594 27.460938 11.734375 L 27.460938 62.058594 C 27.460938 63.648438 28.238281 65.046875 29.402344 65.941406 C 30.257812 67.300781 31.773438 68.230469 33.84375 68.230469 L 117.578125 68.230469 C 120.261719 68.230469 122.4375 66.058594 122.4375 63.378906 L 122.4375 13.054688 C 122.4375 11.464844 121.660156 10.066406 120.492188 9.171875 M 27.851562 62.058594 L 27.851562 11.734375 C 27.851562 9.289062 29.871094 7.269531 32.316406 7.269531 L 116.375 7.269531 C 118.824219 7.269531 120.84375 9.289062 120.84375 11.734375 L 120.84375 62.058594 C 120.84375 64.503906 118.824219 66.523438 116.375 66.523438 L 32.316406 66.523438 C 29.871094 66.523438 27.851562 64.542969 27.851562 62.058594 M 122.085938 63.378906 C 122.085938 65.824219 120.027344 67.84375 117.578125 67.84375 L 33.84375 67.84375 C 32.277344 67.84375 31.152344 67.339844 30.335938 66.484375 C 30.957031 66.753906 31.617188 66.910156 32.355469 66.910156 L 116.414062 66.910156 C 119.09375 66.910156 121.269531 64.738281 121.269531 62.058594 L 121.269531 11.734375 C 121.269531 11.191406 121.15625 10.648438 121 10.144531 C 121.660156 10.921875 122.085938 11.929688 122.085938 13.054688 L 122.085938 63.378906 " fill-opacity="1" fill-rule="nonzero"/></g><g fill="#000000" fill-opacity="1"><g transform="translate(39.24516, 41.351597)"><g><path d="M 3.382812 0 L 3.382812 -3.382812 L 8.300781 -3.691406 L 8.300781 -5.875 L 3.382812 -5.566406 L 3.382812 -8.6875 L 8.65625 -8.6875 L 8.65625 -10.839844 L 0.921875 -10.839844 L 0.921875 0 Z M 3.382812 0 "/></g></g></g><g fill="#000000" fill-opacity="1"><g transform="translate(48.516258, 41.351597)"><g><path d="M 3.796875 -8.53125 C 4.703125 -8.53125 5.273438 -8.964844 5.273438 -9.761719 C 5.273438 -10.546875 4.703125 -10.992188 3.796875 -10.992188 C 2.890625 -10.992188 2.351562 -10.546875 2.351562 -9.761719 C 2.351562 -8.964844 2.890625 -8.53125 3.796875 -8.53125 Z M 7.378906 0 L 7.378906 -2.152344 L 5.179688 -2.152344 L 5.179688 -6.625 C 5.179688 -7.488281 4.703125 -7.964844 3.84375 -7.917969 L 0.921875 -7.765625 L 0.921875 -5.613281 L 2.8125 -5.703125 L 2.8125 -2.152344 L 0.613281 -2.152344 L 0.613281 0 Z M 7.378906 0 "/></g></g></g><g fill="#000000" fill-opacity="1"><g transform="translate(56.203735, 41.351597)"><g><path d="M 5.597656 -5.765625 C 6.78125 -5.765625 7.195312 -5.226562 7.195312 -3.8125 L 7.195312 0 L 9.65625 0 L 9.65625 -4.199219 C 9.65625 -6.597656 8.457031 -7.917969 6.472656 -7.917969 C 4.8125 -7.917969 3.84375 -6.828125 3.535156 -5.441406 L 2.921875 -5.441406 L 3.382812 -6.828125 L 3.382812 -7.765625 L 0.921875 -7.765625 L 0.921875 0 L 3.382812 0 L 3.382812 -2.875 C 3.382812 -5.058594 4.257812 -5.765625 5.597656 -5.765625 Z M 5.597656 -5.765625 "/></g></g></g><g fill="#000000" fill-opacity="1"><g transform="translate(66.627951, 41.351597)"><g><path d="M 3.796875 -8.53125 C 4.703125 -8.53125 5.273438 -8.964844 5.273438 -9.761719 C 5.273438 -10.546875 4.703125 -10.992188 3.796875 -10.992188 C 2.890625 -10.992188 2.351562 -10.546875 2.351562 -9.761719 C 2.351562 -8.964844 2.890625 -8.53125 3.796875 -8.53125 Z M 7.378906 0 L 7.378906 -2.152344 L 5.179688 -2.152344 L 5.179688 -6.625 C 5.179688 -7.488281 4.703125 -7.964844 3.84375 -7.917969 L 0.921875 -7.765625 L 0.921875 -5.613281 L 2.8125 -5.703125 L 2.8125 -2.152344 L 0.613281 -2.152344 L 0.613281 0 Z M 7.378906 0 "/></g></g></g><g fill="#000000" fill-opacity="1"><g transform="translate(74.315428, 41.351597)"><g><path d="M 8.164062 -2.136719 C 8.164062 -3.75 6.78125 -4.136719 5.273438 -4.628906 C 4.042969 -5.027344 3.273438 -5.257812 3.273438 -5.628906 C 3.273438 -5.933594 3.597656 -6.074219 4.183594 -6.074219 C 5.027344 -6.074219 5.441406 -5.65625 5.441406 -5.105469 L 7.902344 -5.105469 C 7.902344 -6.609375 6.828125 -7.917969 4.199219 -7.917969 C 2.058594 -7.917969 0.816406 -7.117188 0.816406 -5.734375 C 0.816406 -3.996094 2.582031 -3.613281 4.027344 -3.136719 C 5.273438 -2.722656 5.703125 -2.613281 5.703125 -2.214844 C 5.703125 -1.84375 5.289062 -1.691406 4.628906 -1.691406 C 3.335938 -1.691406 2.921875 -2.214844 2.921875 -2.8125 L 0.460938 -2.8125 C 0.460938 -1 1.691406 0.152344 4.550781 0.152344 C 7.226562 0.152344 8.164062 -0.832031 8.164062 -2.136719 Z M 8.164062 -2.136719 "/></g></g></g><g fill="#000000" fill-opacity="1"><g transform="translate(82.78703, 41.351597)"><g><path d="M 6.472656 -7.917969 C 4.8125 -7.917969 3.84375 -6.828125 3.535156 -5.441406 L 2.921875 -5.441406 L 3.382812 -6.828125 L 3.382812 -11.300781 L 0.921875 -11.300781 L 0.921875 0 L 3.382812 0 L 3.382812 -2.875 C 3.382812 -5.058594 4.257812 -5.765625 5.597656 -5.765625 C 6.78125 -5.765625 7.195312 -5.226562 7.195312 -3.8125 L 7.195312 0 L 9.65625 0 L 9.65625 -4.199219 C 9.65625 -6.597656 8.457031 -7.917969 6.472656 -7.917969 Z M 6.472656 -7.917969 "/></g></g></g><g fill="#000000" fill-opacity="1"><g transform="translate(93.211247, 41.351597)"><g><path d="M 0.613281 -3.980469 C 0.613281 -1.785156 1.984375 0.152344 4.964844 0.152344 C 7.65625 0.152344 8.933594 -1.613281 9.085938 -2.738281 L 6.625 -2.738281 C 6.472656 -2.152344 5.828125 -1.84375 4.964844 -1.84375 C 3.566406 -1.84375 2.921875 -2.476562 2.921875 -3.367188 L 8.808594 -3.367188 L 8.808594 -4.136719 C 8.808594 -6.488281 7.117188 -7.917969 4.703125 -7.917969 C 2.289062 -7.917969 0.613281 -6.441406 0.613281 -3.980469 Z M 2.921875 -4.75 C 2.921875 -5.335938 3.335938 -5.917969 4.703125 -5.917969 C 6.074219 -5.917969 6.503906 -5.335938 6.503906 -4.75 Z M 2.921875 -4.75 "/></g></g></g><g fill="#000000" fill-opacity="1"><g transform="translate(102.912849, 41.351597)"><g><path d="M 3.382812 0 L 3.382812 -5.703125 L 7.332031 -5.613281 L 7.332031 -7.765625 L 2.246094 -7.886719 C 1.398438 -7.902344 0.921875 -7.441406 0.921875 -6.597656 L 0.921875 0 Z M 3.382812 0 "/></g></g></g><g fill="#000000" fill-opacity="1"><g transform="translate(0.821851, 44.605164)"><g><path d="M 13.960938 0 L 9.554688 -13.003906 L 4.757812 -13.003906 L 0.367188 0 L 3.355469 0 L 4.425781 -3.246094 L 9.90625 -3.246094 L 10.972656 0 Z M 6.789062 -10.421875 L 7.523438 -10.421875 L 9.039062 -5.828125 L 5.273438 -5.828125 Z M 6.789062 -10.421875 "/></g></g></g><g fill="#000000" fill-opacity="1"><g transform="translate(135.403622, 45.659324)"><g><path d="M 4.058594 0 L 4.058594 -4.574219 L 9.148438 -4.574219 L 9.148438 0 L 12.097656 0 L 12.097656 -4.148438 C 12.097656 -5.164062 11.546875 -5.71875 10.53125 -5.71875 L 8.632812 -5.71875 L 8.632812 -6.457031 C 10.199219 -6.640625 11.933594 -7.230469 11.933594 -9.371094 C 11.933594 -12.285156 9.242188 -13.003906 6.140625 -13.003906 L 1.105469 -13.003906 L 1.105469 0 Z M 4.058594 -10.421875 L 6.140625 -10.421875 C 7.894531 -10.421875 8.980469 -10.421875 8.980469 -8.777344 C 8.980469 -7.15625 7.894531 -7.15625 6.140625 -7.15625 L 4.058594 -7.15625 Z M 4.058594 -10.421875 "/></g></g></g></svg>