<svg xmlns="http://www.w3.org/2000/svg" xmlns:xlink="http://www.w3.org/1999/xlink" width="500" zoomAndPan="magnify" viewBox="0 0 375 374.999991" height="500" preserveAspectRatio="xMidYMid meet" version="1.0"><defs><g/><clipPath id="id1"><path d="M 118.359375 132.046875 L 257 132.046875 L 257 210.789062 L 118.359375 210.789062 Z M 118.359375 132.046875 " clip-rule="nonzero"/></clipPath><clipPath id="id2"><path d="M 113.488281 60.789062 L 261.882812 60.789062 L 261.882812 148.890625 L 113.488281 148.890625 Z M 113.488281 60.789062 " clip-rule="nonzero"/></clipPath></defs><g fill="#2b2b2b" fill-opacity="1"><g transform="translate(120.000001, 239.87667)"><g><path d="M 7.695312 0.492188 C 15.394531 0.492188 19.574219 -3.023438 19.574219 -10.226562 L 19.574219 -18.695312 C 19.574219 -21.085938 19.820312 -23.230469 20.242188 -24.601562 L 13.460938 -24.601562 C 13.847656 -23.230469 14.09375 -21.085938 14.09375 -18.695312 L 14.09375 -11.175781 C 14.09375 -6.640625 11.808594 -3.867188 7.203125 -3.867188 C 4.710938 -3.867188 2.636719 -4.5 1.160156 -5.621094 L 0.421875 -0.949219 C 2.355469 -0.140625 5.097656 0.492188 7.695312 0.492188 Z M 7.695312 0.492188 "/></g></g></g><g fill="#2b2b2b" fill-opacity="1"><g transform="translate(149.871046, 239.87667)"><g><path d="M -0.421875 0 L 6.464844 0 C 6.605469 -0.914062 7.203125 -2.074219 8.046875 -3.867188 L 9.066406 -5.761719 L 23.019531 -5.761719 L 24.039062 -3.902344 C 25.058594 -2.074219 25.480469 -0.949219 25.621094 0 L 32.507812 0 C 31.558594 -1.371094 30.1875 -3.621094 29.027344 -5.902344 L 22.28125 -18.730469 C 21.332031 -20.664062 20.699219 -23.019531 20.382812 -24.601562 L 11.773438 -24.601562 C 11.527344 -23.230469 10.929688 -21.015625 9.769531 -18.695312 L 3.09375 -5.902344 C 1.898438 -3.65625 0.527344 -1.371094 -0.421875 0 Z M 11.105469 -9.945312 L 14.339844 -16.199219 C 14.972656 -17.570312 15.394531 -18.695312 15.882812 -20.101562 L 16.199219 -20.101562 C 16.65625 -18.730469 17.113281 -17.535156 17.710938 -16.234375 L 20.980469 -9.945312 Z M 11.105469 -9.945312 "/></g></g></g><g fill="#2b2b2b" fill-opacity="1"><g transform="translate(188.984103, 239.87667)"><g><path d="M 11.773438 0 L 20.101562 0 C 20.3125 -1.40625 21.015625 -3.550781 22.070312 -5.902344 L 28.78125 -18.695312 C 29.835938 -21.085938 30.925781 -23.230469 31.910156 -24.601562 L 25.164062 -24.601562 C 24.988281 -23.617188 24.671875 -22.421875 23.863281 -20.558594 L 17.746094 -8.539062 C 17.148438 -7.203125 16.691406 -6.148438 16.199219 -4.78125 L 15.917969 -4.78125 C 15.429688 -6.078125 14.902344 -7.238281 14.339844 -8.539062 L 8.222656 -20.558594 C 7.378906 -22.421875 7.097656 -23.617188 6.957031 -24.601562 L 0 -24.601562 C 0.949219 -23.230469 2.074219 -21.085938 3.128906 -18.695312 L 9.839844 -5.867188 C 10.648438 -3.9375 11.421875 -1.6875 11.773438 0 Z M 11.773438 0 "/></g></g></g><g fill="#2b2b2b" fill-opacity="1"><g transform="translate(227.921451, 239.87667)"><g><path d="M -0.421875 0 L 6.464844 0 C 6.605469 -0.914062 7.203125 -2.074219 8.046875 -3.867188 L 9.066406 -5.761719 L 23.019531 -5.761719 L 24.039062 -3.902344 C 25.058594 -2.074219 25.480469 -0.949219 25.621094 0 L 32.507812 0 C 31.558594 -1.371094 30.1875 -3.621094 29.027344 -5.902344 L 22.28125 -18.730469 C 21.332031 -20.664062 20.699219 -23.019531 20.382812 -24.601562 L 11.773438 -24.601562 C 11.527344 -23.230469 10.929688 -21.015625 9.769531 -18.695312 L 3.09375 -5.902344 C 1.898438 -3.65625 0.527344 -1.371094 -0.421875 0 Z M 11.105469 -9.945312 L 14.339844 -16.199219 C 14.972656 -17.570312 15.394531 -18.695312 15.882812 -20.101562 L 16.199219 -20.101562 C 16.65625 -18.730469 17.113281 -17.535156 17.710938 -16.234375 L 20.980469 -9.945312 Z M 11.105469 -9.945312 "/></g></g></g><g fill="#2b2b2b" fill-opacity="1"><g transform="translate(45.816558, 288.436258)"><g><path d="M 2.847656 0 L 9.59375 0 C 9.207031 -1.371094 8.960938 -3.515625 8.960938 -5.902344 L 8.960938 -18.695312 C 8.960938 -21.085938 9.207031 -23.230469 9.59375 -24.601562 L 2.847656 -24.601562 C 3.234375 -23.230469 3.480469 -21.085938 3.480469 -18.695312 L 3.480469 -5.902344 C 3.480469 -3.515625 3.269531 -1.371094 2.847656 0 Z M 2.847656 0 "/></g></g></g><g fill="#2b2b2b" fill-opacity="1"><g transform="translate(65.321089, 288.436258)"><g><path d="M 2.847656 0 L 9.59375 0 C 9.242188 -1.265625 8.960938 -3.621094 8.960938 -6.042969 L 8.960938 -17.746094 L 9.242188 -17.746094 L 19.222656 0 L 21.261719 0 L 31.242188 -17.746094 L 31.628906 -17.746094 L 31.628906 -6.042969 C 31.628906 -3.621094 31.347656 -1.265625 30.996094 0 L 37.742188 0 C 37.355469 -1.371094 37.109375 -3.515625 37.109375 -5.902344 L 37.109375 -18.695312 C 37.109375 -21.085938 37.320312 -23.230469 37.742188 -24.601562 L 30.574219 -24.601562 L 23.617188 -12.125 C 22.457031 -10.015625 21.578125 -8.398438 20.558594 -6.113281 L 20.171875 -6.113281 C 19.117188 -8.433594 18.238281 -10.121094 17.113281 -12.125 L 10.191406 -24.601562 L 2.847656 -24.601562 C 3.269531 -23.230469 3.480469 -21.085938 3.480469 -18.695312 L 3.480469 -5.902344 C 3.480469 -3.515625 3.234375 -1.371094 2.847656 0 Z M 2.847656 0 "/></g></g></g><g fill="#2b2b2b" fill-opacity="1"><g transform="translate(112.938191, 288.436258)"><g><path d="M 2.847656 0 L 9.59375 0 C 9.171875 -1.371094 8.960938 -3.445312 8.960938 -5.796875 L 8.996094 -13.285156 L 9.277344 -13.285156 C 10.15625 -8.46875 14.304688 -6.289062 19.925781 -6.289062 C 25.761719 -6.289062 30.082031 -9.734375 30.082031 -15.605469 C 30.082031 -21.402344 25.199219 -24.601562 18.589844 -24.601562 L 2.847656 -24.601562 C 3.234375 -23.230469 3.515625 -21.085938 3.515625 -18.695312 L 3.515625 -5.902344 C 3.515625 -3.515625 3.269531 -1.371094 2.847656 0 Z M 17.851562 -10.753906 C 13.425781 -10.753906 9.03125 -13.25 8.996094 -17.535156 L 8.996094 -19.925781 C 11.773438 -20.207031 14.585938 -20.242188 17.746094 -20.242188 C 22.105469 -20.242188 24.601562 -18.484375 24.601562 -15.605469 C 24.601562 -12.582031 21.4375 -10.753906 17.851562 -10.753906 Z M 17.851562 -10.753906 "/></g></g></g><g fill="#2b2b2b" fill-opacity="1"><g transform="translate(150.997025, 288.436258)"><g><path d="M 16.796875 0.492188 C 25.585938 0.492188 32.015625 -4.324219 32.015625 -12.300781 C 32.015625 -20.277344 25.585938 -25.09375 16.796875 -25.09375 C 8.011719 -25.09375 1.582031 -20.277344 1.582031 -12.300781 C 1.582031 -4.324219 8.011719 0.492188 16.796875 0.492188 Z M 16.796875 -3.867188 C 11.28125 -3.867188 7.132812 -7.097656 7.132812 -12.300781 C 7.132812 -17.535156 11.28125 -20.734375 16.796875 -20.734375 C 22.316406 -20.734375 26.460938 -17.535156 26.460938 -12.300781 C 26.460938 -7.097656 22.316406 -3.867188 16.796875 -3.867188 Z M 16.796875 -3.867188 "/></g></g></g><g fill="#2b2b2b" fill-opacity="1"><g transform="translate(191.621138, 288.436258)"><g><path d="M 15.253906 0.492188 C 23.265625 0.492188 28.359375 -2.355469 28.359375 -7.0625 C 28.359375 -17.113281 7.449219 -12.441406 7.449219 -17.78125 C 7.449219 -19.890625 10.964844 -20.453125 14.9375 -20.453125 C 19.082031 -20.453125 23.300781 -19.433594 25.902344 -17.921875 L 25.902344 -23.125 C 23.125 -24.285156 18.730469 -25.09375 14.726562 -25.09375 C 7.589844 -25.09375 1.792969 -22.597656 1.792969 -17.851562 C 1.792969 -7.695312 22.667969 -12.160156 22.667969 -7.027344 C 22.667969 -4.851562 19.609375 -4.113281 15.148438 -4.113281 C 10.085938 -4.113281 5.238281 -5.238281 1.546875 -7.589844 L 1.300781 -2.003906 C 5.132812 -0.492188 11 0.492188 15.253906 0.492188 Z M 15.253906 0.492188 "/></g></g></g><g fill="#2b2b2b" fill-opacity="1"><g transform="translate(228.379766, 288.436258)"><g><path d="M 11 0 L 17.746094 0 C 17.324219 -1.40625 17.113281 -3.515625 17.113281 -5.902344 L 17.113281 -19.820312 L 23.195312 -19.820312 C 25.480469 -19.820312 26.8125 -19.609375 27.972656 -19.222656 L 26.882812 -24.601562 L 1.828125 -24.601562 L 0.738281 -19.222656 C 1.933594 -19.644531 3.234375 -19.820312 5.515625 -19.820312 L 11.632812 -19.820312 L 11.632812 -5.902344 C 11.632812 -3.515625 11.386719 -1.40625 11 0 Z M 11 0 "/></g></g></g><g fill="#2b2b2b" fill-opacity="1"><g transform="translate(264.084177, 288.436258)"><g><path d="M 2.847656 0 L 27.621094 0 L 28.640625 -5.585938 C 27.621094 -5.027344 26.042969 -4.675781 23.265625 -4.675781 L 8.960938 -4.675781 L 8.960938 -10.050781 L 20.277344 -10.050781 C 21.964844 -10.050781 23.125 -9.980469 23.96875 -9.839844 L 23.96875 -14.832031 C 23.125 -14.691406 21.964844 -14.621094 20.277344 -14.621094 L 8.960938 -14.621094 L 8.960938 -19.925781 L 23.019531 -19.925781 C 25.445312 -19.925781 26.988281 -19.679688 27.796875 -19.292969 L 26.917969 -24.601562 L 2.847656 -24.601562 C 3.234375 -23.230469 3.515625 -21.085938 3.515625 -18.695312 L 3.515625 -5.902344 C 3.515625 -3.515625 3.269531 -1.371094 2.847656 0 Z M 2.847656 0 "/></g></g></g><g fill="#2b2b2b" fill-opacity="1"><g transform="translate(301.264496, 288.436258)"><g><path d="M 28.253906 0.527344 C 30.046875 0.527344 31.734375 -0.210938 32.542969 -1.300781 L 32.296875 -7.378906 C 31.664062 -5.867188 30.820312 -4.921875 28.921875 -4.921875 C 25.058594 -4.921875 25.902344 -11.140625 18.519531 -11.140625 L 18.238281 -11.140625 L 18.238281 -11.421875 L 20.382812 -11.421875 C 26.042969 -11.421875 29.871094 -14.199219 29.871094 -18.167969 C 29.871094 -22.316406 25.796875 -24.601562 19.890625 -24.601562 L 2.882812 -24.601562 C 3.269531 -23.230469 3.515625 -21.085938 3.515625 -18.695312 L 3.515625 -5.902344 C 3.515625 -3.515625 3.269531 -1.40625 2.882812 0 L 9.628906 0 C 9.207031 -1.40625 8.996094 -3.304688 8.996094 -5.65625 L 8.996094 -9.3125 C 9.804688 -9.558594 12.582031 -9.628906 13.601562 -9.628906 C 23.6875 -9.628906 19.082031 0.527344 28.253906 0.527344 Z M 8.996094 -13.53125 L 8.996094 -19.855469 L 19.328125 -19.855469 C 22.351562 -19.855469 24.390625 -18.660156 24.390625 -16.691406 C 24.390625 -14.65625 22.316406 -13.53125 19.082031 -13.53125 Z M 8.996094 -13.53125 "/></g></g></g><g clip-path="url(#id1)"><path fill="#333333" d="M 256.648438 146.839844 L 230.46875 132.1875 C 230.558594 133.691406 230.339844 135.398438 229.773438 137.132812 C 228.28125 141.683594 224.945312 144.683594 222.296875 143.859375 C 222.289062 153.210938 218.839844 162.246094 212.558594 169.183594 C 209.171875 172.921875 205.074219 176.792969 200.546875 179.746094 C 192.726562 184.835938 182.640625 184.835938 174.824219 179.746094 C 170.296875 176.792969 166.199219 172.921875 162.8125 169.183594 C 156.527344 162.246094 153.082031 153.210938 153.074219 143.859375 C 150.425781 144.683594 147.085938 141.683594 145.597656 137.132812 C 145.027344 135.398438 144.8125 133.691406 144.902344 132.1875 L 118.71875 146.839844 C 118.546875 146.9375 118.4375 147.117188 118.429688 147.316406 C 118.421875 147.519531 118.519531 147.703125 118.6875 147.8125 L 142.976562 163.6875 C 143.195312 163.828125 143.328125 164.058594 143.34375 164.316406 C 143.363281 164.574219 143.257812 164.816406 143.0625 164.984375 L 132.5625 173.90625 C 132.402344 174.042969 132.332031 174.246094 132.371094 174.449219 C 132.410156 174.65625 132.554688 174.816406 132.75 174.882812 C 135.933594 175.933594 147.214844 179.847656 158.863281 185.996094 C 173.714844 193.839844 183.308594 202.117188 187.378906 210.601562 C 187.433594 210.71875 187.554688 210.792969 187.683594 210.792969 C 187.816406 210.792969 187.933594 210.71875 187.992188 210.601562 C 192.0625 202.117188 201.65625 193.839844 216.503906 185.996094 C 228.152344 179.847656 239.4375 175.933594 242.621094 174.882812 C 242.816406 174.816406 242.960938 174.65625 243 174.449219 C 243.039062 174.246094 242.96875 174.042969 242.808594 173.90625 L 232.308594 164.984375 C 232.113281 164.816406 232.007812 164.574219 232.023438 164.316406 C 232.042969 164.058594 232.175781 163.828125 232.390625 163.6875 L 256.683594 147.8125 C 256.851562 147.703125 256.949219 147.519531 256.941406 147.316406 C 256.933594 147.117188 256.824219 146.9375 256.648438 146.839844 " fill-opacity="1" fill-rule="nonzero"/></g><g clip-path="url(#id2)"><path fill="#333333" d="M 152.875 92.933594 C 153.121094 91.828125 153.402344 90.6875 153.71875 89.507812 C 153.992188 88.503906 154.289062 87.472656 154.613281 86.417969 C 156.984375 78.730469 160.269531 71.371094 162.613281 66.546875 C 163.355469 65.015625 164.941406 64.023438 166.652344 64.023438 C 167.195312 64.023438 167.730469 64.125 168.242188 64.316406 L 178.769531 68.285156 C 181.628906 69.363281 184.628906 69.910156 187.683594 69.910156 C 190.742188 69.910156 193.742188 69.363281 196.601562 68.285156 L 207.128906 64.316406 C 207.640625 64.125 208.175781 64.027344 208.714844 64.027344 C 210.425781 64.027344 212.015625 65.019531 212.761719 66.558594 C 215.109375 71.390625 218.402344 78.769531 220.769531 86.464844 C 221.089844 87.503906 221.382812 88.519531 221.648438 89.507812 C 221.96875 90.6875 222.25 91.828125 222.496094 92.933594 C 223.804688 98.847656 224.066406 103.734375 223.265625 107.515625 C 222.820312 109.609375 221.757812 111.503906 220.195312 112.996094 C 218.632812 114.492188 216.679688 115.476562 214.542969 115.851562 L 214.492188 115.863281 C 205.664062 117.40625 196.648438 118.1875 187.683594 118.1875 C 178.722656 118.1875 169.703125 117.40625 160.878906 115.863281 L 160.828125 115.851562 C 158.683594 115.476562 156.722656 114.480469 155.160156 112.976562 C 153.59375 111.472656 152.535156 109.5625 152.09375 107.453125 C 151.308594 103.683594 151.570312 98.8125 152.875 92.933594 Z M 253.894531 118.324219 C 250.476562 120.929688 245.296875 123.398438 238.917969 125.457031 C 235.832031 126.453125 232.511719 127.34375 229 128.132812 C 227.625 128.441406 226.21875 128.734375 224.789062 129.011719 C 224.105469 129.144531 223.414062 129.269531 222.71875 129.394531 C 222.582031 129.417969 222.4375 129.445312 222.296875 129.46875 C 220.515625 129.78125 218.691406 130.070312 216.832031 130.332031 C 208.585938 131.5 199.65625 132.160156 190.417969 132.265625 C 189.507812 132.277344 188.597656 132.285156 187.683594 132.285156 C 186.773438 132.285156 185.859375 132.277344 184.953125 132.265625 C 175.714844 132.160156 166.785156 131.5 158.539062 130.332031 C 156.679688 130.070312 154.855469 129.78125 153.070312 129.46875 C 152.929688 129.445312 152.792969 129.417969 152.648438 129.394531 C 151.957031 129.269531 151.265625 129.144531 150.582031 129.011719 C 149.148438 128.734375 147.746094 128.441406 146.371094 128.132812 C 142.859375 127.34375 139.539062 126.453125 136.453125 125.457031 C 130.070312 123.398438 124.894531 120.929688 121.476562 118.324219 C 118.328125 115.921875 116.734375 113.523438 116.734375 111.183594 C 116.734375 108.847656 118.328125 106.445312 121.476562 104.042969 C 124.894531 101.4375 130.074219 98.96875 136.453125 96.910156 C 140.417969 95.632812 144.773438 94.519531 149.425781 93.582031 C 148.273438 99.339844 148.101562 104.207031 148.914062 108.113281 C 149.488281 110.863281 150.871094 113.351562 152.90625 115.308594 C 154.9375 117.261719 157.480469 118.554688 160.261719 119.042969 L 160.320312 119.050781 C 169.328125 120.628906 178.535156 121.425781 187.683594 121.425781 C 196.835938 121.425781 206.039062 120.628906 215.050781 119.050781 L 215.109375 119.042969 C 217.875 118.554688 220.414062 117.273438 222.4375 115.335938 C 224.476562 113.390625 225.859375 110.917969 226.441406 108.183594 C 227.269531 104.265625 227.101562 99.375 225.945312 93.582031 C 230.597656 94.519531 234.949219 95.632812 238.917969 96.910156 C 245.296875 98.96875 250.476562 101.4375 253.894531 104.042969 C 257.039062 106.445312 258.636719 108.847656 258.636719 111.183594 C 258.636719 113.523438 257.039062 115.921875 253.894531 118.324219 Z M 239.917969 93.832031 C 235.457031 92.390625 230.523438 91.15625 225.167969 90.136719 C 224.792969 88.648438 224.363281 87.109375 223.875 85.515625 C 221.449219 77.621094 218.082031 70.082031 215.683594 65.144531 C 215.039062 63.820312 214.039062 62.710938 212.785156 61.941406 C 211.558594 61.1875 210.152344 60.789062 208.714844 60.789062 C 207.78125 60.789062 206.863281 60.957031 205.980469 61.289062 L 195.453125 65.257812 C 192.964844 66.195312 190.347656 66.671875 187.683594 66.671875 C 185.019531 66.671875 182.40625 66.195312 179.914062 65.257812 L 169.390625 61.289062 C 168.507812 60.957031 167.589844 60.789062 166.652344 60.789062 C 165.21875 60.789062 163.8125 61.183594 162.585938 61.9375 C 161.335938 62.707031 160.335938 63.8125 159.691406 65.136719 C 157.300781 70.058594 153.941406 77.585938 151.511719 85.464844 C 151.015625 87.074219 150.582031 88.632812 150.203125 90.136719 C 144.847656 91.15625 139.914062 92.390625 135.453125 93.832031 C 121.289062 98.402344 113.488281 104.566406 113.488281 111.183594 C 113.488281 117.804688 121.289062 123.964844 135.453125 128.539062 C 138.433594 129.5 141.632812 130.371094 145.023438 131.148438 C 145.433594 131.242188 145.851562 131.332031 146.265625 131.425781 C 149.445312 132.121094 152.792969 132.734375 156.289062 133.265625 C 156.105469 133.820312 156 134.410156 156 135.027344 L 156 137.769531 C 156 140.707031 157.15625 143.480469 159.257812 145.574219 C 161.355469 147.667969 164.132812 148.820312 167.082031 148.820312 L 174.574219 148.820312 C 177.53125 148.820312 180.316406 147.664062 182.417969 145.566406 C 184.523438 143.464844 185.683594 140.6875 185.683594 137.738281 L 185.683594 135.507812 C 186.347656 135.515625 187.015625 135.523438 187.683594 135.523438 C 188.355469 135.523438 189.019531 135.515625 189.6875 135.507812 L 189.6875 137.738281 C 189.6875 140.6875 190.847656 143.464844 192.953125 145.566406 C 195.054688 147.664062 197.839844 148.820312 200.796875 148.820312 L 208.289062 148.820312 C 211.238281 148.820312 214.015625 147.667969 216.113281 145.574219 C 218.210938 143.480469 219.367188 140.707031 219.367188 137.769531 L 219.367188 135.027344 C 219.367188 134.410156 219.265625 133.820312 219.082031 133.265625 C 222.578125 132.734375 225.921875 132.121094 229.101562 131.425781 C 229.519531 131.332031 229.9375 131.242188 230.347656 131.148438 C 233.738281 130.371094 236.933594 129.5 239.917969 128.539062 C 254.082031 123.964844 261.882812 117.804688 261.882812 111.183594 C 261.882812 104.566406 254.082031 98.402344 239.917969 93.832031 " fill-opacity="1" fill-rule="nonzero"/></g></svg>