<svg xmlns="http://www.w3.org/2000/svg" xmlns:xlink="http://www.w3.org/1999/xlink" width="350" zoomAndPan="magnify" viewBox="0 0 262.5 67.499998" height="90" preserveAspectRatio="xMidYMid meet" version="1.0"><defs><g/><clipPath id="id1"><path d="M 67 26 L 84.507812 26 L 84.507812 43.414062 L 67 43.414062 Z M 67 26 " clip-rule="nonzero"/></clipPath><clipPath id="id2"><path d="M 66 24.019531 L 84 24.019531 L 84 43 L 66 43 Z M 66 24.019531 " clip-rule="nonzero"/></clipPath><clipPath id="id3"><path d="M 65.859375 24.019531 L 84.507812 24.019531 L 84.507812 43.414062 L 65.859375 43.414062 Z M 65.859375 24.019531 " clip-rule="nonzero"/></clipPath><clipPath id="id4"><path d="M 161 26 L 178.292969 26 L 178.292969 43.414062 L 161 43.414062 Z M 161 26 " clip-rule="nonzero"/></clipPath><clipPath id="id5"><path d="M 159.644531 24.019531 L 178 24.019531 L 178 43 L 159.644531 43 Z M 159.644531 24.019531 " clip-rule="nonzero"/></clipPath><clipPath id="id6"><path d="M 159.644531 24.019531 L 178.292969 24.019531 L 178.292969 43.414062 L 159.644531 43.414062 Z M 159.644531 24.019531 " clip-rule="nonzero"/></clipPath><clipPath id="id7"><path d="M 78 6 L 169 6 L 169 63.671875 L 78 63.671875 Z M 78 6 " clip-rule="nonzero"/></clipPath><clipPath id="id8"><path d="M 75.246094 3.253906 L 168 3.253906 L 168 62 L 75.246094 62 Z M 75.246094 3.253906 " clip-rule="nonzero"/></clipPath><clipPath id="id9"><path d="M 75.246094 3.253906 L 169.230469 3.253906 L 169.230469 63.671875 L 75.246094 63.671875 Z M 75.246094 3.253906 " clip-rule="nonzero"/></clipPath></defs><g clip-path="url(#id1)"><path fill="#9aa7b2" d="M 83.691406 38.972656 C 83.691406 40.898438 82.050781 42.460938 80.304688 42.460938 L 69.273438 42.460938 C 68.78125 42.460938 68.289062 42.347656 67.855469 42.152344 C 68.425781 42.765625 69.21875 43.128906 69.980469 43.128906 L 81.125 43.128906 C 82.84375 43.128906 84.261719 41.679688 84.261719 39.921875 L 84.261719 28.460938 C 84.261719 27.652344 83.960938 26.925781 83.5 26.371094 C 83.636719 26.730469 83.691406 27.121094 83.691406 27.511719 L 83.691406 38.972656 " fill-opacity="1" fill-rule="nonzero"/></g><g clip-path="url(#id2)"><path fill="#000000" d="M 69.273438 42.179688 L 80.25 42.179688 C 81.96875 42.179688 83.390625 40.730469 83.390625 38.972656 L 83.390625 27.511719 C 83.390625 25.753906 81.96875 24.304688 80.25 24.304688 L 69.273438 24.304688 C 67.554688 24.304688 66.132812 25.753906 66.132812 27.511719 L 66.132812 38.972656 C 66.132812 40.757812 67.554688 42.179688 69.273438 42.179688 " fill-opacity="1" fill-rule="nonzero"/></g><g clip-path="url(#id3)"><path fill="#77838d" d="M 83.144531 25.671875 C 82.542969 24.695312 81.476562 24.023438 80.25 24.023438 L 69.273438 24.023438 C 67.390625 24.023438 65.859375 25.585938 65.859375 27.511719 L 65.859375 38.972656 C 65.859375 40.117188 66.40625 41.121094 67.226562 41.761719 C 67.828125 42.738281 68.890625 43.410156 69.992188 43.410156 L 81.097656 43.410156 C 82.980469 43.410156 84.507812 41.847656 84.507812 39.921875 L 84.507812 28.460938 C 84.507812 27.316406 83.960938 26.3125 83.144531 25.671875 M 66.132812 38.972656 L 66.132812 27.511719 C 66.132812 25.753906 67.554688 24.304688 69.273438 24.304688 L 80.25 24.304688 C 81.96875 24.304688 83.390625 25.753906 83.390625 27.511719 L 83.390625 38.972656 C 83.390625 40.730469 81.96875 42.179688 80.25 42.179688 L 69.273438 42.179688 C 67.554688 42.179688 66.132812 40.757812 66.132812 38.972656 M 84.261719 39.921875 C 84.261719 41.679688 82.816406 43.128906 81.097656 43.128906 L 69.992188 43.128906 C 69.246094 43.128906 68.453125 42.765625 67.882812 42.152344 C 68.316406 42.347656 68.78125 42.460938 69.300781 42.460938 L 80.277344 42.460938 C 82.160156 42.460938 83.691406 40.898438 83.691406 38.972656 L 83.691406 27.511719 C 83.691406 27.121094 83.609375 26.730469 83.5 26.371094 C 83.960938 26.925781 84.261719 27.652344 84.261719 28.460938 L 84.261719 39.921875 " fill-opacity="1" fill-rule="nonzero"/></g><g clip-path="url(#id4)"><path fill="#9aa7b2" d="M 177.472656 38.972656 C 177.472656 40.898438 175.835938 42.460938 174.089844 42.460938 L 163.058594 42.460938 C 162.566406 42.460938 162.074219 42.347656 161.636719 42.152344 C 162.210938 42.765625 163.003906 43.128906 163.765625 43.128906 L 174.90625 43.128906 C 176.628906 43.128906 178.046875 41.679688 178.046875 39.921875 L 178.046875 28.460938 C 178.046875 27.652344 177.746094 26.925781 177.28125 26.371094 C 177.417969 26.730469 177.472656 27.121094 177.472656 27.511719 L 177.472656 38.972656 " fill-opacity="1" fill-rule="nonzero"/></g><g clip-path="url(#id5)"><path fill="#000000" d="M 163.058594 42.179688 L 174.035156 42.179688 C 175.753906 42.179688 177.171875 40.730469 177.171875 38.972656 L 177.171875 27.511719 C 177.171875 25.753906 175.753906 24.304688 174.035156 24.304688 L 163.058594 24.304688 C 161.335938 24.304688 159.917969 25.753906 159.917969 27.511719 L 159.917969 38.972656 C 159.917969 40.757812 161.335938 42.179688 163.058594 42.179688 " fill-opacity="1" fill-rule="nonzero"/></g><g clip-path="url(#id6)"><path fill="#77838d" d="M 176.925781 25.671875 C 176.328125 24.695312 175.261719 24.023438 174.035156 24.023438 L 163.058594 24.023438 C 161.171875 24.023438 159.644531 25.585938 159.644531 27.511719 L 159.644531 38.972656 C 159.644531 40.117188 160.191406 41.121094 161.011719 41.761719 C 161.609375 42.738281 162.675781 43.410156 163.777344 43.410156 L 174.878906 43.410156 C 176.761719 43.410156 178.292969 41.847656 178.292969 39.921875 L 178.292969 28.460938 C 178.292969 27.316406 177.746094 26.3125 176.925781 25.671875 M 159.917969 38.972656 L 159.917969 27.511719 C 159.917969 25.753906 161.335938 24.304688 163.058594 24.304688 L 174.035156 24.304688 C 175.753906 24.304688 177.171875 25.753906 177.171875 27.511719 L 177.171875 38.972656 C 177.171875 40.730469 175.753906 42.179688 174.035156 42.179688 L 163.058594 42.179688 C 161.335938 42.179688 159.917969 40.757812 159.917969 38.972656 M 178.046875 39.921875 C 178.046875 41.679688 176.601562 43.128906 174.878906 43.128906 L 163.777344 43.128906 C 163.03125 43.128906 162.238281 42.765625 161.664062 42.152344 C 162.101562 42.347656 162.566406 42.460938 163.085938 42.460938 L 174.0625 42.460938 C 175.945312 42.460938 177.472656 40.898438 177.472656 38.972656 L 177.472656 27.511719 C 177.472656 27.121094 177.390625 26.730469 177.28125 26.371094 C 177.746094 26.925781 178.046875 27.652344 178.046875 28.460938 L 178.046875 39.921875 " fill-opacity="1" fill-rule="nonzero"/></g><g clip-path="url(#id7)"><path fill="#9aa7b2" d="M 168.078125 57.59375 C 168.078125 60.230469 165.769531 62.371094 163.308594 62.371094 L 80.054688 62.371094 C 79.363281 62.371094 78.671875 62.21875 78.054688 61.953125 C 78.863281 62.792969 79.976562 63.289062 81.484375 63.289062 L 164.464844 63.289062 C 166.886719 63.289062 168.882812 61.300781 168.882812 58.894531 L 168.882812 9.332031 C 168.882812 8.222656 168.460938 7.230469 167.808594 6.464844 C 168 6.960938 168.078125 7.496094 168.078125 8.03125 L 168.078125 57.59375 " fill-opacity="1" fill-rule="nonzero"/></g><g clip-path="url(#id8)"><path fill="#4364ef" d="M 80.054688 61.988281 L 163.234375 61.988281 C 165.65625 61.988281 167.652344 60 167.652344 57.59375 L 167.652344 8.03125 C 167.652344 5.625 165.65625 3.636719 163.234375 3.636719 L 80.054688 3.636719 C 77.632812 3.636719 75.632812 5.625 75.632812 8.03125 L 75.632812 57.59375 C 75.632812 60.039062 77.632812 61.988281 80.054688 61.988281 " fill-opacity="1" fill-rule="nonzero"/></g><g clip-path="url(#id9)"><path fill="#77838d" d="M 167.308594 5.507812 C 166.460938 4.171875 164.964844 3.253906 163.234375 3.253906 L 80.054688 3.253906 C 77.402344 3.253906 75.25 5.394531 75.25 8.03125 L 75.25 57.59375 C 75.25 59.160156 76.015625 60.535156 77.171875 61.417969 C 78.015625 62.753906 79.515625 63.671875 81.566406 63.671875 L 164.425781 63.671875 C 167.078125 63.671875 169.230469 61.53125 169.230469 58.894531 L 169.230469 9.332031 C 169.230469 7.765625 168.460938 6.390625 167.308594 5.507812 M 75.632812 57.59375 L 75.632812 8.03125 C 75.632812 5.625 77.632812 3.636719 80.054688 3.636719 L 163.234375 3.636719 C 165.65625 3.636719 167.652344 5.625 167.652344 8.03125 L 167.652344 57.59375 C 167.652344 60 165.65625 61.988281 163.234375 61.988281 L 80.054688 61.988281 C 77.632812 61.988281 75.632812 60.039062 75.632812 57.59375 M 168.882812 58.894531 C 168.882812 61.300781 166.847656 63.289062 164.425781 63.289062 L 81.566406 63.289062 C 80.015625 63.289062 78.902344 62.792969 78.09375 61.953125 C 78.707031 62.21875 79.363281 62.371094 80.09375 62.371094 L 163.269531 62.371094 C 165.925781 62.371094 168.078125 60.230469 168.078125 57.59375 L 168.078125 8.03125 C 168.078125 7.496094 167.960938 6.960938 167.808594 6.464844 C 168.460938 7.230469 168.882812 8.222656 168.882812 9.332031 L 168.882812 58.894531 " fill-opacity="1" fill-rule="nonzero"/></g><g fill="#000000" fill-opacity="1"><g transform="translate(82.686538, 37.378892)"><g><path d="M 7.839844 -10.730469 L 3.347656 -6.925781 L 3.347656 -10.730469 L 0.914062 -10.730469 L 0.914062 0 L 3.347656 0 L 3.347656 -3.789062 L 7.839844 0 L 11.402344 0 L 4.933594 -5.359375 L 11.402344 -10.730469 Z M 7.839844 -10.730469 "/></g></g></g><g fill="#000000" fill-opacity="1"><g transform="translate(94.3921, 37.378892)"><g/></g></g><g fill="#000000" fill-opacity="1"><g transform="translate(98.65421, 37.378892)"><g><path d="M 7.886719 -2.132812 L 7.277344 -2.132812 L 5.707031 -10.730469 L 0.914062 -10.730469 L 0.914062 0 L 3.347656 0 L 3.347656 -8.601562 L 3.730469 -8.601562 L 5.375 0 L 9.789062 0 L 11.429688 -8.601562 L 11.8125 -8.601562 L 11.8125 0 L 14.246094 0 L 14.246094 -10.730469 L 9.453125 -10.730469 Z M 7.886719 -2.132812 "/></g></g></g><g fill="#000000" fill-opacity="1"><g transform="translate(113.815122, 37.378892)"><g><path d="M 0.609375 -2.101562 C 0.609375 -1.308594 1.019531 0.152344 3.410156 0.152344 C 5.554688 0.152344 6.300781 -0.929688 6.589844 -2.207031 L 7.199219 -2.207031 L 6.820312 -1.292969 L 6.820312 -1.140625 C 6.820312 -0.410156 7.230469 0 7.960938 0 L 9.652344 0 L 9.652344 -2.132812 L 8.539062 -2.132812 L 8.539062 -4.292969 C 8.539062 -6.820312 6.683594 -7.839844 4.566406 -7.839844 C 2.421875 -7.839844 0.761719 -6.699219 0.761719 -4.75 L 3.042969 -4.75 C 3.042969 -5.449219 3.59375 -5.859375 4.566406 -5.859375 C 5.617188 -5.859375 6.105469 -5.480469 6.105469 -4.855469 L 3.683594 -4.519531 C 1.402344 -4.203125 0.609375 -3.425781 0.609375 -2.101562 Z M 3.042969 -2.558594 C 3.042969 -3 3.410156 -3.105469 4.140625 -3.210938 L 6.105469 -3.484375 C 6.105469 -2.542969 5.222656 -1.980469 3.882812 -1.980469 C 3.46875 -1.980469 3.042969 -2.117188 3.042969 -2.558594 Z M 3.042969 -2.558594 "/></g></g></g><g fill="#000000" fill-opacity="1"><g transform="translate(123.617965, 37.378892)"><g><path d="M 0.914062 2.890625 L 3.347656 2.890625 L 3.347656 -0.472656 L 2.890625 -1.84375 L 3.5 -1.84375 C 3.898438 -0.820312 4.628906 0.152344 6.53125 0.152344 C 8.753906 0.152344 9.863281 -1.660156 9.863281 -3.835938 C 9.863281 -6.011719 8.753906 -7.839844 6.53125 -7.839844 C 4.628906 -7.839844 3.898438 -6.863281 3.5 -5.84375 L 2.890625 -5.84375 L 3.347656 -7.214844 L 3.347656 -7.6875 L 0.914062 -7.6875 Z M 3.347656 -3.835938 C 3.347656 -5.144531 4.078125 -5.707031 5.386719 -5.707031 C 6.699219 -5.707031 7.429688 -5.144531 7.429688 -3.835938 C 7.429688 -2.527344 6.699219 -1.980469 5.386719 -1.980469 C 4.078125 -1.980469 3.347656 -2.527344 3.347656 -3.835938 Z M 3.347656 -3.835938 "/></g></g></g><g fill="#000000" fill-opacity="1"><g transform="translate(134.090564, 37.378892)"><g><path d="M 0.914062 2.890625 L 3.347656 2.890625 L 3.347656 -0.472656 L 2.890625 -1.84375 L 3.5 -1.84375 C 3.898438 -0.820312 4.628906 0.152344 6.53125 0.152344 C 8.753906 0.152344 9.863281 -1.660156 9.863281 -3.835938 C 9.863281 -6.011719 8.753906 -7.839844 6.53125 -7.839844 C 4.628906 -7.839844 3.898438 -6.863281 3.5 -5.84375 L 2.890625 -5.84375 L 3.347656 -7.214844 L 3.347656 -7.6875 L 0.914062 -7.6875 Z M 3.347656 -3.835938 C 3.347656 -5.144531 4.078125 -5.707031 5.386719 -5.707031 C 6.699219 -5.707031 7.429688 -5.144531 7.429688 -3.835938 C 7.429688 -2.527344 6.699219 -1.980469 5.386719 -1.980469 C 4.078125 -1.980469 3.347656 -2.527344 3.347656 -3.835938 Z M 3.347656 -3.835938 "/></g></g></g><g fill="#000000" fill-opacity="1"><g transform="translate(144.563163, 37.378892)"><g><path d="M 0.609375 -3.941406 C 0.609375 -1.765625 1.964844 0.152344 4.917969 0.152344 C 7.582031 0.152344 8.84375 -1.597656 8.996094 -2.710938 L 6.5625 -2.710938 C 6.410156 -2.132812 5.769531 -1.828125 4.917969 -1.828125 C 3.53125 -1.828125 2.890625 -2.449219 2.890625 -3.332031 L 8.722656 -3.332031 L 8.722656 -4.09375 C 8.722656 -6.421875 7.046875 -7.839844 4.65625 -7.839844 C 2.269531 -7.839844 0.609375 -6.378906 0.609375 -3.941406 Z M 2.890625 -4.703125 C 2.890625 -5.28125 3.304688 -5.859375 4.65625 -5.859375 C 6.011719 -5.859375 6.4375 -5.28125 6.4375 -4.703125 Z M 2.890625 -4.703125 "/></g></g></g><g fill="#000000" fill-opacity="1"><g transform="translate(154.168126, 37.378892)"><g><path d="M 3.347656 0 L 3.347656 -5.648438 L 7.261719 -5.554688 L 7.261719 -7.6875 L 2.222656 -7.808594 C 1.386719 -7.824219 0.914062 -7.367188 0.914062 -6.53125 L 0.914062 0 Z M 3.347656 0 "/></g></g></g><g fill="#000000" fill-opacity="1"><g transform="translate(4.290337, 37.831434)"><g><path d="M 2.09375 -6.65625 C 2.09375 -7.480469 2.488281 -7.949219 3.511719 -7.949219 C 4.152344 -7.949219 4.621094 -7.714844 4.621094 -7.148438 C 4.621094 -6.0625 3.03125 -5.671875 1.28125 -5.632812 L 1.28125 -3.191406 L 5.523438 -3.191406 L 5.523438 -4.425781 L 2.710938 -4.425781 L 1.773438 -4.09375 L 1.773438 -4.511719 C 3.734375 -4.722656 6.101562 -5.226562 6.101562 -7.199219 C 6.101562 -8.121094 5.460938 -9.183594 3.539062 -9.183594 C 1.453125 -9.183594 0.617188 -8.035156 0.617188 -6.65625 Z M 3.390625 0.125 C 4.203125 0.125 4.757812 -0.46875 4.757812 -1.246094 C 4.757812 -1.996094 4.203125 -2.589844 3.390625 -2.589844 C 2.550781 -2.589844 2.046875 -1.996094 2.046875 -1.246094 C 2.046875 -0.46875 2.550781 0.125 3.390625 0.125 Z M 3.390625 0.125 "/></g></g></g><g fill="#000000" fill-opacity="1"><g transform="translate(11.005446, 37.831434)"><g/></g></g><g fill="#000000" fill-opacity="1"><g transform="translate(14.455414, 37.831434)"><g><path d="M 6.546875 -1.714844 C 6.546875 -3.007812 5.4375 -3.316406 4.226562 -3.710938 C 3.242188 -4.03125 2.625 -4.214844 2.625 -4.511719 C 2.625 -4.757812 2.882812 -4.867188 3.351562 -4.867188 C 4.03125 -4.867188 4.363281 -4.535156 4.363281 -4.09375 L 6.335938 -4.09375 C 6.335938 -5.300781 5.472656 -6.347656 3.363281 -6.347656 C 1.652344 -6.347656 0.652344 -5.707031 0.652344 -4.597656 C 0.652344 -3.203125 2.070312 -2.898438 3.230469 -2.515625 C 4.226562 -2.183594 4.574219 -2.09375 4.574219 -1.773438 C 4.574219 -1.480469 4.238281 -1.355469 3.710938 -1.355469 C 2.675781 -1.355469 2.34375 -1.773438 2.34375 -2.253906 L 0.371094 -2.253906 C 0.371094 -0.800781 1.355469 0.125 3.648438 0.125 C 5.792969 0.125 6.546875 -0.664062 6.546875 -1.714844 Z M 6.546875 -1.714844 "/></g></g></g><g fill="#000000" fill-opacity="1"><g transform="translate(21.244452, 37.831434)"><g><path d="M 3.871094 -1.601562 C 2.921875 -1.601562 2.589844 -2.035156 2.589844 -3.167969 L 2.589844 -6.226562 L 0.617188 -6.226562 L 0.617188 -2.859375 C 0.617188 -0.9375 1.578125 0.125 3.167969 0.125 C 4.5 0.125 5.277344 -0.75 5.523438 -1.859375 L 6.015625 -1.859375 L 5.644531 -0.75 L 5.644531 0 L 7.617188 0 L 7.617188 -6.226562 L 5.644531 -6.226562 L 5.644531 -3.917969 C 5.644531 -2.167969 4.941406 -1.601562 3.871094 -1.601562 Z M 3.871094 -1.601562 "/></g></g></g><g fill="#000000" fill-opacity="1"><g transform="translate(29.475086, 37.831434)"><g><path d="M 0.738281 2.34375 L 2.710938 2.34375 L 2.710938 -0.382812 L 2.34375 -1.492188 L 2.835938 -1.492188 C 3.15625 -0.664062 3.746094 0.125 5.289062 0.125 C 7.085938 0.125 7.988281 -1.34375 7.988281 -3.105469 C 7.988281 -4.867188 7.085938 -6.347656 5.289062 -6.347656 C 3.746094 -6.347656 3.15625 -5.558594 2.835938 -4.734375 L 2.34375 -4.734375 L 2.710938 -5.84375 L 2.710938 -6.226562 L 0.738281 -6.226562 Z M 2.710938 -3.105469 C 2.710938 -4.167969 3.304688 -4.621094 4.363281 -4.621094 C 5.421875 -4.621094 6.015625 -4.167969 6.015625 -3.105469 C 6.015625 -2.046875 5.421875 -1.601562 4.363281 -1.601562 C 3.304688 -1.601562 2.710938 -2.046875 2.710938 -3.105469 Z M 2.710938 -3.105469 "/></g></g></g><g fill="#000000" fill-opacity="1"><g transform="translate(37.952138, 37.831434)"><g><path d="M 0.492188 -3.191406 C 0.492188 -1.429688 1.589844 0.125 3.980469 0.125 C 6.136719 0.125 7.160156 -1.292969 7.285156 -2.195312 L 5.3125 -2.195312 C 5.1875 -1.726562 4.671875 -1.480469 3.980469 -1.480469 C 2.859375 -1.480469 2.34375 -1.984375 2.34375 -2.699219 L 7.0625 -2.699219 L 7.0625 -3.316406 C 7.0625 -5.203125 5.707031 -6.347656 3.773438 -6.347656 C 1.835938 -6.347656 0.492188 -5.164062 0.492188 -3.191406 Z M 2.34375 -3.808594 C 2.34375 -4.277344 2.675781 -4.746094 3.773438 -4.746094 C 4.867188 -4.746094 5.214844 -4.277344 5.214844 -3.808594 Z M 2.34375 -3.808594 "/></g></g></g><g fill="#000000" fill-opacity="1"><g transform="translate(45.726883, 37.831434)"><g><path d="M 2.710938 0 L 2.710938 -4.574219 L 5.878906 -4.5 L 5.878906 -6.226562 L 1.800781 -6.324219 C 1.121094 -6.335938 0.738281 -5.964844 0.738281 -5.289062 L 0.738281 0 Z M 2.710938 0 "/></g></g></g><g fill="#000000" fill-opacity="1"><g transform="translate(51.727357, 37.831434)"><g/></g></g><g fill="#000000" fill-opacity="1"><g transform="translate(55.177326, 37.831434)"><g><path d="M 0.371094 -8.691406 L 0.371094 -6.964844 L 3.21875 -6.964844 L 3.21875 0 L 5.1875 0 L 5.1875 -6.964844 L 8.023438 -6.964844 L 8.023438 -8.691406 Z M 0.371094 -8.691406 "/></g></g></g><g fill="#000000" fill-opacity="1"><g transform="translate(181.109344, 37.831434)"><g><path d="M 2.09375 -6.65625 C 2.09375 -7.480469 2.488281 -7.949219 3.511719 -7.949219 C 4.152344 -7.949219 4.621094 -7.714844 4.621094 -7.148438 C 4.621094 -6.0625 3.03125 -5.671875 1.28125 -5.632812 L 1.28125 -3.191406 L 5.523438 -3.191406 L 5.523438 -4.425781 L 2.710938 -4.425781 L 1.773438 -4.09375 L 1.773438 -4.511719 C 3.734375 -4.722656 6.101562 -5.226562 6.101562 -7.199219 C 6.101562 -8.121094 5.460938 -9.183594 3.539062 -9.183594 C 1.453125 -9.183594 0.617188 -8.035156 0.617188 -6.65625 Z M 3.390625 0.125 C 4.203125 0.125 4.757812 -0.46875 4.757812 -1.246094 C 4.757812 -1.996094 4.203125 -2.589844 3.390625 -2.589844 C 2.550781 -2.589844 2.046875 -1.996094 2.046875 -1.246094 C 2.046875 -0.46875 2.550781 0.125 3.390625 0.125 Z M 3.390625 0.125 "/></g></g></g><g fill="#000000" fill-opacity="1"><g transform="translate(187.824453, 37.831434)"><g/></g></g><g fill="#000000" fill-opacity="1"><g transform="translate(191.274421, 37.831434)"><g><path d="M 0.492188 -3.191406 C 0.492188 -1.429688 1.589844 0.125 3.980469 0.125 C 6.136719 0.125 7.160156 -1.292969 7.285156 -2.195312 L 5.3125 -2.195312 C 5.1875 -1.726562 4.671875 -1.480469 3.980469 -1.480469 C 2.859375 -1.480469 2.34375 -1.984375 2.34375 -2.699219 L 7.0625 -2.699219 L 7.0625 -3.316406 C 7.0625 -5.203125 5.707031 -6.347656 3.773438 -6.347656 C 1.835938 -6.347656 0.492188 -5.164062 0.492188 -3.191406 Z M 2.34375 -3.808594 C 2.34375 -4.277344 2.675781 -4.746094 3.773438 -4.746094 C 4.867188 -4.746094 5.214844 -4.277344 5.214844 -3.808594 Z M 2.34375 -3.808594 "/></g></g></g><g fill="#000000" fill-opacity="1"><g transform="translate(199.049166, 37.831434)"><g><path d="M 2.710938 0 L 4.152344 -2.007812 L 5.597656 0 L 7.9375 0 L 5.570312 -2.871094 L 5.570312 -3.363281 L 7.9375 -6.226562 L 5.597656 -6.226562 L 4.152344 -4.226562 L 2.710938 -6.226562 L 0.371094 -6.226562 L 2.738281 -3.363281 L 2.738281 -2.871094 L 0.371094 0 Z M 2.710938 0 "/></g></g></g><g fill="#000000" fill-opacity="1"><g transform="translate(207.353718, 37.831434)"><g><path d="M 3.574219 -4.5 L 5.621094 -4.5 L 5.621094 -6.226562 L 3.574219 -6.226562 L 3.574219 -8.011719 L 1.601562 -7.394531 L 1.601562 -6.226562 L 0.125 -6.226562 L 0.125 -4.5 L 1.601562 -4.5 L 1.601562 -0.925781 C 1.601562 -0.246094 1.972656 0.148438 2.648438 0.125 L 5.867188 0 L 5.867188 -1.726562 L 3.574219 -1.601562 Z M 3.574219 -4.5 "/></g></g></g><g fill="#000000" fill-opacity="1"><g transform="translate(213.588295, 37.831434)"><g><path d="M 0.492188 -3.191406 C 0.492188 -1.429688 1.589844 0.125 3.980469 0.125 C 6.136719 0.125 7.160156 -1.292969 7.285156 -2.195312 L 5.3125 -2.195312 C 5.1875 -1.726562 4.671875 -1.480469 3.980469 -1.480469 C 2.859375 -1.480469 2.34375 -1.984375 2.34375 -2.699219 L 7.0625 -2.699219 L 7.0625 -3.316406 C 7.0625 -5.203125 5.707031 -6.347656 3.773438 -6.347656 C 1.835938 -6.347656 0.492188 -5.164062 0.492188 -3.191406 Z M 2.34375 -3.808594 C 2.34375 -4.277344 2.675781 -4.746094 3.773438 -4.746094 C 4.867188 -4.746094 5.214844 -4.277344 5.214844 -3.808594 Z M 2.34375 -3.808594 "/></g></g></g><g fill="#000000" fill-opacity="1"><g transform="translate(221.363039, 37.831434)"><g><path d="M 4.488281 -4.621094 C 5.4375 -4.621094 5.769531 -4.191406 5.769531 -3.058594 L 5.769531 0 L 7.742188 0 L 7.742188 -3.363281 C 7.742188 -5.289062 6.777344 -6.347656 5.1875 -6.347656 C 3.859375 -6.347656 3.082031 -5.472656 2.835938 -4.363281 L 2.34375 -4.363281 L 2.710938 -5.472656 L 2.710938 -6.226562 L 0.738281 -6.226562 L 0.738281 0 L 2.710938 0 L 2.710938 -2.304688 C 2.710938 -4.054688 3.414062 -4.621094 4.488281 -4.621094 Z M 4.488281 -4.621094 "/></g></g></g><g fill="#000000" fill-opacity="1"><g transform="translate(229.716877, 37.831434)"><g><path d="M 7.742188 -9.058594 L 5.769531 -9.058594 L 5.769531 -5.84375 L 6.136719 -4.734375 L 5.644531 -4.734375 C 5.324219 -5.558594 4.734375 -6.347656 3.191406 -6.347656 C 1.394531 -6.347656 0.492188 -4.882812 0.492188 -3.117188 C 0.492188 -1.355469 1.394531 0.125 3.191406 0.125 C 4.734375 0.125 5.324219 -0.664062 5.644531 -1.492188 L 6.136719 -1.492188 L 5.769531 -0.382812 L 5.769531 0 L 7.742188 0 Z M 5.769531 -3.117188 C 5.769531 -2.070312 5.175781 -1.601562 4.117188 -1.601562 C 3.058594 -1.601562 2.464844 -2.070312 2.464844 -3.117188 C 2.464844 -4.167969 3.058594 -4.621094 4.117188 -4.621094 C 5.175781 -4.621094 5.769531 -4.167969 5.769531 -3.117188 Z M 5.769531 -3.117188 "/></g></g></g><g fill="#000000" fill-opacity="1"><g transform="translate(238.193929, 37.831434)"><g><path d="M 6.546875 -1.714844 C 6.546875 -3.007812 5.4375 -3.316406 4.226562 -3.710938 C 3.242188 -4.03125 2.625 -4.214844 2.625 -4.511719 C 2.625 -4.757812 2.882812 -4.867188 3.351562 -4.867188 C 4.03125 -4.867188 4.363281 -4.535156 4.363281 -4.09375 L 6.335938 -4.09375 C 6.335938 -5.300781 5.472656 -6.347656 3.363281 -6.347656 C 1.652344 -6.347656 0.652344 -5.707031 0.652344 -4.597656 C 0.652344 -3.203125 2.070312 -2.898438 3.230469 -2.515625 C 4.226562 -2.183594 4.574219 -2.09375 4.574219 -1.773438 C 4.574219 -1.480469 4.238281 -1.355469 3.710938 -1.355469 C 2.675781 -1.355469 2.34375 -1.773438 2.34375 -2.253906 L 0.371094 -2.253906 C 0.371094 -0.800781 1.355469 0.125 3.648438 0.125 C 5.792969 0.125 6.546875 -0.664062 6.546875 -1.714844 Z M 6.546875 -1.714844 "/></g></g></g><g fill="#000000" fill-opacity="1"><g transform="translate(244.982966, 37.831434)"><g/></g></g><g fill="#000000" fill-opacity="1"><g transform="translate(248.432935, 37.831434)"><g><path d="M 6.347656 -8.691406 L 2.710938 -5.609375 L 2.710938 -8.691406 L 0.738281 -8.691406 L 0.738281 0 L 2.710938 0 L 2.710938 -3.070312 L 6.347656 0 L 9.230469 0 L 3.992188 -4.339844 L 9.230469 -8.691406 Z M 6.347656 -8.691406 "/></g></g></g></svg>