<svg xmlns="http://www.w3.org/2000/svg" xmlns:xlink="http://www.w3.org/1999/xlink" width="200" zoomAndPan="magnify" viewBox="0 0 150 74.999997" height="100" preserveAspectRatio="xMidYMid meet" version="1.0"><defs><g/><clipPath id="id1"><path d="M 20 19 L 36.988281 19 L 36.988281 36 L 20 36 Z M 20 19 " clip-rule="nonzero"/></clipPath><clipPath id="id2"><path d="M 18.148438 17.253906 L 36 17.253906 L 36 35 L 18.148438 35 Z M 18.148438 17.253906 " clip-rule="nonzero"/></clipPath><clipPath id="id3"><path d="M 18.148438 17.253906 L 36.988281 17.253906 L 36.988281 36.09375 L 18.148438 36.09375 Z M 18.148438 17.253906 " clip-rule="nonzero"/></clipPath><clipPath id="id4"><path d="M 114 30 L 131.519531 30 L 131.519531 47.492188 L 114 47.492188 Z M 114 30 " clip-rule="nonzero"/></clipPath><clipPath id="id5"><path d="M 112.679688 28.652344 L 131 28.652344 L 131 47 L 112.679688 47 Z M 112.679688 28.652344 " clip-rule="nonzero"/></clipPath><clipPath id="id6"><path d="M 112.679688 28.652344 L 131.519531 28.652344 L 131.519531 47.492188 L 112.679688 47.492188 Z M 112.679688 28.652344 " clip-rule="nonzero"/></clipPath><clipPath id="id7"><path d="M 20 41 L 36.988281 41 L 36.988281 57.664062 L 20 57.664062 Z M 20 41 " clip-rule="nonzero"/></clipPath><clipPath id="id8"><path d="M 18.148438 39 L 36 39 L 36 57 L 18.148438 57 Z M 18.148438 39 " clip-rule="nonzero"/></clipPath><clipPath id="id9"><path d="M 18.148438 38.828125 L 36.988281 38.828125 L 36.988281 57.664062 L 18.148438 57.664062 Z M 18.148438 38.828125 " clip-rule="nonzero"/></clipPath><clipPath id="id10"><path d="M 30 9 L 121.800781 9 L 121.800781 69.398438 L 30 69.398438 Z M 30 9 " clip-rule="nonzero"/></clipPath><clipPath id="id11"><path d="M 27.609375 5.945312 L 121.800781 5.945312 L 121.800781 69.398438 L 27.609375 69.398438 Z M 27.609375 5.945312 " clip-rule="nonzero"/></clipPath></defs><g clip-path="url(#id1)"><path fill="#9aa7b2" d="M 36.160156 31.78125 C 36.160156 33.648438 34.503906 35.167969 32.738281 35.167969 L 21.597656 35.167969 C 21.097656 35.167969 20.601562 35.058594 20.160156 34.871094 C 20.742188 35.46875 21.539062 35.820312 22.3125 35.820312 L 33.566406 35.820312 C 35.304688 35.820312 36.738281 34.410156 36.738281 32.703125 L 36.738281 21.570312 C 36.738281 20.78125 36.433594 20.078125 35.964844 19.535156 C 36.105469 19.886719 36.160156 20.265625 36.160156 20.648438 L 36.160156 31.78125 " fill-opacity="1" fill-rule="nonzero"/></g><g clip-path="url(#id2)"><path fill="#000000" d="M 21.597656 34.898438 L 32.683594 34.898438 C 34.421875 34.898438 35.855469 33.488281 35.855469 31.78125 L 35.855469 20.648438 C 35.855469 18.9375 34.421875 17.527344 32.683594 17.527344 L 21.597656 17.527344 C 19.859375 17.527344 18.425781 18.9375 18.425781 20.648438 L 18.425781 31.78125 C 18.425781 33.515625 19.859375 34.898438 21.597656 34.898438 " fill-opacity="1" fill-rule="nonzero"/></g><g clip-path="url(#id3)"><path fill="#77838d" d="M 35.609375 18.855469 C 35 17.910156 33.925781 17.257812 32.683594 17.257812 L 21.597656 17.257812 C 19.691406 17.257812 18.148438 18.777344 18.148438 20.648438 L 18.148438 31.78125 C 18.148438 32.890625 18.699219 33.867188 19.527344 34.492188 C 20.132812 35.441406 21.210938 36.089844 22.320312 36.089844 L 33.539062 36.089844 C 35.441406 36.089844 36.988281 34.570312 36.988281 32.703125 L 36.988281 21.570312 C 36.988281 20.457031 36.433594 19.480469 35.609375 18.855469 M 18.425781 31.78125 L 18.425781 20.648438 C 18.425781 18.9375 19.859375 17.527344 21.597656 17.527344 L 32.683594 17.527344 C 34.421875 17.527344 35.855469 18.9375 35.855469 20.648438 L 35.855469 31.78125 C 35.855469 33.488281 34.421875 34.898438 32.683594 34.898438 L 21.597656 34.898438 C 19.859375 34.898438 18.425781 33.515625 18.425781 31.78125 M 36.738281 32.703125 C 36.738281 34.410156 35.277344 35.820312 33.539062 35.820312 L 22.320312 35.820312 C 21.566406 35.820312 20.769531 35.46875 20.1875 34.871094 C 20.628906 35.058594 21.097656 35.167969 21.625 35.167969 L 32.710938 35.167969 C 34.613281 35.167969 36.160156 33.648438 36.160156 31.78125 L 36.160156 20.648438 C 36.160156 20.265625 36.078125 19.886719 35.964844 19.535156 C 36.433594 20.078125 36.738281 20.78125 36.738281 21.570312 L 36.738281 32.703125 " fill-opacity="1" fill-rule="nonzero"/></g><g clip-path="url(#id4)"><path fill="#9aa7b2" d="M 130.691406 43.175781 C 130.691406 45.046875 129.035156 46.566406 127.269531 46.566406 L 116.128906 46.566406 C 115.632812 46.566406 115.136719 46.457031 114.695312 46.265625 C 115.273438 46.863281 116.074219 47.214844 116.84375 47.214844 L 128.097656 47.214844 C 129.835938 47.214844 131.269531 45.804688 131.269531 44.097656 L 131.269531 32.964844 C 131.269531 32.179688 130.96875 31.472656 130.5 30.933594 C 130.636719 31.285156 130.691406 31.664062 130.691406 32.042969 L 130.691406 43.175781 " fill-opacity="1" fill-rule="nonzero"/></g><g clip-path="url(#id5)"><path fill="#000000" d="M 116.128906 46.292969 L 127.214844 46.292969 C 128.953125 46.292969 130.386719 44.882812 130.386719 43.175781 L 130.386719 32.042969 C 130.386719 30.335938 128.953125 28.925781 127.214844 28.925781 L 116.128906 28.925781 C 114.390625 28.925781 112.957031 30.335938 112.957031 32.042969 L 112.957031 43.175781 C 112.957031 44.910156 114.390625 46.292969 116.128906 46.292969 " fill-opacity="1" fill-rule="nonzero"/></g><g clip-path="url(#id6)"><path fill="#77838d" d="M 130.140625 30.253906 C 129.53125 29.304688 128.457031 28.65625 127.214844 28.65625 L 116.128906 28.65625 C 114.226562 28.65625 112.679688 30.171875 112.679688 32.042969 L 112.679688 43.175781 C 112.679688 44.289062 113.230469 45.265625 114.058594 45.886719 C 114.667969 46.835938 115.742188 47.488281 116.855469 47.488281 L 128.070312 47.488281 C 129.972656 47.488281 131.519531 45.96875 131.519531 44.097656 L 131.519531 32.964844 C 131.519531 31.855469 130.96875 30.878906 130.140625 30.253906 M 112.957031 43.175781 L 112.957031 32.042969 C 112.957031 30.335938 114.390625 28.925781 116.128906 28.925781 L 127.214844 28.925781 C 128.953125 28.925781 130.386719 30.335938 130.386719 32.042969 L 130.386719 43.175781 C 130.386719 44.882812 128.953125 46.292969 127.214844 46.292969 L 116.128906 46.292969 C 114.390625 46.292969 112.957031 44.910156 112.957031 43.175781 M 131.269531 44.097656 C 131.269531 45.804688 129.808594 47.214844 128.070312 47.214844 L 116.855469 47.214844 C 116.101562 47.214844 115.300781 46.863281 114.722656 46.265625 C 115.164062 46.457031 115.632812 46.566406 116.15625 46.566406 L 127.242188 46.566406 C 129.148438 46.566406 130.691406 45.046875 130.691406 43.175781 L 130.691406 32.042969 C 130.691406 31.664062 130.609375 31.285156 130.5 30.933594 C 130.96875 31.472656 131.269531 32.179688 131.269531 32.964844 L 131.269531 44.097656 " fill-opacity="1" fill-rule="nonzero"/></g><g clip-path="url(#id7)"><path fill="#9aa7b2" d="M 36.160156 53.351562 C 36.160156 55.222656 34.503906 56.738281 32.738281 56.738281 L 21.597656 56.738281 C 21.097656 56.738281 20.601562 56.632812 20.160156 56.441406 C 20.742188 57.039062 21.539062 57.390625 22.3125 57.390625 L 33.566406 57.390625 C 35.304688 57.390625 36.738281 55.980469 36.738281 54.273438 L 36.738281 43.140625 C 36.738281 42.355469 36.433594 41.648438 35.964844 41.105469 C 36.105469 41.457031 36.160156 41.839844 36.160156 42.21875 L 36.160156 53.351562 " fill-opacity="1" fill-rule="nonzero"/></g><g clip-path="url(#id8)"><path fill="#000000" d="M 21.597656 56.46875 L 32.683594 56.46875 C 34.421875 56.46875 35.855469 55.058594 35.855469 53.351562 L 35.855469 42.21875 C 35.855469 40.511719 34.421875 39.101562 32.683594 39.101562 L 21.597656 39.101562 C 19.859375 39.101562 18.425781 40.511719 18.425781 42.21875 L 18.425781 53.351562 C 18.425781 55.085938 19.859375 56.46875 21.597656 56.46875 " fill-opacity="1" fill-rule="nonzero"/></g><g clip-path="url(#id9)"><path fill="#77838d" d="M 35.609375 40.429688 C 35 39.480469 33.925781 38.828125 32.683594 38.828125 L 21.597656 38.828125 C 19.691406 38.828125 18.148438 40.347656 18.148438 42.21875 L 18.148438 53.351562 C 18.148438 54.460938 18.699219 55.4375 19.527344 56.0625 C 20.132812 57.011719 21.210938 57.660156 22.320312 57.660156 L 33.539062 57.660156 C 35.441406 57.660156 36.988281 56.144531 36.988281 54.273438 L 36.988281 43.140625 C 36.988281 42.027344 36.433594 41.050781 35.609375 40.429688 M 18.425781 53.351562 L 18.425781 42.21875 C 18.425781 40.511719 19.859375 39.101562 21.597656 39.101562 L 32.683594 39.101562 C 34.421875 39.101562 35.855469 40.511719 35.855469 42.21875 L 35.855469 53.351562 C 35.855469 55.058594 34.421875 56.46875 32.683594 56.46875 L 21.597656 56.46875 C 19.859375 56.46875 18.425781 55.085938 18.425781 53.351562 M 36.738281 54.273438 C 36.738281 55.980469 35.277344 57.390625 33.539062 57.390625 L 22.320312 57.390625 C 21.566406 57.390625 20.769531 57.039062 20.1875 56.441406 C 20.628906 56.632812 21.097656 56.738281 21.625 56.738281 L 32.710938 56.738281 C 34.613281 56.738281 36.160156 55.222656 36.160156 53.351562 L 36.160156 42.21875 C 36.160156 41.839844 36.078125 41.457031 35.964844 41.105469 C 36.433594 41.648438 36.738281 42.355469 36.738281 43.140625 L 36.738281 54.273438 " fill-opacity="1" fill-rule="nonzero"/></g><g clip-path="url(#id10)"><path fill="#9aa7b2" d="M 120.636719 63.21875 C 120.636719 65.898438 118.324219 68.078125 115.859375 68.078125 L 32.433594 68.078125 C 31.742188 68.078125 31.046875 67.921875 30.433594 67.648438 C 31.242188 68.503906 32.359375 69.011719 33.867188 69.011719 L 117.015625 69.011719 C 119.441406 69.011719 121.445312 66.988281 121.445312 64.539062 L 121.445312 12.125 C 121.445312 11 121.019531 9.988281 120.367188 9.210938 C 120.558594 9.714844 120.636719 10.257812 120.636719 10.804688 L 120.636719 63.21875 " fill-opacity="1" fill-rule="nonzero"/></g><path fill="#ffbd59" d="M 32.433594 67.6875 L 115.78125 67.6875 C 118.207031 67.6875 120.210938 65.667969 120.210938 63.21875 L 120.210938 10.804688 C 120.210938 8.355469 118.207031 6.332031 115.78125 6.332031 L 32.433594 6.332031 C 30.007812 6.332031 28.003906 8.355469 28.003906 10.804688 L 28.003906 63.21875 C 28.003906 65.707031 30.007812 67.6875 32.433594 67.6875 " fill-opacity="1" fill-rule="nonzero"/><g clip-path="url(#id11)"><path fill="#77838d" d="M 119.863281 8.238281 C 119.015625 6.878906 117.515625 5.945312 115.78125 5.945312 L 32.433594 5.945312 C 29.777344 5.945312 27.621094 8.121094 27.621094 10.804688 L 27.621094 63.21875 C 27.621094 64.8125 28.390625 66.210938 29.546875 67.105469 C 30.394531 68.464844 31.894531 69.398438 33.949219 69.398438 L 116.976562 69.398438 C 119.632812 69.398438 121.789062 67.222656 121.789062 64.539062 L 121.789062 12.125 C 121.789062 10.53125 121.019531 9.132812 119.863281 8.238281 M 28.003906 63.21875 L 28.003906 10.804688 C 28.003906 8.355469 30.007812 6.332031 32.433594 6.332031 L 115.78125 6.332031 C 118.207031 6.332031 120.210938 8.355469 120.210938 10.804688 L 120.210938 63.21875 C 120.210938 65.667969 118.207031 67.6875 115.78125 67.6875 L 32.433594 67.6875 C 30.007812 67.6875 28.003906 65.707031 28.003906 63.21875 M 121.445312 64.539062 C 121.445312 66.988281 119.402344 69.011719 116.976562 69.011719 L 33.949219 69.011719 C 32.394531 69.011719 31.277344 68.503906 30.46875 67.648438 C 31.085938 67.921875 31.742188 68.078125 32.472656 68.078125 L 115.820312 68.078125 C 118.476562 68.078125 120.636719 65.898438 120.636719 63.21875 L 120.636719 10.804688 C 120.636719 10.257812 120.519531 9.714844 120.367188 9.210938 C 121.019531 9.988281 121.445312 11 121.445312 12.125 L 121.445312 64.539062 " fill-opacity="1" fill-rule="nonzero"/></g><g fill="#000000" fill-opacity="1"><g transform="translate(47.202575, 42.029073)"><g><path d="M 7.28125 -1.96875 L 6.71875 -1.96875 L 5.269531 -9.910156 L 0.84375 -9.910156 L 0.84375 0 L 3.09375 0 L 3.09375 -7.941406 L 3.445312 -7.941406 L 4.960938 0 L 9.039062 0 L 10.554688 -7.941406 L 10.90625 -7.941406 L 10.90625 0 L 13.15625 0 L 13.15625 -9.910156 L 8.726562 -9.910156 Z M 7.28125 -1.96875 "/></g></g></g><g fill="#000000" fill-opacity="1"><g transform="translate(61.19721, 42.029073)"><g><path d="M 0.5625 -3.640625 C 0.5625 -1.628906 1.8125 0.140625 4.539062 0.140625 C 7 0.140625 8.164062 -1.476562 8.304688 -2.5 L 6.058594 -2.5 C 5.917969 -1.96875 5.328125 -1.6875 4.539062 -1.6875 C 3.261719 -1.6875 2.671875 -2.261719 2.671875 -3.078125 L 8.054688 -3.078125 L 8.054688 -3.78125 C 8.054688 -5.929688 6.507812 -7.238281 4.300781 -7.238281 C 2.09375 -7.238281 0.5625 -5.890625 0.5625 -3.640625 Z M 2.671875 -4.34375 C 2.671875 -4.878906 3.050781 -5.410156 4.300781 -5.410156 C 5.550781 -5.410156 5.945312 -4.878906 5.945312 -4.34375 Z M 2.671875 -4.34375 "/></g></g></g><g fill="#000000" fill-opacity="1"><g transform="translate(70.06329, 42.029073)"><g><path d="M 3.09375 0 L 3.09375 -5.214844 L 6.703125 -5.128906 L 6.703125 -7.097656 L 2.050781 -7.210938 C 1.277344 -7.222656 0.84375 -6.800781 0.84375 -6.03125 L 0.84375 0 Z M 3.09375 0 "/></g></g></g><g fill="#000000" fill-opacity="1"><g transform="translate(76.906044, 42.029073)"><g><path d="M 9.164062 -7.097656 C 8.53125 -7.097656 7.800781 -7.027344 7.378906 -6.480469 C 6.632812 -7.027344 5.648438 -7.238281 4.566406 -7.238281 C 2.332031 -7.238281 0.5625 -6.339844 0.5625 -4.46875 C 0.5625 -2.136719 3.304688 -1.757812 5.902344 -2.683594 L 5.902344 -2.121094 C 4.609375 -1.8125 3.148438 -1.644531 1.53125 -1.476562 L 1.769531 -0.210938 C 3.949219 -0.578125 6.492188 -1.039062 6.492188 0 C 6.492188 0.773438 5.621094 0.84375 1.027344 0.84375 L 1.027344 2.8125 C 6.296875 2.8125 8.757812 2.570312 8.757812 0.476562 C 8.757812 -1.027344 7.253906 -1.449219 5.636719 -1.347656 C 7.589844 -2.011719 8.839844 -2.851562 8.839844 -4.1875 C 8.839844 -4.566406 8.726562 -4.890625 8.644531 -5.003906 C 8.839844 -5.128906 9.09375 -5.128906 9.304688 -5.128906 L 9.78125 -5.128906 L 9.78125 -7.097656 Z M 4.707031 -3.386719 C 3.359375 -3.386719 2.8125 -3.722656 2.8125 -4.328125 C 2.8125 -4.917969 3.359375 -5.269531 4.707031 -5.269531 C 6.058594 -5.269531 6.589844 -4.917969 6.589844 -4.328125 C 6.589844 -3.722656 6.058594 -3.386719 4.707031 -3.386719 Z M 4.707031 -3.386719 "/></g></g></g><g fill="#000000" fill-opacity="1"><g transform="translate(86.825942, 42.029073)"><g><path d="M 0.5625 -3.640625 C 0.5625 -1.628906 1.8125 0.140625 4.539062 0.140625 C 7 0.140625 8.164062 -1.476562 8.304688 -2.5 L 6.058594 -2.5 C 5.917969 -1.96875 5.328125 -1.6875 4.539062 -1.6875 C 3.261719 -1.6875 2.671875 -2.261719 2.671875 -3.078125 L 8.054688 -3.078125 L 8.054688 -3.78125 C 8.054688 -5.929688 6.507812 -7.238281 4.300781 -7.238281 C 2.09375 -7.238281 0.5625 -5.890625 0.5625 -3.640625 Z M 2.671875 -4.34375 C 2.671875 -4.878906 3.050781 -5.410156 4.300781 -5.410156 C 5.550781 -5.410156 5.945312 -4.878906 5.945312 -4.34375 Z M 2.671875 -4.34375 "/></g></g></g><g fill="#000000" fill-opacity="1"><g transform="translate(95.692023, 42.029073)"><g><path d="M 3.09375 0 L 3.09375 -5.214844 L 6.703125 -5.128906 L 6.703125 -7.097656 L 2.050781 -7.210938 C 1.277344 -7.222656 0.84375 -6.800781 0.84375 -6.03125 L 0.84375 0 Z M 3.09375 0 "/></g></g></g><g fill="#000000" fill-opacity="1"><g transform="translate(1.941029, 33.34544)"><g><path d="M 0.738281 -4.84375 C 0.738281 -1.589844 2.753906 0.183594 6.617188 0.183594 C 10.480469 0.183594 12.511719 -1.589844 12.511719 -4.84375 L 12.511719 -13.03125 L 9.554688 -13.03125 L 9.554688 -6.152344 C 9.554688 -3.824219 9.332031 -2.402344 6.617188 -2.402344 C 3.898438 -2.402344 3.695312 -3.824219 3.695312 -6.152344 L 3.695312 -13.03125 L 0.738281 -13.03125 Z M 0.738281 -4.84375 "/></g></g></g><g fill="#000000" fill-opacity="1"><g transform="translate(1.941029, 55.977736)"><g><path d="M 0.738281 -4.84375 C 0.738281 -1.589844 2.753906 0.183594 6.617188 0.183594 C 10.480469 0.183594 12.511719 -1.589844 12.511719 -4.84375 L 12.511719 -13.03125 L 9.554688 -13.03125 L 9.554688 -6.152344 C 9.554688 -3.824219 9.332031 -2.402344 6.617188 -2.402344 C 3.898438 -2.402344 3.695312 -3.824219 3.695312 -6.152344 L 3.695312 -13.03125 L 0.738281 -13.03125 Z M 0.738281 -4.84375 "/></g></g></g><g fill="#000000" fill-opacity="1"><g transform="translate(134.798723, 45.647788)"><g><path d="M 0.738281 -4.84375 C 0.738281 -1.589844 2.753906 0.183594 6.617188 0.183594 C 10.480469 0.183594 12.511719 -1.589844 12.511719 -4.84375 L 12.511719 -13.03125 L 9.554688 -13.03125 L 9.554688 -6.152344 C 9.554688 -3.824219 9.332031 -2.402344 6.617188 -2.402344 C 3.898438 -2.402344 3.695312 -3.824219 3.695312 -6.152344 L 3.695312 -13.03125 L 0.738281 -13.03125 Z M 0.738281 -4.84375 "/></g></g></g></svg>