<svg xmlns="http://www.w3.org/2000/svg" xmlns:xlink="http://www.w3.org/1999/xlink" width="300" zoomAndPan="magnify" viewBox="0 0 224.87999 56.249996" height="75" preserveAspectRatio="xMidYMid meet" version="1.0"><defs><clipPath id="id1"><path d="M 3.382812 0 L 58.890625 0 L 58.890625 55.511719 L 3.382812 55.511719 Z M 3.382812 0 " clip-rule="nonzero"/></clipPath><clipPath id="id2"><path d="M 165.878906 0 L 221.386719 0 L 221.386719 55.511719 L 165.878906 55.511719 Z M 165.878906 0 " clip-rule="nonzero"/></clipPath><clipPath id="id3"><path d="M 83.316406 0 L 140 0 L 140 55.511719 L 83.316406 55.511719 Z M 83.316406 0 " clip-rule="nonzero"/></clipPath><clipPath id="id4"><path d="M 91 8 L 140 8 L 140 55.511719 L 91 55.511719 Z M 91 8 " clip-rule="nonzero"/></clipPath><clipPath id="id5"><path d="M 97 11 L 139 11 L 139 55.511719 L 97 55.511719 Z M 97 11 " clip-rule="nonzero"/></clipPath></defs><g clip-path="url(#id1)"><path fill="#1b9df0" d="M 58.890625 27.753906 C 58.890625 28.664062 58.847656 29.570312 58.757812 30.476562 C 58.667969 31.378906 58.535156 32.277344 58.359375 33.167969 C 58.179688 34.0625 57.960938 34.941406 57.695312 35.8125 C 57.433594 36.679688 57.125 37.535156 56.777344 38.375 C 56.429688 39.214844 56.042969 40.035156 55.613281 40.839844 C 55.1875 41.640625 54.71875 42.417969 54.214844 43.175781 C 53.707031 43.929688 53.167969 44.660156 52.589844 45.363281 C 52.015625 46.066406 51.40625 46.738281 50.761719 47.378906 C 50.121094 48.023438 49.445312 48.632812 48.742188 49.210938 C 48.042969 49.785156 47.3125 50.328125 46.554688 50.832031 C 45.800781 51.335938 45.023438 51.804688 44.21875 52.234375 C 43.417969 52.660156 42.597656 53.050781 41.757812 53.398438 C 40.917969 53.746094 40.0625 54.050781 39.195312 54.316406 C 38.324219 54.578125 37.441406 54.800781 36.550781 54.976562 C 35.660156 55.152344 34.761719 55.285156 33.855469 55.375 C 32.953125 55.464844 32.046875 55.511719 31.136719 55.511719 C 30.226562 55.511719 29.320312 55.464844 28.417969 55.375 C 27.511719 55.289062 26.613281 55.152344 25.722656 54.976562 C 24.832031 54.800781 23.949219 54.578125 23.078125 54.316406 C 22.210938 54.050781 21.355469 53.746094 20.515625 53.398438 C 19.675781 53.050781 18.855469 52.660156 18.054688 52.234375 C 17.25 51.804688 16.472656 51.335938 15.714844 50.832031 C 14.960938 50.328125 14.230469 49.785156 13.527344 49.210938 C 12.828125 48.632812 12.152344 48.023438 11.511719 47.378906 C 10.867188 46.738281 10.257812 46.066406 9.683594 45.363281 C 9.105469 44.660156 8.5625 43.929688 8.058594 43.175781 C 7.554688 42.417969 7.085938 41.640625 6.660156 40.839844 C 6.230469 40.035156 5.84375 39.214844 5.496094 38.375 C 5.144531 37.535156 4.839844 36.679688 4.578125 35.8125 C 4.3125 34.941406 4.09375 34.0625 3.914062 33.167969 C 3.738281 32.277344 3.605469 31.378906 3.515625 30.476562 C 3.425781 29.570312 3.382812 28.664062 3.382812 27.753906 C 3.382812 26.847656 3.425781 25.9375 3.515625 25.035156 C 3.605469 24.128906 3.738281 23.230469 3.914062 22.339844 C 4.09375 21.449219 4.3125 20.566406 4.578125 19.699219 C 4.839844 18.828125 5.144531 17.972656 5.496094 17.132812 C 5.84375 16.292969 6.230469 15.472656 6.660156 14.671875 C 7.085938 13.871094 7.554688 13.089844 8.058594 12.335938 C 8.5625 11.578125 9.105469 10.851562 9.683594 10.148438 C 10.257812 9.445312 10.867188 8.773438 11.511719 8.128906 C 12.152344 7.488281 12.828125 6.875 13.527344 6.300781 C 14.230469 5.722656 14.960938 5.183594 15.714844 4.675781 C 16.472656 4.171875 17.25 3.707031 18.054688 3.277344 C 18.855469 2.847656 19.675781 2.460938 20.515625 2.113281 C 21.355469 1.765625 22.210938 1.460938 23.078125 1.195312 C 23.949219 0.929688 24.832031 0.710938 25.722656 0.535156 C 26.613281 0.355469 27.511719 0.222656 28.417969 0.132812 C 29.320312 0.0429688 30.226562 0 31.136719 0 C 32.046875 0 32.953125 0.0429688 33.855469 0.132812 C 34.761719 0.222656 35.660156 0.355469 36.550781 0.535156 C 37.441406 0.710938 38.324219 0.929688 39.195312 1.195312 C 40.0625 1.460938 40.917969 1.765625 41.757812 2.113281 C 42.597656 2.460938 43.417969 2.847656 44.21875 3.277344 C 45.023438 3.707031 45.800781 4.171875 46.554688 4.675781 C 47.3125 5.183594 48.042969 5.722656 48.742188 6.300781 C 49.445312 6.875 50.121094 7.488281 50.761719 8.128906 C 51.40625 8.773438 52.015625 9.445312 52.589844 10.148438 C 53.167969 10.851562 53.707031 11.578125 54.214844 12.335938 C 54.71875 13.089844 55.1875 13.871094 55.613281 14.671875 C 56.042969 15.472656 56.429688 16.292969 56.777344 17.132812 C 57.125 17.972656 57.433594 18.828125 57.695312 19.699219 C 57.960938 20.566406 58.179688 21.449219 58.359375 22.339844 C 58.535156 23.230469 58.667969 24.128906 58.757812 25.035156 C 58.847656 25.9375 58.890625 26.847656 58.890625 27.753906 Z M 58.890625 27.753906 " fill-opacity="1" fill-rule="nonzero"/></g><path fill="#ffffff" d="M 26.058594 42.394531 C 38.367188 42.394531 45.097656 32.195312 45.097656 23.355469 C 45.097656 23.0625 45.097656 22.773438 45.082031 22.496094 C 46.386719 21.550781 47.527344 20.371094 48.429688 19.027344 C 47.234375 19.554688 45.945312 19.914062 44.582031 20.082031 C 45.972656 19.246094 47.027344 17.945312 47.527344 16.375 C 46.234375 17.136719 44.804688 17.695312 43.28125 18 C 42.058594 16.695312 40.324219 15.890625 38.394531 15.890625 C 34.703125 15.890625 31.707031 18.886719 31.707031 22.578125 C 31.707031 23.105469 31.761719 23.621094 31.886719 24.105469 C 26.320312 23.828125 21.394531 21.164062 18.089844 17.109375 C 17.523438 18.097656 17.191406 19.246094 17.191406 20.46875 C 17.191406 22.785156 18.371094 24.839844 20.171875 26.035156 C 19.078125 26.007812 18.050781 25.699219 17.148438 25.203125 C 17.148438 25.230469 17.148438 25.257812 17.148438 25.285156 C 17.148438 28.53125 19.453125 31.222656 22.519531 31.847656 C 21.964844 32 21.367188 32.085938 20.757812 32.085938 C 20.324219 32.085938 19.910156 32.042969 19.492188 31.960938 C 20.339844 34.625 22.808594 36.554688 25.738281 36.609375 C 23.449219 38.398438 20.5625 39.46875 17.425781 39.46875 C 16.882812 39.46875 16.355469 39.441406 15.828125 39.371094 C 18.757812 41.285156 22.28125 42.394531 26.058594 42.394531 " fill-opacity="1" fill-rule="nonzero"/><g clip-path="url(#id2)"><path fill="#000000" d="M 221.386719 27.753906 C 221.386719 28.664062 221.34375 29.570312 221.253906 30.476562 C 221.164062 31.378906 221.03125 32.277344 220.855469 33.167969 C 220.675781 34.0625 220.457031 34.941406 220.191406 35.8125 C 219.929688 36.679688 219.621094 37.535156 219.273438 38.375 C 218.925781 39.214844 218.539062 40.035156 218.109375 40.839844 C 217.679688 41.640625 217.214844 42.417969 216.710938 43.175781 C 216.203125 43.929688 215.664062 44.660156 215.085938 45.363281 C 214.511719 46.066406 213.902344 46.738281 213.257812 47.378906 C 212.617188 48.023438 211.941406 48.632812 211.238281 49.210938 C 210.539062 49.785156 209.808594 50.328125 209.050781 50.832031 C 208.296875 51.335938 207.519531 51.804688 206.714844 52.234375 C 205.914062 52.660156 205.09375 53.050781 204.253906 53.398438 C 203.414062 53.746094 202.558594 54.050781 201.6875 54.316406 C 200.820312 54.578125 199.9375 54.800781 199.046875 54.976562 C 198.15625 55.152344 197.257812 55.289062 196.351562 55.375 C 195.449219 55.464844 194.542969 55.511719 193.632812 55.511719 C 192.722656 55.511719 191.816406 55.464844 190.910156 55.375 C 190.007812 55.289062 189.109375 55.152344 188.21875 54.976562 C 187.324219 54.800781 186.445312 54.578125 185.574219 54.316406 C 184.707031 54.050781 183.851562 53.746094 183.011719 53.398438 C 182.171875 53.050781 181.351562 52.660156 180.550781 52.234375 C 179.746094 51.804688 178.96875 51.335938 178.210938 50.832031 C 177.457031 50.328125 176.726562 49.785156 176.023438 49.210938 C 175.320312 48.632812 174.648438 48.023438 174.007812 47.378906 C 173.363281 46.738281 172.753906 46.066406 172.175781 45.363281 C 171.601562 44.660156 171.058594 43.929688 170.554688 43.175781 C 170.050781 42.417969 169.582031 41.640625 169.15625 40.839844 C 168.726562 40.035156 168.339844 39.214844 167.988281 38.375 C 167.640625 37.535156 167.335938 36.679688 167.074219 35.8125 C 166.808594 34.941406 166.589844 34.0625 166.410156 33.167969 C 166.234375 32.277344 166.101562 31.378906 166.011719 30.476562 C 165.921875 29.570312 165.878906 28.664062 165.878906 27.753906 C 165.878906 26.847656 165.921875 25.9375 166.011719 25.035156 C 166.101562 24.128906 166.234375 23.230469 166.410156 22.339844 C 166.589844 21.449219 166.808594 20.566406 167.074219 19.699219 C 167.335938 18.828125 167.640625 17.972656 167.988281 17.132812 C 168.339844 16.292969 168.726562 15.472656 169.15625 14.671875 C 169.582031 13.871094 170.050781 13.089844 170.554688 12.335938 C 171.058594 11.578125 171.601562 10.851562 172.175781 10.148438 C 172.753906 9.445312 173.363281 8.773438 174.007812 8.128906 C 174.648438 7.488281 175.320312 6.875 176.023438 6.300781 C 176.726562 5.722656 177.457031 5.183594 178.210938 4.675781 C 178.96875 4.171875 179.746094 3.707031 180.550781 3.277344 C 181.351562 2.847656 182.171875 2.460938 183.011719 2.113281 C 183.851562 1.765625 184.707031 1.460938 185.574219 1.195312 C 186.445312 0.929688 187.324219 0.710938 188.21875 0.535156 C 189.109375 0.355469 190.007812 0.222656 190.910156 0.132812 C 191.816406 0.0429688 192.722656 0 193.632812 0 C 194.542969 0 195.449219 0.0429688 196.351562 0.132812 C 197.257812 0.222656 198.15625 0.355469 199.046875 0.535156 C 199.9375 0.710938 200.820312 0.929688 201.6875 1.195312 C 202.558594 1.460938 203.414062 1.765625 204.253906 2.113281 C 205.09375 2.460938 205.914062 2.847656 206.714844 3.277344 C 207.519531 3.707031 208.296875 4.171875 209.050781 4.675781 C 209.808594 5.183594 210.539062 5.722656 211.238281 6.300781 C 211.941406 6.875 212.617188 7.488281 213.257812 8.128906 C 213.902344 8.773438 214.511719 9.445312 215.085938 10.148438 C 215.664062 10.851562 216.203125 11.578125 216.710938 12.335938 C 217.214844 13.089844 217.679688 13.871094 218.109375 14.671875 C 218.539062 15.472656 218.925781 16.292969 219.273438 17.132812 C 219.621094 17.972656 219.929688 18.828125 220.191406 19.699219 C 220.457031 20.566406 220.675781 21.449219 220.855469 22.339844 C 221.03125 23.230469 221.164062 24.128906 221.253906 25.035156 C 221.34375 25.9375 221.386719 26.847656 221.386719 27.753906 Z M 221.386719 27.753906 " fill-opacity="1" fill-rule="nonzero"/></g><path fill="#ffffff" d="M 183.964844 40.390625 C 177.003906 40.398438 171.339844 34.746094 171.332031 27.777344 C 171.320312 20.796875 176.976562 15.125 183.953125 15.121094 C 190.9375 15.117188 196.59375 20.777344 196.59375 27.773438 C 196.597656 34.726562 190.9375 40.382812 183.964844 40.386719 Z M 183.964844 40.390625 " fill-opacity="1" fill-rule="nonzero"/><path fill="#ffffff" d="M 210.511719 27.761719 C 210.496094 30.320312 210.117188 32.8125 209.125 35.191406 C 208.664062 36.292969 208.070312 37.320312 207.25 38.195312 C 206.648438 38.835938 205.964844 39.347656 205.121094 39.609375 C 204 39.957031 202.945312 39.761719 201.964844 39.144531 C 201.042969 38.566406 200.363281 37.753906 199.796875 36.839844 C 198.894531 35.378906 198.355469 33.777344 198.003906 32.105469 C 197.640625 30.390625 197.511719 28.65625 197.582031 26.90625 C 197.679688 24.472656 198.121094 22.109375 199.148438 19.882812 C 199.609375 18.882812 200.1875 17.953125 200.972656 17.171875 C 201.59375 16.546875 202.300781 16.0625 203.167969 15.84375 C 204.261719 15.570312 205.261719 15.8125 206.1875 16.417969 C 207.140625 17.042969 207.828125 17.90625 208.398438 18.875 C 209.226562 20.285156 209.738281 21.8125 210.070312 23.402344 C 210.371094 24.839844 210.515625 26.296875 210.511719 27.765625 Z M 210.511719 27.761719 " fill-opacity="1" fill-rule="nonzero"/><path fill="#ffffff" d="M 211.210938 27.570312 C 211.273438 26.386719 211.316406 25.03125 211.421875 23.679688 C 211.550781 22.039062 211.773438 20.410156 212.273438 18.835938 C 212.40625 18.414062 212.597656 18.003906 212.796875 17.609375 C 212.886719 17.425781 213.03125 17.265625 213.179688 17.128906 C 213.4375 16.886719 213.757812 16.882812 214 17.136719 C 214.203125 17.347656 214.386719 17.597656 214.519531 17.859375 C 214.902344 18.609375 215.101562 19.425781 215.273438 20.246094 C 215.550781 21.574219 215.703125 22.921875 215.804688 24.273438 C 215.945312 26.144531 215.964844 28.019531 215.886719 29.894531 C 215.820312 31.472656 215.679688 33.046875 215.398438 34.601562 C 215.222656 35.597656 215.011719 36.589844 214.585938 37.515625 C 214.460938 37.777344 214.308594 38.039062 214.121094 38.257812 C 213.78125 38.664062 213.410156 38.65625 213.054688 38.265625 C 212.734375 37.917969 212.554688 37.488281 212.394531 37.054688 C 212.0625 36.144531 211.851562 35.207031 211.71875 34.253906 C 211.570312 33.207031 211.441406 32.15625 211.363281 31.105469 C 211.28125 29.988281 211.265625 28.863281 211.210938 27.566406 Z M 211.210938 27.570312 " fill-opacity="1" fill-rule="nonzero"/><g clip-path="url(#id3)"><path fill="#4a86c5" d="M 83.316406 27.875 C 83.316406 12.484375 95.796875 0 111.191406 0 C 126.585938 0 139.066406 12.484375 139.066406 27.875 C 139.066406 43.269531 126.585938 55.75 111.191406 55.75 C 95.796875 55.75 83.316406 43.269531 83.316406 27.875 Z M 83.316406 27.875 " fill-opacity="1" fill-rule="nonzero"/></g><g clip-path="url(#id4)"><path fill="#3d80b2" d="M 130.898438 8.167969 C 141.785156 19.054688 141.785156 36.707031 130.898438 47.582031 C 120.011719 58.46875 102.359375 58.46875 91.484375 47.582031 Z M 130.898438 8.167969 " fill-opacity="1" fill-rule="nonzero"/></g><path fill="#4a86c5" d="M 137.742188 36.382812 C 137.84375 36.066406 137.933594 35.742188 138.023438 35.414062 C 137.933594 35.742188 137.84375 36.066406 137.742188 36.382812 " fill-opacity="1" fill-rule="nonzero"/><g clip-path="url(#id5)"><path fill="#377ca5" d="M 138.023438 35.414062 L 122.921875 20.3125 L 119.484375 23.753906 L 117.101562 21.359375 L 115.113281 23.347656 L 103.4375 11.675781 L 102.71875 11.394531 L 98.238281 15.875 L 103.640625 21.28125 L 98.347656 26.574219 L 103.515625 31.742188 L 97.867188 37.390625 L 115.84375 55.347656 C 126.191406 53.605469 134.605469 46.179688 137.742188 36.371094 C 137.84375 36.066406 137.933594 35.742188 138.023438 35.414062 " fill-opacity="1" fill-rule="nonzero"/></g><path fill="#ffffff" d="M 125.496094 27.113281 L 125.496094 37.449219 L 119.507812 37.449219 L 119.507812 27.808594 C 119.507812 25.382812 118.640625 23.730469 116.472656 23.730469 C 114.820312 23.730469 113.832031 24.84375 113.394531 25.921875 C 113.238281 26.300781 113.191406 26.84375 113.191406 27.382812 L 113.191406 37.449219 L 107.203125 37.449219 C 107.203125 37.449219 107.28125 21.113281 107.203125 19.425781 L 113.191406 19.425781 L 113.191406 21.976562 C 113.179688 22 113.167969 22.023438 113.15625 22.03125 L 113.191406 22.03125 L 113.191406 21.976562 C 113.988281 20.753906 115.40625 19 118.597656 19 C 122.539062 19 125.496094 21.574219 125.496094 27.113281 M 100.933594 10.730469 C 98.886719 10.730469 97.539062 12.078125 97.539062 13.84375 C 97.539062 15.574219 98.84375 16.953125 100.855469 16.953125 L 100.898438 16.953125 C 102.988281 16.953125 104.292969 15.574219 104.292969 13.84375 C 104.238281 12.078125 102.976562 10.730469 100.933594 10.730469 M 97.886719 37.449219 L 103.886719 37.449219 L 103.886719 19.425781 L 97.898438 19.425781 L 97.898438 37.449219 Z M 97.886719 37.449219 " fill-opacity="1" fill-rule="nonzero"/></svg>