<svg xmlns="http://www.w3.org/2000/svg" xmlns:xlink="http://www.w3.org/1999/xlink" width="200" zoomAndPan="magnify" viewBox="0 0 150 74.999997" height="100" preserveAspectRatio="xMidYMid meet" version="1.0"><defs><g/><clipPath id="id1"><path d="M 101 12 L 121 12 L 121 61.324219 L 101 61.324219 Z M 101 12 " clip-rule="nonzero"/></clipPath><clipPath id="id2"><path d="M 99.492188 10.324219 L 120 10.324219 L 120 60 L 99.492188 60 Z M 99.492188 10.324219 " clip-rule="nonzero"/></clipPath><clipPath id="id3"><path d="M 99.492188 10.324219 L 121.242188 10.324219 L 121.242188 61.324219 L 99.492188 61.324219 Z M 99.492188 10.324219 " clip-rule="nonzero"/></clipPath><clipPath id="id4"><path d="M 4 6 L 109.535156 6 L 109.535156 72 L 4 72 Z M 4 6 " clip-rule="nonzero"/></clipPath><clipPath id="id5"><path d="M 1.535156 3 L 108 3 L 108 71 L 1.535156 71 Z M 1.535156 3 " clip-rule="nonzero"/></clipPath><clipPath id="id6"><path d="M 1.535156 2.644531 L 109.535156 2.644531 L 109.535156 72.394531 L 1.535156 72.394531 Z M 1.535156 2.644531 " clip-rule="nonzero"/></clipPath></defs><g fill="#000000" fill-opacity="1"><g transform="translate(124.782525, 44.714941)"><g><path d="M 16.960938 0 L 11.605469 -15.792969 L 5.78125 -15.792969 L 0.449219 0 L 4.078125 0 L 5.375 -3.941406 L 12.03125 -3.941406 L 13.332031 0 Z M 8.246094 -12.65625 L 9.140625 -12.65625 L 10.976562 -7.078125 L 6.40625 -7.078125 Z M 8.246094 -12.65625 "/></g></g></g><g clip-path="url(#id1)"><path fill="#9aa7b2" d="M 120.285156 56.269531 C 120.285156 58.460938 118.375 60.242188 116.335938 60.242188 L 103.472656 60.242188 C 102.898438 60.242188 102.324219 60.113281 101.816406 59.894531 C 102.484375 60.59375 103.410156 61.003906 104.296875 61.003906 L 117.292969 61.003906 C 119.300781 61.003906 120.957031 59.351562 120.957031 57.351562 L 120.957031 15.378906 C 120.957031 14.457031 120.605469 13.632812 120.0625 12.996094 C 120.222656 13.410156 120.285156 13.855469 120.285156 14.300781 L 120.285156 56.269531 " fill-opacity="1" fill-rule="nonzero"/></g><g clip-path="url(#id2)"><path fill="#000000" d="M 103.472656 59.925781 L 116.273438 59.925781 C 118.28125 59.925781 119.9375 58.273438 119.9375 56.269531 L 119.9375 14.300781 C 119.9375 12.296875 118.28125 10.644531 116.273438 10.644531 L 103.472656 10.644531 C 101.464844 10.644531 99.808594 12.296875 99.808594 14.300781 L 99.808594 56.269531 C 99.808594 58.304688 101.464844 59.925781 103.472656 59.925781 " fill-opacity="1" fill-rule="nonzero"/></g><g clip-path="url(#id3)"><path fill="#77838d" d="M 119.648438 12.203125 C 118.949219 11.089844 117.707031 10.328125 116.273438 10.328125 L 103.472656 10.328125 C 101.273438 10.328125 99.492188 12.105469 99.492188 14.300781 L 99.492188 56.269531 C 99.492188 57.574219 100.128906 58.71875 101.082031 59.449219 C 101.785156 60.558594 103.027344 61.324219 104.308594 61.324219 L 117.261719 61.324219 C 119.457031 61.324219 121.242188 59.542969 121.242188 57.351562 L 121.242188 15.378906 C 121.242188 14.078125 120.605469 12.933594 119.648438 12.203125 M 99.808594 56.269531 L 99.808594 14.300781 C 99.808594 12.296875 101.464844 10.644531 103.472656 10.644531 L 116.273438 10.644531 C 118.28125 10.644531 119.9375 12.296875 119.9375 14.300781 L 119.9375 56.269531 C 119.9375 58.273438 118.28125 59.925781 116.273438 59.925781 L 103.472656 59.925781 C 101.464844 59.925781 99.808594 58.304688 99.808594 56.269531 M 120.957031 57.351562 C 120.957031 59.351562 119.265625 61.003906 117.261719 61.003906 L 104.308594 61.003906 C 103.441406 61.003906 102.515625 60.59375 101.847656 59.894531 C 102.359375 60.113281 102.898438 60.242188 103.503906 60.242188 L 116.304688 60.242188 C 118.503906 60.242188 120.285156 58.460938 120.285156 56.269531 L 120.285156 14.300781 C 120.285156 13.855469 120.191406 13.410156 120.0625 12.996094 C 120.605469 13.632812 120.957031 14.457031 120.957031 15.378906 L 120.957031 57.351562 " fill-opacity="1" fill-rule="nonzero"/></g><g clip-path="url(#id4)"><path fill="#9aa7b2" d="M 108.207031 65.375 C 108.207031 68.421875 105.558594 70.890625 102.730469 70.890625 L 7.0625 70.890625 C 6.265625 70.890625 5.472656 70.714844 4.765625 70.40625 C 5.691406 71.378906 6.972656 71.953125 8.703125 71.953125 L 104.054688 71.953125 C 106.839844 71.953125 109.136719 69.65625 109.136719 66.875 L 109.136719 9.660156 C 109.136719 8.382812 108.648438 7.234375 107.898438 6.351562 C 108.121094 6.925781 108.207031 7.542969 108.207031 8.160156 L 108.207031 65.375 " fill-opacity="1" fill-rule="nonzero"/></g><g clip-path="url(#id5)"><path fill="#ff914d" d="M 7.0625 70.449219 L 102.640625 70.449219 C 105.425781 70.449219 107.722656 68.15625 107.722656 65.375 L 107.722656 8.160156 C 107.722656 5.378906 105.425781 3.085938 102.640625 3.085938 L 7.0625 3.085938 C 4.28125 3.085938 1.980469 5.378906 1.980469 8.160156 L 1.980469 65.375 C 1.980469 68.199219 4.28125 70.449219 7.0625 70.449219 " fill-opacity="1" fill-rule="nonzero"/></g><g clip-path="url(#id6)"><path fill="#77838d" d="M 107.324219 5.246094 C 106.351562 3.703125 104.628906 2.644531 102.640625 2.644531 L 7.0625 2.644531 C 4.015625 2.644531 1.539062 5.113281 1.539062 8.160156 L 1.539062 65.375 C 1.539062 67.183594 2.425781 68.773438 3.75 69.789062 C 4.722656 71.332031 6.445312 72.394531 8.796875 72.394531 L 104.011719 72.394531 C 107.058594 72.394531 109.535156 69.921875 109.535156 66.875 L 109.535156 9.660156 C 109.535156 7.851562 108.648438 6.261719 107.324219 5.246094 M 1.980469 65.375 L 1.980469 8.160156 C 1.980469 5.378906 4.28125 3.085938 7.0625 3.085938 L 102.640625 3.085938 C 105.425781 3.085938 107.722656 5.378906 107.722656 8.160156 L 107.722656 65.375 C 107.722656 68.15625 105.425781 70.449219 102.640625 70.449219 L 7.0625 70.449219 C 4.28125 70.449219 1.980469 68.199219 1.980469 65.375 M 109.136719 66.875 C 109.136719 69.65625 106.792969 71.953125 104.011719 71.953125 L 8.796875 71.953125 C 7.019531 71.953125 5.738281 71.378906 4.808594 70.40625 C 5.515625 70.714844 6.265625 70.890625 7.105469 70.890625 L 102.6875 70.890625 C 105.734375 70.890625 108.207031 68.421875 108.207031 65.375 L 108.207031 8.160156 C 108.207031 7.542969 108.074219 6.925781 107.898438 6.351562 C 108.648438 7.234375 109.136719 8.382812 109.136719 9.660156 L 109.136719 66.875 " fill-opacity="1" fill-rule="nonzero"/></g><g fill="#000000" fill-opacity="1"><g transform="translate(13.324691, 30.319515)"><g><path d="M 0.71875 -5.082031 C 0.71875 -2.117188 2.707031 0.144531 5.933594 0.144531 C 8.769531 0.144531 10.640625 -1.410156 10.945312 -3.929688 L 8.640625 -3.929688 C 8.410156 -2.59375 7.34375 -1.871094 5.960938 -1.871094 C 4.191406 -1.871094 3.023438 -2.980469 3.023438 -5.082031 C 3.023438 -7.171875 4.191406 -8.28125 5.960938 -8.28125 C 7.34375 -8.28125 8.410156 -7.574219 8.640625 -6.234375 L 10.945312 -6.234375 C 10.640625 -8.742188 8.769531 -10.296875 5.933594 -10.296875 C 2.707031 -10.296875 0.71875 -8.035156 0.71875 -5.082031 Z M 0.71875 -5.082031 "/></g></g></g><g fill="#000000" fill-opacity="1"><g transform="translate(24.98107, 30.319515)"><g><path d="M 0.574219 -3.644531 C 0.574219 -1.09375 2.390625 0.144531 4.679688 0.144531 C 6.957031 0.144531 8.769531 -1.09375 8.769531 -3.644531 C 8.769531 -6.175781 6.957031 -7.414062 4.679688 -7.414062 C 2.390625 -7.414062 0.574219 -6.175781 0.574219 -3.644531 Z M 2.878906 -3.644531 C 2.878906 -4.851562 3.585938 -5.398438 4.679688 -5.398438 C 5.761719 -5.398438 6.464844 -4.851562 6.464844 -3.644531 C 6.464844 -2.417969 5.761719 -1.871094 4.679688 -1.871094 C 3.585938 -1.871094 2.878906 -2.417969 2.878906 -3.644531 Z M 2.878906 -3.644531 "/></g></g></g><g fill="#000000" fill-opacity="1"><g transform="translate(34.320558, 30.319515)"><g><path d="M 5.242188 -5.398438 C 6.351562 -5.398438 6.738281 -4.894531 6.738281 -3.570312 L 6.738281 0 L 9.042969 0 L 9.042969 -3.929688 C 9.042969 -6.175781 7.921875 -7.414062 6.0625 -7.414062 C 4.507812 -7.414062 3.601562 -6.394531 3.3125 -5.097656 L 2.734375 -5.097656 L 3.167969 -6.394531 L 3.167969 -7.273438 L 0.863281 -7.273438 L 0.863281 0 L 3.167969 0 L 3.167969 -2.691406 C 3.167969 -4.738281 3.988281 -5.398438 5.242188 -5.398438 Z M 5.242188 -5.398438 "/></g></g></g><g fill="#000000" fill-opacity="1"><g transform="translate(44.077378, 30.319515)"><g><path d="M 4.175781 -5.257812 L 6.566406 -5.257812 L 6.566406 -7.273438 L 4.175781 -7.273438 L 4.175781 -9.359375 L 1.871094 -8.640625 L 1.871094 -7.273438 L 0.144531 -7.273438 L 0.144531 -5.257812 L 1.871094 -5.257812 L 1.871094 -1.078125 C 1.871094 -0.289062 2.304688 0.171875 3.097656 0.144531 L 6.855469 0 L 6.855469 -2.015625 L 4.175781 -1.871094 Z M 4.175781 -5.257812 "/></g></g></g><g fill="#000000" fill-opacity="1"><g transform="translate(51.359013, 30.319515)"><g><path d="M 0.574219 -1.988281 C 0.574219 -1.238281 0.964844 0.144531 3.226562 0.144531 C 5.257812 0.144531 5.960938 -0.878906 6.234375 -2.089844 L 6.8125 -2.089844 L 6.453125 -1.222656 L 6.453125 -1.078125 C 6.453125 -0.390625 6.839844 0 7.53125 0 L 9.128906 0 L 9.128906 -2.015625 L 8.078125 -2.015625 L 8.078125 -4.0625 C 8.078125 -6.453125 6.320312 -7.414062 4.320312 -7.414062 C 2.289062 -7.414062 0.71875 -6.335938 0.71875 -4.492188 L 2.878906 -4.492188 C 2.878906 -5.15625 3.398438 -5.542969 4.320312 -5.542969 C 5.3125 -5.542969 5.773438 -5.183594 5.773438 -4.59375 L 3.484375 -4.277344 C 1.324219 -3.972656 0.574219 -3.238281 0.574219 -1.988281 Z M 2.878906 -2.417969 C 2.878906 -2.835938 3.226562 -2.9375 3.917969 -3.039062 L 5.773438 -3.296875 C 5.773438 -2.40625 4.9375 -1.871094 3.671875 -1.871094 C 3.28125 -1.871094 2.878906 -2 2.878906 -2.417969 Z M 2.878906 -2.417969 "/></g></g></g><g fill="#000000" fill-opacity="1"><g transform="translate(60.626552, 30.319515)"><g><path d="M 3.558594 -7.992188 C 4.40625 -7.992188 4.9375 -8.394531 4.9375 -9.144531 C 4.9375 -9.878906 4.40625 -10.296875 3.558594 -10.296875 C 2.707031 -10.296875 2.203125 -9.878906 2.203125 -9.144531 C 2.203125 -8.394531 2.707031 -7.992188 3.558594 -7.992188 Z M 6.910156 0 L 6.910156 -2.015625 L 4.851562 -2.015625 L 4.851562 -6.207031 C 4.851562 -7.011719 4.40625 -7.460938 3.601562 -7.414062 L 0.863281 -7.273438 L 0.863281 -5.257812 L 2.636719 -5.34375 L 2.636719 -2.015625 L 0.574219 -2.015625 L 0.574219 0 Z M 6.910156 0 "/></g></g></g><g fill="#000000" fill-opacity="1"><g transform="translate(67.821841, 30.319515)"><g><path d="M 5.242188 -5.398438 C 6.351562 -5.398438 6.738281 -4.894531 6.738281 -3.570312 L 6.738281 0 L 9.042969 0 L 9.042969 -3.929688 C 9.042969 -6.175781 7.921875 -7.414062 6.0625 -7.414062 C 4.507812 -7.414062 3.601562 -6.394531 3.3125 -5.097656 L 2.734375 -5.097656 L 3.167969 -6.394531 L 3.167969 -7.273438 L 0.863281 -7.273438 L 0.863281 0 L 3.167969 0 L 3.167969 -2.691406 C 3.167969 -4.738281 3.988281 -5.398438 5.242188 -5.398438 Z M 5.242188 -5.398438 "/></g></g></g><g fill="#000000" fill-opacity="1"><g transform="translate(77.578661, 30.319515)"><g><path d="M 0.574219 -3.730469 C 0.574219 -1.671875 1.859375 0.144531 4.652344 0.144531 C 7.171875 0.144531 8.367188 -1.511719 8.511719 -2.5625 L 6.207031 -2.5625 C 6.0625 -2.015625 5.457031 -1.726562 4.652344 -1.726562 C 3.339844 -1.726562 2.734375 -2.320312 2.734375 -3.152344 L 8.25 -3.152344 L 8.25 -3.875 C 8.25 -6.078125 6.667969 -7.414062 4.40625 -7.414062 C 2.144531 -7.414062 0.574219 -6.035156 0.574219 -3.730469 Z M 2.734375 -4.449219 C 2.734375 -4.996094 3.125 -5.542969 4.40625 -5.542969 C 5.6875 -5.542969 6.089844 -4.996094 6.089844 -4.449219 Z M 2.734375 -4.449219 "/></g></g></g><g fill="#000000" fill-opacity="1"><g transform="translate(86.659124, 30.319515)"><g><path d="M 3.167969 0 L 3.167969 -5.34375 L 6.867188 -5.257812 L 6.867188 -7.273438 L 2.101562 -7.386719 C 1.308594 -7.402344 0.863281 -6.96875 0.863281 -6.175781 L 0.863281 0 Z M 3.167969 0 "/></g></g></g><g fill="#000000" fill-opacity="1"><g transform="translate(18.504378, 49.819514)"><g><path d="M 9.804688 -2.792969 C 9.804688 -4.910156 6.941406 -5.71875 5.070312 -6.351562 C 3.441406 -6.898438 3.195312 -7.070312 3.195312 -7.53125 C 3.195312 -8.050781 3.84375 -8.28125 4.882812 -8.28125 C 6.132812 -8.28125 7.085938 -7.933594 7.085938 -6.695312 L 9.390625 -6.695312 C 9.390625 -8.710938 7.992188 -10.296875 4.882812 -10.296875 C 2.261719 -10.296875 0.894531 -9.34375 0.894531 -7.617188 C 0.894531 -5.628906 2.636719 -5.054688 4.78125 -4.335938 C 6.265625 -3.832031 7.503906 -3.5 7.503906 -2.765625 C 7.503906 -2.21875 7.011719 -1.871094 5.53125 -1.871094 C 3.511719 -1.871094 2.734375 -2.363281 2.734375 -3.917969 L 0.433594 -3.917969 C 0.433594 -1.355469 1.800781 0.144531 5.457031 0.144531 C 8.582031 0.144531 9.804688 -1.050781 9.804688 -2.792969 Z M 9.804688 -2.792969 "/></g></g></g><g fill="#000000" fill-opacity="1"><g transform="translate(28.736082, 49.819514)"><g><path d="M 4.523438 -1.871094 C 3.414062 -1.871094 3.023438 -2.375 3.023438 -3.699219 L 3.023438 -7.273438 L 0.71875 -7.273438 L 0.71875 -3.339844 C 0.71875 -1.09375 1.84375 0.144531 3.699219 0.144531 C 5.257812 0.144531 6.164062 -0.878906 6.453125 -2.175781 L 7.027344 -2.175781 L 6.59375 -0.878906 L 6.59375 0 L 8.898438 0 L 8.898438 -7.273438 L 6.59375 -7.273438 L 6.59375 -4.578125 C 6.59375 -2.535156 5.773438 -1.871094 4.523438 -1.871094 Z M 4.523438 -1.871094 "/></g></g></g><g fill="#000000" fill-opacity="1"><g transform="translate(38.348993, 49.819514)"><g><path d="M 0.863281 2.734375 L 3.167969 2.734375 L 3.167969 -0.445312 L 2.734375 -1.742188 L 3.3125 -1.742188 C 3.6875 -0.777344 4.378906 0.144531 6.175781 0.144531 C 8.28125 0.144531 9.332031 -1.570312 9.332031 -3.628906 C 9.332031 -5.6875 8.28125 -7.414062 6.175781 -7.414062 C 4.378906 -7.414062 3.6875 -6.496094 3.3125 -5.53125 L 2.734375 -5.53125 L 3.167969 -6.824219 L 3.167969 -7.273438 L 0.863281 -7.273438 Z M 3.167969 -3.628906 C 3.167969 -4.867188 3.859375 -5.398438 5.097656 -5.398438 C 6.335938 -5.398438 7.027344 -4.867188 7.027344 -3.628906 C 7.027344 -2.390625 6.335938 -1.871094 5.097656 -1.871094 C 3.859375 -1.871094 3.167969 -2.390625 3.167969 -3.628906 Z M 3.167969 -3.628906 "/></g></g></g><g fill="#000000" fill-opacity="1"><g transform="translate(48.249722, 49.819514)"><g><path d="M 0.863281 2.734375 L 3.167969 2.734375 L 3.167969 -0.445312 L 2.734375 -1.742188 L 3.3125 -1.742188 C 3.6875 -0.777344 4.378906 0.144531 6.175781 0.144531 C 8.28125 0.144531 9.332031 -1.570312 9.332031 -3.628906 C 9.332031 -5.6875 8.28125 -7.414062 6.175781 -7.414062 C 4.378906 -7.414062 3.6875 -6.496094 3.3125 -5.53125 L 2.734375 -5.53125 L 3.167969 -6.824219 L 3.167969 -7.273438 L 0.863281 -7.273438 Z M 3.167969 -3.628906 C 3.167969 -4.867188 3.859375 -5.398438 5.097656 -5.398438 C 6.335938 -5.398438 7.027344 -4.867188 7.027344 -3.628906 C 7.027344 -2.390625 6.335938 -1.871094 5.097656 -1.871094 C 3.859375 -1.871094 3.167969 -2.390625 3.167969 -3.628906 Z M 3.167969 -3.628906 "/></g></g></g><g fill="#000000" fill-opacity="1"><g transform="translate(58.150451, 49.819514)"><g><path d="M 6.769531 0 L 6.769531 -2.015625 L 4.753906 -2.015625 L 4.753906 -9.476562 C 4.753906 -10.28125 4.304688 -10.714844 3.5 -10.683594 L 0.71875 -10.585938 L 0.71875 -8.566406 L 2.449219 -8.65625 L 2.449219 -2.015625 L 0.433594 -2.015625 L 0.433594 0 Z M 6.769531 0 "/></g></g></g><g fill="#000000" fill-opacity="1"><g transform="translate(65.201842, 49.819514)"><g><path d="M 3.558594 -7.992188 C 4.40625 -7.992188 4.9375 -8.394531 4.9375 -9.144531 C 4.9375 -9.878906 4.40625 -10.296875 3.558594 -10.296875 C 2.707031 -10.296875 2.203125 -9.878906 2.203125 -9.144531 C 2.203125 -8.394531 2.707031 -7.992188 3.558594 -7.992188 Z M 6.910156 0 L 6.910156 -2.015625 L 4.851562 -2.015625 L 4.851562 -6.207031 C 4.851562 -7.011719 4.40625 -7.460938 3.601562 -7.414062 L 0.863281 -7.273438 L 0.863281 -5.257812 L 2.636719 -5.34375 L 2.636719 -2.015625 L 0.574219 -2.015625 L 0.574219 0 Z M 6.910156 0 "/></g></g></g><g fill="#000000" fill-opacity="1"><g transform="translate(72.397131, 49.819514)"><g><path d="M 0.574219 -3.730469 C 0.574219 -1.671875 1.859375 0.144531 4.652344 0.144531 C 7.171875 0.144531 8.367188 -1.511719 8.511719 -2.5625 L 6.207031 -2.5625 C 6.0625 -2.015625 5.457031 -1.726562 4.652344 -1.726562 C 3.339844 -1.726562 2.734375 -2.320312 2.734375 -3.152344 L 8.25 -3.152344 L 8.25 -3.875 C 8.25 -6.078125 6.667969 -7.414062 4.40625 -7.414062 C 2.144531 -7.414062 0.574219 -6.035156 0.574219 -3.730469 Z M 2.734375 -4.449219 C 2.734375 -4.996094 3.125 -5.542969 4.40625 -5.542969 C 5.6875 -5.542969 6.089844 -4.996094 6.089844 -4.449219 Z M 2.734375 -4.449219 "/></g></g></g><g fill="#000000" fill-opacity="1"><g transform="translate(81.477594, 49.819514)"><g><path d="M 3.167969 0 L 3.167969 -5.34375 L 6.867188 -5.257812 L 6.867188 -7.273438 L 2.101562 -7.386719 C 1.308594 -7.402344 0.863281 -6.96875 0.863281 -6.175781 L 0.863281 0 Z M 3.167969 0 "/></g></g></g></svg>