<svg xmlns="http://www.w3.org/2000/svg" xmlns:xlink="http://www.w3.org/1999/xlink" width="350" zoomAndPan="magnify" viewBox="0 0 262.5 67.499998" height="90" preserveAspectRatio="xMidYMid meet" version="1.0"><defs><g/><clipPath id="id1"><path d="M 68 26 L 85 26 L 85 43.414062 L 68 43.414062 Z M 68 26 " clip-rule="nonzero"/></clipPath><clipPath id="id2"><path d="M 66.453125 24.019531 L 84 24.019531 L 84 43 L 66.453125 43 Z M 66.453125 24.019531 " clip-rule="nonzero"/></clipPath><clipPath id="id3"><path d="M 66.453125 24.019531 L 85.097656 24.019531 L 85.097656 43.414062 L 66.453125 43.414062 Z M 66.453125 24.019531 " clip-rule="nonzero"/></clipPath><clipPath id="id4"><path d="M 162 26 L 178.882812 26 L 178.882812 43.414062 L 162 43.414062 Z M 162 26 " clip-rule="nonzero"/></clipPath><clipPath id="id5"><path d="M 160.234375 24.019531 L 178 24.019531 L 178 43 L 160.234375 43 Z M 160.234375 24.019531 " clip-rule="nonzero"/></clipPath><clipPath id="id6"><path d="M 160.234375 24.019531 L 178.882812 24.019531 L 178.882812 43.414062 L 160.234375 43.414062 Z M 160.234375 24.019531 " clip-rule="nonzero"/></clipPath><clipPath id="id7"><path d="M 78 6 L 169.820312 6 L 169.820312 63.671875 L 78 63.671875 Z M 78 6 " clip-rule="nonzero"/></clipPath><clipPath id="id8"><path d="M 76 3.253906 L 169 3.253906 L 169 62 L 76 62 Z M 76 3.253906 " clip-rule="nonzero"/></clipPath><clipPath id="id9"><path d="M 75.839844 3.253906 L 169.820312 3.253906 L 169.820312 63.671875 L 75.839844 63.671875 Z M 75.839844 3.253906 " clip-rule="nonzero"/></clipPath></defs><g clip-path="url(#id1)"><path fill="#9aa7b2" d="M 84.28125 38.972656 C 84.28125 40.898438 82.640625 42.460938 80.894531 42.460938 L 69.863281 42.460938 C 69.371094 42.460938 68.882812 42.347656 68.445312 42.152344 C 69.019531 42.765625 69.808594 43.128906 70.574219 43.128906 L 81.714844 43.128906 C 83.433594 43.128906 84.851562 41.679688 84.851562 39.921875 L 84.851562 28.460938 C 84.851562 27.652344 84.554688 26.925781 84.089844 26.371094 C 84.226562 26.730469 84.28125 27.121094 84.28125 27.511719 L 84.28125 38.972656 " fill-opacity="1" fill-rule="nonzero"/></g><g clip-path="url(#id2)"><path fill="#000000" d="M 69.863281 42.179688 L 80.839844 42.179688 C 82.558594 42.179688 83.980469 40.730469 83.980469 38.972656 L 83.980469 27.511719 C 83.980469 25.753906 82.558594 24.304688 80.839844 24.304688 L 69.863281 24.304688 C 68.144531 24.304688 66.722656 25.753906 66.722656 27.511719 L 66.722656 38.972656 C 66.722656 40.757812 68.144531 42.179688 69.863281 42.179688 " fill-opacity="1" fill-rule="nonzero"/></g><g clip-path="url(#id3)"><path fill="#77838d" d="M 83.734375 25.671875 C 83.132812 24.695312 82.070312 24.023438 80.839844 24.023438 L 69.863281 24.023438 C 67.980469 24.023438 66.453125 25.585938 66.453125 27.511719 L 66.453125 38.972656 C 66.453125 40.117188 66.996094 41.121094 67.816406 41.761719 C 68.417969 42.738281 69.480469 43.410156 70.582031 43.410156 L 81.6875 43.410156 C 83.570312 43.410156 85.097656 41.847656 85.097656 39.921875 L 85.097656 28.460938 C 85.097656 27.316406 84.554688 26.3125 83.734375 25.671875 M 66.722656 38.972656 L 66.722656 27.511719 C 66.722656 25.753906 68.144531 24.304688 69.863281 24.304688 L 80.839844 24.304688 C 82.558594 24.304688 83.980469 25.753906 83.980469 27.511719 L 83.980469 38.972656 C 83.980469 40.730469 82.558594 42.179688 80.839844 42.179688 L 69.863281 42.179688 C 68.144531 42.179688 66.722656 40.757812 66.722656 38.972656 M 84.851562 39.921875 C 84.851562 41.679688 83.40625 43.128906 81.6875 43.128906 L 70.582031 43.128906 C 69.835938 43.128906 69.046875 42.765625 68.472656 42.152344 C 68.910156 42.347656 69.371094 42.460938 69.890625 42.460938 L 80.867188 42.460938 C 82.75 42.460938 84.28125 40.898438 84.28125 38.972656 L 84.28125 27.511719 C 84.28125 27.121094 84.199219 26.730469 84.089844 26.371094 C 84.554688 26.925781 84.851562 27.652344 84.851562 28.460938 L 84.851562 39.921875 " fill-opacity="1" fill-rule="nonzero"/></g><g clip-path="url(#id4)"><path fill="#9aa7b2" d="M 178.0625 38.972656 C 178.0625 40.898438 176.425781 42.460938 174.679688 42.460938 L 163.648438 42.460938 C 163.15625 42.460938 162.664062 42.347656 162.226562 42.152344 C 162.800781 42.765625 163.59375 43.128906 164.355469 43.128906 L 175.496094 43.128906 C 177.21875 43.128906 178.636719 41.679688 178.636719 39.921875 L 178.636719 28.460938 C 178.636719 27.652344 178.335938 26.925781 177.871094 26.371094 C 178.007812 26.730469 178.0625 27.121094 178.0625 27.511719 L 178.0625 38.972656 " fill-opacity="1" fill-rule="nonzero"/></g><g clip-path="url(#id5)"><path fill="#000000" d="M 163.648438 42.179688 L 174.625 42.179688 C 176.34375 42.179688 177.761719 40.730469 177.761719 38.972656 L 177.761719 27.511719 C 177.761719 25.753906 176.34375 24.304688 174.625 24.304688 L 163.648438 24.304688 C 161.929688 24.304688 160.507812 25.753906 160.507812 27.511719 L 160.507812 38.972656 C 160.507812 40.757812 161.929688 42.179688 163.648438 42.179688 " fill-opacity="1" fill-rule="nonzero"/></g><g clip-path="url(#id6)"><path fill="#77838d" d="M 177.519531 25.671875 C 176.917969 24.695312 175.851562 24.023438 174.625 24.023438 L 163.648438 24.023438 C 161.765625 24.023438 160.234375 25.585938 160.234375 27.511719 L 160.234375 38.972656 C 160.234375 40.117188 160.78125 41.121094 161.601562 41.761719 C 162.199219 42.738281 163.265625 43.410156 164.367188 43.410156 L 175.46875 43.410156 C 177.355469 43.410156 178.882812 41.847656 178.882812 39.921875 L 178.882812 28.460938 C 178.882812 27.316406 178.335938 26.3125 177.519531 25.671875 M 160.507812 38.972656 L 160.507812 27.511719 C 160.507812 25.753906 161.929688 24.304688 163.648438 24.304688 L 174.625 24.304688 C 176.34375 24.304688 177.761719 25.753906 177.761719 27.511719 L 177.761719 38.972656 C 177.761719 40.730469 176.34375 42.179688 174.625 42.179688 L 163.648438 42.179688 C 161.929688 42.179688 160.507812 40.757812 160.507812 38.972656 M 178.636719 39.921875 C 178.636719 41.679688 177.191406 43.128906 175.46875 43.128906 L 164.367188 43.128906 C 163.621094 43.128906 162.828125 42.765625 162.253906 42.152344 C 162.691406 42.347656 163.15625 42.460938 163.675781 42.460938 L 174.652344 42.460938 C 176.535156 42.460938 178.0625 40.898438 178.0625 38.972656 L 178.0625 27.511719 C 178.0625 27.121094 177.980469 26.730469 177.871094 26.371094 C 178.335938 26.925781 178.636719 27.652344 178.636719 28.460938 L 178.636719 39.921875 " fill-opacity="1" fill-rule="nonzero"/></g><g clip-path="url(#id7)"><path fill="#9aa7b2" d="M 168.667969 57.59375 C 168.667969 60.230469 166.359375 62.371094 163.898438 62.371094 L 80.644531 62.371094 C 79.953125 62.371094 79.261719 62.21875 78.644531 61.953125 C 79.453125 62.792969 80.566406 63.289062 82.074219 63.289062 L 165.054688 63.289062 C 167.476562 63.289062 169.476562 61.300781 169.476562 58.894531 L 169.476562 9.332031 C 169.476562 8.222656 169.050781 7.230469 168.398438 6.464844 C 168.589844 6.960938 168.667969 7.496094 168.667969 8.03125 L 168.667969 57.59375 " fill-opacity="1" fill-rule="nonzero"/></g><g clip-path="url(#id8)"><path fill="#6048c1" d="M 80.644531 61.988281 L 163.824219 61.988281 C 166.246094 61.988281 168.246094 60 168.246094 57.59375 L 168.246094 8.03125 C 168.246094 5.625 166.246094 3.636719 163.824219 3.636719 L 80.644531 3.636719 C 78.222656 3.636719 76.222656 5.625 76.222656 8.03125 L 76.222656 57.59375 C 76.222656 60.039062 78.222656 61.988281 80.644531 61.988281 " fill-opacity="1" fill-rule="nonzero"/></g><g clip-path="url(#id9)"><path fill="#77838d" d="M 167.898438 5.507812 C 167.054688 4.171875 165.554688 3.253906 163.824219 3.253906 L 80.644531 3.253906 C 77.992188 3.253906 75.839844 5.394531 75.839844 8.03125 L 75.839844 57.59375 C 75.839844 59.160156 76.609375 60.535156 77.761719 61.417969 C 78.605469 62.753906 80.105469 63.671875 82.15625 63.671875 L 165.015625 63.671875 C 167.667969 63.671875 169.820312 61.53125 169.820312 58.894531 L 169.820312 9.332031 C 169.820312 7.765625 169.050781 6.390625 167.898438 5.507812 M 76.222656 57.59375 L 76.222656 8.03125 C 76.222656 5.625 78.222656 3.636719 80.644531 3.636719 L 163.824219 3.636719 C 166.246094 3.636719 168.246094 5.625 168.246094 8.03125 L 168.246094 57.59375 C 168.246094 60 166.246094 61.988281 163.824219 61.988281 L 80.644531 61.988281 C 78.222656 61.988281 76.222656 60.039062 76.222656 57.59375 M 169.476562 58.894531 C 169.476562 61.300781 167.4375 63.289062 165.015625 63.289062 L 82.15625 63.289062 C 80.605469 63.289062 79.492188 62.792969 78.683594 61.953125 C 79.300781 62.21875 79.953125 62.371094 80.683594 62.371094 L 163.863281 62.371094 C 166.515625 62.371094 168.667969 60.230469 168.667969 57.59375 L 168.667969 8.03125 C 168.667969 7.496094 168.550781 6.960938 168.398438 6.464844 C 169.050781 7.230469 169.476562 8.222656 169.476562 9.332031 L 169.476562 58.894531 " fill-opacity="1" fill-rule="nonzero"/></g><g fill="#000000" fill-opacity="1"><g transform="translate(83.219004, 37.378902)"><g><path d="M 3.925781 0 L 7.886719 0 L 11.523438 -10.730469 L 9.058594 -10.730469 L 6.210938 -2.132812 L 5.601562 -2.132812 L 2.769531 -10.730469 L 0.304688 -10.730469 Z M 3.925781 0 "/></g></g></g><g fill="#000000" fill-opacity="1"><g transform="translate(95.046342, 37.378902)"><g/></g></g><g fill="#000000" fill-opacity="1"><g transform="translate(99.308451, 37.378902)"><g><path d="M 7.886719 -2.132812 L 7.277344 -2.132812 L 5.707031 -10.730469 L 0.914062 -10.730469 L 0.914062 0 L 3.347656 0 L 3.347656 -8.601562 L 3.730469 -8.601562 L 5.375 0 L 9.789062 0 L 11.429688 -8.601562 L 11.8125 -8.601562 L 11.8125 0 L 14.246094 0 L 14.246094 -10.730469 L 9.453125 -10.730469 Z M 7.886719 -2.132812 "/></g></g></g><g fill="#000000" fill-opacity="1"><g transform="translate(114.469364, 37.378902)"><g><path d="M 0.609375 -2.101562 C 0.609375 -1.308594 1.019531 0.152344 3.410156 0.152344 C 5.554688 0.152344 6.300781 -0.929688 6.589844 -2.207031 L 7.199219 -2.207031 L 6.820312 -1.292969 L 6.820312 -1.140625 C 6.820312 -0.410156 7.230469 0 7.960938 0 L 9.652344 0 L 9.652344 -2.132812 L 8.539062 -2.132812 L 8.539062 -4.292969 C 8.539062 -6.820312 6.683594 -7.839844 4.566406 -7.839844 C 2.421875 -7.839844 0.761719 -6.699219 0.761719 -4.75 L 3.042969 -4.75 C 3.042969 -5.449219 3.59375 -5.859375 4.566406 -5.859375 C 5.617188 -5.859375 6.105469 -5.480469 6.105469 -4.855469 L 3.683594 -4.519531 C 1.402344 -4.203125 0.609375 -3.425781 0.609375 -2.101562 Z M 3.042969 -2.558594 C 3.042969 -3 3.410156 -3.105469 4.140625 -3.210938 L 6.105469 -3.484375 C 6.105469 -2.542969 5.222656 -1.980469 3.882812 -1.980469 C 3.46875 -1.980469 3.042969 -2.117188 3.042969 -2.558594 Z M 3.042969 -2.558594 "/></g></g></g><g fill="#000000" fill-opacity="1"><g transform="translate(124.272207, 37.378902)"><g><path d="M 0.914062 2.890625 L 3.347656 2.890625 L 3.347656 -0.472656 L 2.890625 -1.84375 L 3.5 -1.84375 C 3.898438 -0.820312 4.628906 0.152344 6.53125 0.152344 C 8.753906 0.152344 9.863281 -1.660156 9.863281 -3.835938 C 9.863281 -6.011719 8.753906 -7.839844 6.53125 -7.839844 C 4.628906 -7.839844 3.898438 -6.863281 3.5 -5.84375 L 2.890625 -5.84375 L 3.347656 -7.214844 L 3.347656 -7.6875 L 0.914062 -7.6875 Z M 3.347656 -3.835938 C 3.347656 -5.144531 4.078125 -5.707031 5.386719 -5.707031 C 6.699219 -5.707031 7.429688 -5.144531 7.429688 -3.835938 C 7.429688 -2.527344 6.699219 -1.980469 5.386719 -1.980469 C 4.078125 -1.980469 3.347656 -2.527344 3.347656 -3.835938 Z M 3.347656 -3.835938 "/></g></g></g><g fill="#000000" fill-opacity="1"><g transform="translate(134.744806, 37.378902)"><g><path d="M 0.914062 2.890625 L 3.347656 2.890625 L 3.347656 -0.472656 L 2.890625 -1.84375 L 3.5 -1.84375 C 3.898438 -0.820312 4.628906 0.152344 6.53125 0.152344 C 8.753906 0.152344 9.863281 -1.660156 9.863281 -3.835938 C 9.863281 -6.011719 8.753906 -7.839844 6.53125 -7.839844 C 4.628906 -7.839844 3.898438 -6.863281 3.5 -5.84375 L 2.890625 -5.84375 L 3.347656 -7.214844 L 3.347656 -7.6875 L 0.914062 -7.6875 Z M 3.347656 -3.835938 C 3.347656 -5.144531 4.078125 -5.707031 5.386719 -5.707031 C 6.699219 -5.707031 7.429688 -5.144531 7.429688 -3.835938 C 7.429688 -2.527344 6.699219 -1.980469 5.386719 -1.980469 C 4.078125 -1.980469 3.347656 -2.527344 3.347656 -3.835938 Z M 3.347656 -3.835938 "/></g></g></g><g fill="#000000" fill-opacity="1"><g transform="translate(145.217404, 37.378902)"><g><path d="M 0.609375 -3.941406 C 0.609375 -1.765625 1.964844 0.152344 4.917969 0.152344 C 7.582031 0.152344 8.84375 -1.597656 8.996094 -2.710938 L 6.5625 -2.710938 C 6.410156 -2.132812 5.769531 -1.828125 4.917969 -1.828125 C 3.53125 -1.828125 2.890625 -2.449219 2.890625 -3.332031 L 8.722656 -3.332031 L 8.722656 -4.09375 C 8.722656 -6.421875 7.046875 -7.839844 4.65625 -7.839844 C 2.269531 -7.839844 0.609375 -6.378906 0.609375 -3.941406 Z M 2.890625 -4.703125 C 2.890625 -5.28125 3.304688 -5.859375 4.65625 -5.859375 C 6.011719 -5.859375 6.4375 -5.28125 6.4375 -4.703125 Z M 2.890625 -4.703125 "/></g></g></g><g fill="#000000" fill-opacity="1"><g transform="translate(154.822367, 37.378902)"><g><path d="M 3.347656 0 L 3.347656 -5.648438 L 7.261719 -5.554688 L 7.261719 -7.6875 L 2.222656 -7.808594 C 1.386719 -7.824219 0.914062 -7.367188 0.914062 -6.53125 L 0.914062 0 Z M 3.347656 0 "/></g></g></g><g fill="#000000" fill-opacity="1"><g transform="translate(4.88082, 37.831425)"><g><path d="M 2.09375 -6.65625 C 2.09375 -7.480469 2.488281 -7.949219 3.511719 -7.949219 C 4.152344 -7.949219 4.621094 -7.714844 4.621094 -7.148438 C 4.621094 -6.0625 3.03125 -5.671875 1.28125 -5.632812 L 1.28125 -3.191406 L 5.523438 -3.191406 L 5.523438 -4.425781 L 2.710938 -4.425781 L 1.773438 -4.09375 L 1.773438 -4.511719 C 3.734375 -4.722656 6.101562 -5.226562 6.101562 -7.199219 C 6.101562 -8.121094 5.460938 -9.183594 3.539062 -9.183594 C 1.453125 -9.183594 0.617188 -8.035156 0.617188 -6.65625 Z M 3.390625 0.125 C 4.203125 0.125 4.757812 -0.46875 4.757812 -1.246094 C 4.757812 -1.996094 4.203125 -2.589844 3.390625 -2.589844 C 2.550781 -2.589844 2.046875 -1.996094 2.046875 -1.246094 C 2.046875 -0.46875 2.550781 0.125 3.390625 0.125 Z M 3.390625 0.125 "/></g></g></g><g fill="#000000" fill-opacity="1"><g transform="translate(11.595929, 37.831425)"><g/></g></g><g fill="#000000" fill-opacity="1"><g transform="translate(15.045898, 37.831425)"><g><path d="M 6.546875 -1.714844 C 6.546875 -3.007812 5.4375 -3.316406 4.226562 -3.710938 C 3.242188 -4.03125 2.625 -4.214844 2.625 -4.511719 C 2.625 -4.757812 2.882812 -4.867188 3.351562 -4.867188 C 4.03125 -4.867188 4.363281 -4.535156 4.363281 -4.09375 L 6.335938 -4.09375 C 6.335938 -5.300781 5.472656 -6.347656 3.363281 -6.347656 C 1.652344 -6.347656 0.652344 -5.707031 0.652344 -4.597656 C 0.652344 -3.203125 2.070312 -2.898438 3.230469 -2.515625 C 4.226562 -2.183594 4.574219 -2.09375 4.574219 -1.773438 C 4.574219 -1.480469 4.238281 -1.355469 3.710938 -1.355469 C 2.675781 -1.355469 2.34375 -1.773438 2.34375 -2.253906 L 0.371094 -2.253906 C 0.371094 -0.800781 1.355469 0.125 3.648438 0.125 C 5.792969 0.125 6.546875 -0.664062 6.546875 -1.714844 Z M 6.546875 -1.714844 "/></g></g></g><g fill="#000000" fill-opacity="1"><g transform="translate(21.834935, 37.831425)"><g><path d="M 3.871094 -1.601562 C 2.921875 -1.601562 2.589844 -2.035156 2.589844 -3.167969 L 2.589844 -6.226562 L 0.617188 -6.226562 L 0.617188 -2.859375 C 0.617188 -0.9375 1.578125 0.125 3.167969 0.125 C 4.5 0.125 5.277344 -0.75 5.523438 -1.859375 L 6.015625 -1.859375 L 5.644531 -0.75 L 5.644531 0 L 7.617188 0 L 7.617188 -6.226562 L 5.644531 -6.226562 L 5.644531 -3.917969 C 5.644531 -2.167969 4.941406 -1.601562 3.871094 -1.601562 Z M 3.871094 -1.601562 "/></g></g></g><g fill="#000000" fill-opacity="1"><g transform="translate(30.065569, 37.831425)"><g><path d="M 0.738281 2.34375 L 2.710938 2.34375 L 2.710938 -0.382812 L 2.34375 -1.492188 L 2.835938 -1.492188 C 3.15625 -0.664062 3.746094 0.125 5.289062 0.125 C 7.085938 0.125 7.988281 -1.34375 7.988281 -3.105469 C 7.988281 -4.867188 7.085938 -6.347656 5.289062 -6.347656 C 3.746094 -6.347656 3.15625 -5.558594 2.835938 -4.734375 L 2.34375 -4.734375 L 2.710938 -5.84375 L 2.710938 -6.226562 L 0.738281 -6.226562 Z M 2.710938 -3.105469 C 2.710938 -4.167969 3.304688 -4.621094 4.363281 -4.621094 C 5.421875 -4.621094 6.015625 -4.167969 6.015625 -3.105469 C 6.015625 -2.046875 5.421875 -1.601562 4.363281 -1.601562 C 3.304688 -1.601562 2.710938 -2.046875 2.710938 -3.105469 Z M 2.710938 -3.105469 "/></g></g></g><g fill="#000000" fill-opacity="1"><g transform="translate(38.542621, 37.831425)"><g><path d="M 0.492188 -3.191406 C 0.492188 -1.429688 1.589844 0.125 3.980469 0.125 C 6.136719 0.125 7.160156 -1.292969 7.285156 -2.195312 L 5.3125 -2.195312 C 5.1875 -1.726562 4.671875 -1.480469 3.980469 -1.480469 C 2.859375 -1.480469 2.34375 -1.984375 2.34375 -2.699219 L 7.0625 -2.699219 L 7.0625 -3.316406 C 7.0625 -5.203125 5.707031 -6.347656 3.773438 -6.347656 C 1.835938 -6.347656 0.492188 -5.164062 0.492188 -3.191406 Z M 2.34375 -3.808594 C 2.34375 -4.277344 2.675781 -4.746094 3.773438 -4.746094 C 4.867188 -4.746094 5.214844 -4.277344 5.214844 -3.808594 Z M 2.34375 -3.808594 "/></g></g></g><g fill="#000000" fill-opacity="1"><g transform="translate(46.317366, 37.831425)"><g><path d="M 2.710938 0 L 2.710938 -4.574219 L 5.878906 -4.5 L 5.878906 -6.226562 L 1.800781 -6.324219 C 1.121094 -6.335938 0.738281 -5.964844 0.738281 -5.289062 L 0.738281 0 Z M 2.710938 0 "/></g></g></g><g fill="#000000" fill-opacity="1"><g transform="translate(52.317841, 37.831425)"><g/></g></g><g fill="#000000" fill-opacity="1"><g transform="translate(55.767809, 37.831425)"><g><path d="M 0.371094 -8.691406 L 0.371094 -6.964844 L 3.21875 -6.964844 L 3.21875 0 L 5.1875 0 L 5.1875 -6.964844 L 8.023438 -6.964844 L 8.023438 -8.691406 Z M 0.371094 -8.691406 "/></g></g></g><g fill="#000000" fill-opacity="1"><g transform="translate(182.013084, 37.831425)"><g><path d="M 2.09375 -6.65625 C 2.09375 -7.480469 2.488281 -7.949219 3.511719 -7.949219 C 4.152344 -7.949219 4.621094 -7.714844 4.621094 -7.148438 C 4.621094 -6.0625 3.03125 -5.671875 1.28125 -5.632812 L 1.28125 -3.191406 L 5.523438 -3.191406 L 5.523438 -4.425781 L 2.710938 -4.425781 L 1.773438 -4.09375 L 1.773438 -4.511719 C 3.734375 -4.722656 6.101562 -5.226562 6.101562 -7.199219 C 6.101562 -8.121094 5.460938 -9.183594 3.539062 -9.183594 C 1.453125 -9.183594 0.617188 -8.035156 0.617188 -6.65625 Z M 3.390625 0.125 C 4.203125 0.125 4.757812 -0.46875 4.757812 -1.246094 C 4.757812 -1.996094 4.203125 -2.589844 3.390625 -2.589844 C 2.550781 -2.589844 2.046875 -1.996094 2.046875 -1.246094 C 2.046875 -0.46875 2.550781 0.125 3.390625 0.125 Z M 3.390625 0.125 "/></g></g></g><g fill="#000000" fill-opacity="1"><g transform="translate(188.728193, 37.831425)"><g/></g></g><g fill="#000000" fill-opacity="1"><g transform="translate(192.178161, 37.831425)"><g><path d="M 0.492188 -3.191406 C 0.492188 -1.429688 1.589844 0.125 3.980469 0.125 C 6.136719 0.125 7.160156 -1.292969 7.285156 -2.195312 L 5.3125 -2.195312 C 5.1875 -1.726562 4.671875 -1.480469 3.980469 -1.480469 C 2.859375 -1.480469 2.34375 -1.984375 2.34375 -2.699219 L 7.0625 -2.699219 L 7.0625 -3.316406 C 7.0625 -5.203125 5.707031 -6.347656 3.773438 -6.347656 C 1.835938 -6.347656 0.492188 -5.164062 0.492188 -3.191406 Z M 2.34375 -3.808594 C 2.34375 -4.277344 2.675781 -4.746094 3.773438 -4.746094 C 4.867188 -4.746094 5.214844 -4.277344 5.214844 -3.808594 Z M 2.34375 -3.808594 "/></g></g></g><g fill="#000000" fill-opacity="1"><g transform="translate(199.952906, 37.831425)"><g><path d="M 2.710938 0 L 4.152344 -2.007812 L 5.597656 0 L 7.9375 0 L 5.570312 -2.871094 L 5.570312 -3.363281 L 7.9375 -6.226562 L 5.597656 -6.226562 L 4.152344 -4.226562 L 2.710938 -6.226562 L 0.371094 -6.226562 L 2.738281 -3.363281 L 2.738281 -2.871094 L 0.371094 0 Z M 2.710938 0 "/></g></g></g><g fill="#000000" fill-opacity="1"><g transform="translate(208.257457, 37.831425)"><g><path d="M 3.574219 -4.5 L 5.621094 -4.5 L 5.621094 -6.226562 L 3.574219 -6.226562 L 3.574219 -8.011719 L 1.601562 -7.394531 L 1.601562 -6.226562 L 0.125 -6.226562 L 0.125 -4.5 L 1.601562 -4.5 L 1.601562 -0.925781 C 1.601562 -0.246094 1.972656 0.148438 2.648438 0.125 L 5.867188 0 L 5.867188 -1.726562 L 3.574219 -1.601562 Z M 3.574219 -4.5 "/></g></g></g><g fill="#000000" fill-opacity="1"><g transform="translate(214.492034, 37.831425)"><g><path d="M 0.492188 -3.191406 C 0.492188 -1.429688 1.589844 0.125 3.980469 0.125 C 6.136719 0.125 7.160156 -1.292969 7.285156 -2.195312 L 5.3125 -2.195312 C 5.1875 -1.726562 4.671875 -1.480469 3.980469 -1.480469 C 2.859375 -1.480469 2.34375 -1.984375 2.34375 -2.699219 L 7.0625 -2.699219 L 7.0625 -3.316406 C 7.0625 -5.203125 5.707031 -6.347656 3.773438 -6.347656 C 1.835938 -6.347656 0.492188 -5.164062 0.492188 -3.191406 Z M 2.34375 -3.808594 C 2.34375 -4.277344 2.675781 -4.746094 3.773438 -4.746094 C 4.867188 -4.746094 5.214844 -4.277344 5.214844 -3.808594 Z M 2.34375 -3.808594 "/></g></g></g><g fill="#000000" fill-opacity="1"><g transform="translate(222.266779, 37.831425)"><g><path d="M 4.488281 -4.621094 C 5.4375 -4.621094 5.769531 -4.191406 5.769531 -3.058594 L 5.769531 0 L 7.742188 0 L 7.742188 -3.363281 C 7.742188 -5.289062 6.777344 -6.347656 5.1875 -6.347656 C 3.859375 -6.347656 3.082031 -5.472656 2.835938 -4.363281 L 2.34375 -4.363281 L 2.710938 -5.472656 L 2.710938 -6.226562 L 0.738281 -6.226562 L 0.738281 0 L 2.710938 0 L 2.710938 -2.304688 C 2.710938 -4.054688 3.414062 -4.621094 4.488281 -4.621094 Z M 4.488281 -4.621094 "/></g></g></g><g fill="#000000" fill-opacity="1"><g transform="translate(230.620616, 37.831425)"><g><path d="M 7.742188 -9.058594 L 5.769531 -9.058594 L 5.769531 -5.84375 L 6.136719 -4.734375 L 5.644531 -4.734375 C 5.324219 -5.558594 4.734375 -6.347656 3.191406 -6.347656 C 1.394531 -6.347656 0.492188 -4.882812 0.492188 -3.117188 C 0.492188 -1.355469 1.394531 0.125 3.191406 0.125 C 4.734375 0.125 5.324219 -0.664062 5.644531 -1.492188 L 6.136719 -1.492188 L 5.769531 -0.382812 L 5.769531 0 L 7.742188 0 Z M 5.769531 -3.117188 C 5.769531 -2.070312 5.175781 -1.601562 4.117188 -1.601562 C 3.058594 -1.601562 2.464844 -2.070312 2.464844 -3.117188 C 2.464844 -4.167969 3.058594 -4.621094 4.117188 -4.621094 C 5.175781 -4.621094 5.769531 -4.167969 5.769531 -3.117188 Z M 5.769531 -3.117188 "/></g></g></g><g fill="#000000" fill-opacity="1"><g transform="translate(239.097668, 37.831425)"><g><path d="M 6.546875 -1.714844 C 6.546875 -3.007812 5.4375 -3.316406 4.226562 -3.710938 C 3.242188 -4.03125 2.625 -4.214844 2.625 -4.511719 C 2.625 -4.757812 2.882812 -4.867188 3.351562 -4.867188 C 4.03125 -4.867188 4.363281 -4.535156 4.363281 -4.09375 L 6.335938 -4.09375 C 6.335938 -5.300781 5.472656 -6.347656 3.363281 -6.347656 C 1.652344 -6.347656 0.652344 -5.707031 0.652344 -4.597656 C 0.652344 -3.203125 2.070312 -2.898438 3.230469 -2.515625 C 4.226562 -2.183594 4.574219 -2.09375 4.574219 -1.773438 C 4.574219 -1.480469 4.238281 -1.355469 3.710938 -1.355469 C 2.675781 -1.355469 2.34375 -1.773438 2.34375 -2.253906 L 0.371094 -2.253906 C 0.371094 -0.800781 1.355469 0.125 3.648438 0.125 C 5.792969 0.125 6.546875 -0.664062 6.546875 -1.714844 Z M 6.546875 -1.714844 "/></g></g></g><g fill="#000000" fill-opacity="1"><g transform="translate(245.886706, 37.831425)"><g/></g></g><g fill="#000000" fill-opacity="1"><g transform="translate(249.336674, 37.831425)"><g><path d="M 0.492188 -3.230469 C 0.492188 -1.058594 1.835938 0.125 4.414062 0.125 C 6.988281 0.125 8.34375 -1.058594 8.34375 -3.230469 L 8.34375 -8.691406 L 6.371094 -8.691406 L 6.371094 -4.105469 C 6.371094 -2.550781 6.226562 -1.601562 4.414062 -1.601562 C 2.601562 -1.601562 2.464844 -2.550781 2.464844 -4.105469 L 2.464844 -8.691406 L 0.492188 -8.691406 Z M 0.492188 -3.230469 "/></g></g></g></svg>